<svg width="23" height="22" viewBox="0 0 23 22" fill="none" xmlns="http://www.w3.org/2000/svg">
<mask id="mask0_5756_2606" style="mask-type:alpha" maskUnits="userSpaceOnUse" x="0" y="0" width="23" height="22">
<rect x="0.794922" width="22" height="22" fill="#D9D9D9"/>
</mask>
<g mask="url(#mask0_5756_2606)">
<path d="M5.37826 17.4173H6.66159L14.5678 9.51107L13.2845 8.22773L5.37826 16.134V17.4173ZM18.4866 8.1819L14.5908 4.3319L15.8741 3.04857C16.2255 2.69718 16.6571 2.52148 17.1689 2.52148C17.6807 2.52148 18.1123 2.69718 18.4637 3.04857L19.747 4.3319C20.0984 4.68329 20.2817 5.10725 20.297 5.60378C20.3123 6.1003 20.1442 6.52426 19.7928 6.87565L18.4866 8.1819ZM17.1574 9.53398L7.44076 19.2507H3.54492V15.3548L13.2616 5.63815L17.1574 9.53398Z" fill="#35424F"/>
</g>
</svg>
