<svg width="583" height="442" viewBox="0 0 583 442" fill="none" xmlns="http://www.w3.org/2000/svg">
<g clip-path="url(#clip0_5756_7788)">
<path d="M172.074 326.836L422.94 326.836L422.94 0.000549316L172.074 0.000549316L172.074 326.836Z" fill="#DEE8F5"/>
<path d="M250.933 49.3206C250.933 54.8562 249.298 60.2675 246.236 64.8701C243.174 69.4728 238.821 73.0602 233.729 75.1786C228.636 77.2969 223.033 77.8512 217.627 76.7713C212.221 75.6913 207.255 73.0257 203.358 69.1114C199.46 65.1972 196.806 60.2101 195.731 54.7809C194.655 49.3517 195.207 43.7241 197.317 38.6099C199.426 33.4957 202.998 29.1245 207.581 26.0491C212.164 22.9737 217.552 21.3322 223.064 21.3322C226.727 21.321 230.356 22.0373 233.742 23.4399C237.128 24.8425 240.205 26.9037 242.795 29.5049C245.385 32.1061 247.437 35.1959 248.834 38.5967C250.23 41.9974 250.944 45.642 250.933 49.3206Z" fill="#C1D8ED"/>
<path d="M223.064 52.2038C229.158 52.2038 234.097 47.2429 234.097 41.1234C234.097 35.0038 229.158 30.043 223.064 30.043C216.971 30.043 212.031 35.0038 212.031 41.1234C212.031 47.2429 216.971 52.2038 223.064 52.2038Z" fill="white"/>
<path d="M243.146 68.7274C240.546 71.441 237.427 73.5996 233.976 75.0741C230.525 76.5486 226.814 77.3086 223.064 77.3086C219.314 77.3086 215.602 76.5486 212.152 75.0741C208.701 73.5996 205.582 71.441 202.981 68.7274C206.739 60.2935 214.325 54.5293 223.064 54.5293C231.802 54.5293 239.389 60.2935 243.146 68.7274Z" fill="white"/>
<path d="M318.552 21.5059H262.288V38.5817H318.552V21.5059Z" fill="white"/>
<path d="M399.816 49.1445H262.288V55.3574H399.816V49.1445Z" fill="white"/>
<path d="M399.816 65.9199H262.288V72.1328H399.816V65.9199Z" fill="white"/>
<path d="M242.63 94.8457H195.196V102.183H242.63V94.8457Z" fill="white"/>
<path d="M399.818 110.344H195.196V129.425H399.818V110.344Z" fill="white"/>
<path d="M242.63 143.471H195.196V150.808H242.63V143.471Z" fill="white"/>
<path d="M399.818 158.969H195.196V178.05H399.818V158.969Z" fill="white"/>
<path d="M242.63 192.096H195.196V199.433H242.63V192.096Z" fill="white"/>
<path d="M399.818 207.592H195.196V226.673H399.818V207.592Z" fill="white"/>
<path d="M242.63 240.719H195.196V248.056H242.63V240.719Z" fill="white"/>
<path d="M399.818 256.217H195.196V275.298H399.818V256.217Z" fill="white"/>
<path d="M320.42 291.461H274.591V305.424H320.42V291.461Z" fill="#C1D8ED"/>
<path d="M132.361 147.198C132.361 147.198 137.449 144.489 136.313 130.575L146.825 128.617C146.825 128.617 145.644 141.093 150.962 145.053L132.361 147.198Z" fill="#E98862"/>
<path d="M130.349 125.18C131.077 129.402 133.371 133.4 137.079 134.762C141.48 136.381 144.741 136.491 149.816 136.491C156.741 136.491 156.512 129.237 156.707 121.928C156.904 114.589 156.32 106.717 153.583 104.16C148.122 99.0555 132.085 102.288 130.135 110.826C129.126 115.245 129.657 121.162 130.349 125.18Z" fill="#E98862"/>
<path d="M160.418 108.403C160.418 108.403 163.254 107.767 162.477 104.926C161.963 103.042 159.56 103.461 159.56 103.461C159.56 103.461 161.835 103.042 161.835 101.047C161.835 99.7919 160.873 97.6615 157.972 98.8787C154.568 100.307 150.686 100.123 147.733 99.6247C146.063 99.2575 144.368 99.0172 142.662 98.9058H142.653C140.692 98.8714 138.737 99.134 136.854 99.6849C131.577 101.271 123.468 106.042 125.289 116.795C127.257 128.416 134.303 133.523 135.273 134.23C137.095 135.561 148.301 135.83 149.411 134.716C151.073 133.046 151.977 126.335 151.64 114.644C156.233 113.914 159.387 113.603 159.387 113.603C159.387 113.603 163.204 113.747 163.204 110.945C163.204 108.143 160.418 108.403 160.418 108.403Z" fill="#0F1011"/>
<path d="M154.991 123.313C155.072 124.382 154.728 125.44 154.034 126.255C153.34 127.07 152.354 127.577 151.29 127.664C150.226 127.751 149.17 127.412 148.354 126.721C147.538 126.029 147.028 125.042 146.934 123.973C146.882 123.44 146.937 122.902 147.095 122.391C147.254 121.879 147.514 121.405 147.859 120.997C148.204 120.588 148.628 120.254 149.104 120.013C149.581 119.772 150.101 119.63 150.633 119.596C153.514 119.504 154.808 121.078 154.991 123.313Z" fill="#E98862"/>
<path d="M179.505 434.259L164.64 432.485C165.309 426.834 166.064 420.046 166.116 418.934C166.116 419.004 166.116 419.066 166.116 419.109H181.086C181.083 419.559 181.083 420.931 179.505 434.259Z" fill="#E98862"/>
<path d="M119.856 436.055L104.886 436.006C104.886 436.006 104.936 420.483 104.936 419.107H119.906C119.906 420.487 119.856 436.055 119.856 436.055Z" fill="#E98862"/>
<path d="M185.029 429.061C183.79 397.962 183.784 364.038 183.329 332.882C178.263 298.794 175.443 261.437 169.117 227.593L168.927 227.649L168.369 223.833L114.136 222.783L101.027 428.657L127.31 430.888L143.806 260.365C149.046 285.505 152.562 311.574 157.199 336.462C157.199 336.462 158.76 398.86 158.656 429.511L185.029 429.061Z" fill="#262626"/>
<path d="M138.053 441.871C138.438 441.869 138.818 441.791 139.173 441.642C139.528 441.493 139.85 441.275 140.12 441.001C140.391 440.726 140.605 440.401 140.751 440.044C140.897 439.686 140.971 439.304 140.969 438.917C140.969 438.845 140.966 438.771 140.96 438.699C140.916 438.14 140.715 437.605 140.379 437.157C140.043 436.71 139.587 436.368 139.064 436.172L121.64 430.311C121.303 430.199 120.945 430.161 120.592 430.201C120.238 430.24 119.897 430.356 119.593 430.54C117.197 432.209 114.332 433.063 111.417 432.975C109.148 432.813 106.969 432.013 105.13 430.668C104.968 430.535 104.772 430.451 104.565 430.425C104.357 430.4 104.147 430.434 103.958 430.524C103.769 430.614 103.61 430.756 103.498 430.934C103.387 431.111 103.328 431.317 103.328 431.527V440.084C103.328 440.592 103.529 441.079 103.887 441.439C104.245 441.798 104.73 442 105.236 442H105.245L138.053 441.871Z" fill="#624DE3"/>
<path d="M197.745 441.871C198.129 441.869 198.51 441.791 198.865 441.642C199.219 441.493 199.541 441.275 199.812 441.001C200.083 440.726 200.297 440.401 200.442 440.044C200.588 439.686 200.662 439.304 200.66 438.917C200.66 438.845 200.66 438.771 200.651 438.699C200.608 438.14 200.406 437.605 200.071 437.157C199.735 436.71 199.278 436.368 198.756 436.172L181.332 430.311C180.994 430.199 180.636 430.161 180.283 430.201C179.93 430.24 179.589 430.356 179.284 430.54C176.889 432.209 174.023 433.063 171.109 432.975C168.839 432.813 166.66 432.013 164.821 430.668C164.659 430.535 164.463 430.451 164.256 430.425C164.048 430.4 163.838 430.434 163.649 430.524C163.461 430.614 163.301 430.756 163.19 430.934C163.078 431.111 163.019 431.317 163.02 431.527V440.084C163.02 440.592 163.221 441.079 163.578 441.439C163.936 441.798 164.422 442 164.928 442H164.936L197.745 441.871Z" fill="#624DE3"/>
<path d="M98.1766 246.268C98.1766 248.401 99.2952 255.534 97.4943 256.044C96.4126 256.349 95.1348 251.033 95.1348 251.033" fill="#E98862"/>
<path d="M89.6575 245.148C89.6575 245.148 83.7666 259.548 90.4859 267.822C90.6572 268.032 90.8878 268.186 91.1476 268.263C91.4074 268.34 91.6842 268.336 91.9418 268.252C92.1995 268.169 92.426 268.009 92.5918 267.794C92.7576 267.579 92.8549 267.319 92.8711 267.047C93.2 261.469 94.3186 250.012 97.9796 251.35V242.355" fill="#E98862"/>
<path d="M222.495 168.426C222.495 168.426 230.719 161.862 231.304 159.505C231.889 157.147 226.092 152.511 226.092 152.511C226.092 152.511 233.797 144.713 232.26 143.58C230.447 142.245 221.506 153.59 221.506 153.59C221.506 153.59 222.77 149.508 221.196 149.24C220.549 149.131 220.036 149.769 219.024 152.657C217.871 155.948 215.565 160.902 215.565 160.902L222.495 168.426Z" fill="#E98862"/>
<path d="M213.833 159.7L189.497 187.198L170.438 152.935C168.627 147.557 164.532 143.948 156.189 143.593C153.328 143.469 139.361 143.447 129.136 143.447C122.266 143.447 116.627 145.562 113.371 148.835C111.73 150.458 110.503 152.454 109.792 154.654L109.694 154.618L93.3306 199.301C93.1464 199.802 93.0141 200.321 92.9358 200.849L86.333 245.536L101.708 247.828L108.195 203.937L114.802 185.892C115.49 188.665 115.865 191.507 115.921 194.365C115.921 209.403 109.151 216.143 109.646 223.859C110.431 235.991 169.12 233.124 172.111 226.233C175.189 219.126 168.941 214.748 169.216 191.503C169.245 188.974 169.44 186.328 169.708 183.634L181.257 204.395C181.861 205.483 182.716 206.409 183.75 207.096C184.784 207.784 185.967 208.213 187.2 208.348C188.432 208.483 189.679 208.32 190.836 207.872C191.994 207.424 193.027 206.705 193.851 205.774L225.847 168.185L213.833 159.7Z" fill="#624DE3"/>
<path d="M84.7607 386.599C81.4708 385.517 78.0948 386.731 74.8641 389.199C79.1192 378.408 80.8754 368.661 73.6008 368.222C68.5107 367.915 64.6115 371.837 61.6493 377.413C60.6077 367.609 57.9199 360.298 51.8994 362.722C45.2894 365.383 44.2833 374.504 45.2861 384.047C42.3745 379.172 39.2386 376.454 36.3915 379.314C27.8951 387.847 48.7503 411.891 48.7503 411.891H53.9299L56.8855 415.114C56.2874 416.385 55.9598 417.142 55.9598 417.142L59.7142 424.815C59.7142 424.815 98.415 391.088 84.7607 386.599Z" fill="#32962C"/>
<path d="M75.4743 442.001H46.1614L41.2549 407.635H80.3808L75.4743 442.001Z" fill="#C1D8ED"/>
<path d="M489.858 310.287C488.257 309.758 486.615 310.353 485.043 311.552C487.113 306.302 487.967 301.56 484.428 301.347C481.952 301.198 480.055 303.106 478.614 305.818C478.107 301.049 476.8 297.492 473.87 298.671C470.655 299.966 470.165 304.403 470.653 309.045C469.235 306.674 467.711 305.352 466.326 306.742C462.193 310.893 472.339 322.593 472.339 322.593H474.858L476.296 324.16C476.005 324.778 475.846 325.147 475.846 325.147L477.672 328.879C477.672 328.879 496.502 312.471 489.858 310.287Z" fill="#32962C"/>
<path d="M485.342 337.239H471.081L468.694 320.52H487.729L485.342 337.239Z" fill="#C1D8ED"/>
<path d="M458.126 433.584H450.524V441.999H458.126V433.584Z" fill="#C1D8ED"/>
<path d="M530.448 433.584H522.847V441.999H530.448V433.584Z" fill="#C1D8ED"/>
<path d="M536.992 337.631H505.098V434.559H536.992V337.631Z" fill="#C1D8ED"/>
<path d="M450.427 339.777H417.766V433.583H450.427V339.777Z" fill="#C1D8ED"/>
<path d="M507.246 434.559H415.617V337.631H507.246V434.559ZM419.914 430.244H502.95V341.946H419.914V430.244Z" fill="#DEE8F5"/>
<path d="M507.246 434.559H415.617V381.119H507.246V434.559ZM419.914 430.244H502.95V385.434H419.914V430.244Z" fill="#DEE8F5"/>
<path d="M457.155 349.635V355.807V381.085H496.079V355.807V349.635H457.155Z" fill="#C1D8ED"/>
<path d="M483.321 355.807H444.397V381.084H483.321V355.807Z" fill="#DEE8F5"/>
<path d="M483.321 355.807H444.397V357.701H483.321V355.807Z" fill="#C1D8ED"/>
<path d="M444.398 355.807H483.322V349.634H444.398V355.807Z" fill="#DEE8F5"/>
<path d="M468.174 360.885H459.546C459.051 360.885 458.649 361.288 458.649 361.785V363.78C458.649 364.277 459.051 364.68 459.546 364.68H468.174C468.669 364.68 469.07 364.277 469.07 363.78V361.785C469.07 361.288 468.669 360.885 468.174 360.885Z" fill="white"/>
<path d="M429.071 433.584H421.47V441.999H429.071V433.584Z" fill="#DEE8F5"/>
<path d="M501.394 433.584H493.792V441.999H501.394V433.584Z" fill="#DEE8F5"/>
<path d="M492.747 420.621H450.43V430.244H492.747V420.621Z" fill="#C1D8ED"/>
<path d="M493.473 401.396H451.156V411.02H493.473V401.396Z" fill="#C1D8ED"/>
<path d="M478.306 420.621H433.556V430.244H478.306V420.621Z" fill="#DEE8F5"/>
<g opacity="0.62">
<path opacity="0.62" d="M474.653 420.621H472.481V430.244H474.653V420.621Z" fill="#C1D8ED"/>
</g>
<g opacity="0.62">
<path opacity="0.62" d="M470.309 420.621H468.137V430.244H470.309V420.621Z" fill="#C1D8ED"/>
</g>
<path d="M438.687 428.536C440.393 428.536 441.776 427.147 441.776 425.433C441.776 423.719 440.393 422.33 438.687 422.33C436.98 422.33 435.597 423.719 435.597 425.433C435.597 427.147 436.98 428.536 438.687 428.536Z" fill="#F3F5FD"/>
<path d="M479.033 401.396H434.282V411.02H479.033V401.396Z" fill="#DEE8F5"/>
<path d="M468.392 403.564H437.164V408.853H468.392V403.564Z" fill="#F3F5FD"/>
<g opacity="0.62">
<path opacity="0.62" d="M475.38 401.396H471.27V411.02H475.38V401.396Z" fill="#C1D8ED"/>
</g>
<path d="M453.882 420.631H496.199V411.008H453.882V420.631Z" fill="#C1D8ED"/>
<path d="M437.008 420.631H481.758V411.008H437.008V420.631Z" fill="#F3F5FD"/>
<path d="M440.66 420.631H442.832V411.008H440.66V420.631Z" fill="#DEE8F5"/>
<path d="M445.005 420.631H447.177V411.008H445.005V420.631Z" fill="#DEE8F5"/>
<path d="M476.628 418.923C478.334 418.923 479.718 417.534 479.718 415.82C479.718 414.106 478.334 412.717 476.628 412.717C474.921 412.717 473.538 414.106 473.538 415.82C473.538 417.534 474.921 418.923 476.628 418.923Z" fill="#DEE8F5"/>
<path d="M470.279 413.461H450.524V418.178H470.279V413.461Z" fill="#DEE8F5"/>
</g>
<defs>
<clipPath id="clip0_5756_7788">
<rect width="583" height="442" fill="white"/>
</clipPath>
</defs>
</svg>
