<svg width="24" height="24" viewBox="0 0 24 24" fill="none" xmlns="http://www.w3.org/2000/svg">
<mask id="mask0_5756_1497" style="mask-type:alpha" maskUnits="userSpaceOnUse" x="0" y="0" width="24" height="24">
<rect width="24" height="24" fill="#D9D9D9"/>
</mask>
<g mask="url(#mask0_5756_1497)">
<path d="M8.47578 17.0008L12.0008 13.4758L15.5258 17.0008L17.0008 15.5258L13.4758 12.0008L17.0008 8.47578L15.5258 7.00078L12.0008 10.5258L8.47578 7.00078L7.00078 8.47578L10.5258 12.0008L7.00078 15.5258L8.47578 17.0008ZM12.0008 22.2008C10.5841 22.2008 9.25478 21.9341 8.01278 21.4008C6.77145 20.8674 5.69245 20.1424 4.77578 19.2258C3.85911 18.3091 3.13411 17.2301 2.60078 15.9888C2.06745 14.7468 1.80078 13.4174 1.80078 12.0008C1.80078 10.5841 2.06745 9.25478 2.60078 8.01278C3.13411 6.77145 3.85911 5.69245 4.77578 4.77578C5.69245 3.85911 6.77145 3.13411 8.01278 2.60078C9.25478 2.06745 10.5841 1.80078 12.0008 1.80078C13.4174 1.80078 14.7468 2.06745 15.9888 2.60078C17.2301 3.13411 18.3091 3.85911 19.2258 4.77578C20.1424 5.69245 20.8674 6.77145 21.4008 8.01278C21.9341 9.25478 22.2008 10.5841 22.2008 12.0008C22.2008 13.4174 21.9341 14.7468 21.4008 15.9888C20.8674 17.2301 20.1424 18.3091 19.2258 19.2258C18.3091 20.1424 17.2301 20.8674 15.9888 21.4008C14.7468 21.9341 13.4174 22.2008 12.0008 22.2008ZM12.0008 19.9258C14.2174 19.9258 16.0924 19.1591 17.6258 17.6258C19.1591 16.0924 19.9258 14.2174 19.9258 12.0008C19.9258 9.78411 19.1591 7.90911 17.6258 6.37578C16.0924 4.84245 14.2174 4.07578 12.0008 4.07578C9.78411 4.07578 7.90911 4.84245 6.37578 6.37578C4.84245 7.90911 4.07578 9.78411 4.07578 12.0008C4.07578 14.2174 4.84245 16.0924 6.37578 17.6258C7.90911 19.1591 9.78411 19.9258 12.0008 19.9258Z" fill="#35424F"/>
</g>
</svg>
