<svg width="22" height="22" viewBox="0 0 22 22" fill="none" xmlns="http://www.w3.org/2000/svg">
<mask id="mask0_6916_11433" style="mask-type:alpha" maskUnits="userSpaceOnUse" x="0" y="0" width="22" height="22">
<rect width="22" height="22" fill="#D9D9D9"/>
</mask>
<g mask="url(#mask0_6916_11433)">
<path d="M16.5004 19.9375C15.8004 19.9375 15.2051 19.6924 14.7145 19.2022C14.2238 18.7121 13.9785 18.1169 13.9785 17.4166C13.9785 17.3022 13.9876 17.1837 14.0058 17.0611C14.024 16.9385 14.0514 16.8255 14.0878 16.7221L7.30798 12.7522C7.06589 12.9931 6.7903 13.1815 6.48121 13.3172C6.17213 13.4529 5.84483 13.5208 5.49933 13.5208C4.7991 13.5208 4.20391 13.2758 3.71375 12.7859C3.22359 12.2959 2.97852 11.7009 2.97852 11.001C2.97852 10.3011 3.22359 9.70578 3.71375 9.21514C4.20391 8.72449 4.7991 8.47917 5.49933 8.47917C5.84483 8.47917 6.17213 8.54703 6.48121 8.68276C6.7903 8.8185 7.06589 9.00683 7.30798 9.24775L14.0878 5.27787C14.0514 5.17445 14.024 5.06144 14.0058 4.93884C13.9876 4.81625 13.9785 4.69774 13.9785 4.58331C13.9785 3.88308 14.2235 3.28789 14.7135 2.79774C15.2034 2.30758 15.7984 2.0625 16.4983 2.0625C17.1982 2.0625 17.7935 2.30748 18.2842 2.79744C18.7748 3.2874 19.0201 3.88234 19.0201 4.58228C19.0201 5.28222 18.7751 5.87751 18.2849 6.36815C17.7947 6.8588 17.1996 7.10412 16.4993 7.10412C16.1538 7.10412 15.8265 7.03626 15.5174 6.90053C15.2084 6.76479 14.9328 6.57646 14.6907 6.33554L7.91085 10.3054C7.94728 10.4088 7.97461 10.5216 7.99282 10.6438C8.01103 10.766 8.02014 10.8841 8.02014 10.9981C8.02014 11.1122 8.01103 11.2309 7.99282 11.3543C7.97461 11.4777 7.94728 11.5911 7.91085 11.6945L14.6907 15.6644C14.9328 15.4235 15.2084 15.2352 15.5174 15.0994C15.8265 14.9637 16.1538 14.8958 16.4993 14.8958C17.1996 14.8958 17.7947 15.1408 18.2849 15.6308C18.7751 16.1207 19.0201 16.7157 19.0201 17.4156C19.0201 18.1156 18.7752 18.7108 18.2852 19.2015C17.7952 19.6921 17.2003 19.9375 16.5004 19.9375ZM16.4993 5.72914C16.8178 5.72914 17.0884 5.61779 17.3111 5.39509C17.5338 5.17237 17.6452 4.90177 17.6452 4.58329C17.6452 4.26481 17.5338 3.99421 17.3111 3.77149C17.0884 3.5488 16.8178 3.43746 16.4993 3.43746C16.1808 3.43746 15.9102 3.54881 15.6875 3.77151C15.4648 3.99423 15.3535 4.26483 15.3535 4.58331C15.3535 4.90179 15.4648 5.17239 15.6875 5.39511C15.9102 5.61782 16.1808 5.72914 16.4993 5.72914ZM5.49933 12.1458C5.81781 12.1458 6.08841 12.0345 6.31113 11.8118C6.53383 11.589 6.64518 11.3184 6.64518 11C6.64518 10.6815 6.53383 10.4109 6.31113 10.1882C6.08841 9.96547 5.81781 9.85412 5.49933 9.85412C5.18085 9.85412 4.91025 9.96547 4.68753 10.1882C4.46482 10.4109 4.35347 10.6815 4.35347 11C4.35347 11.3185 4.46482 11.5891 4.68753 11.8118C4.91025 12.0345 5.18085 12.1458 5.49933 12.1458ZM16.4993 18.5625C16.8178 18.5625 17.0884 18.4511 17.3111 18.2284C17.5338 18.0057 17.6452 17.7351 17.6452 17.4166C17.6452 17.0981 17.5338 16.8275 17.3111 16.6048C17.0884 16.3821 16.8178 16.2708 16.4993 16.2708C16.1808 16.2708 15.9102 16.3821 15.6875 16.6048C15.4648 16.8276 15.3535 17.0982 15.3535 17.4166C15.3535 17.7351 15.4648 18.0057 15.6875 18.2284C15.9102 18.4511 16.1808 18.5625 16.4993 18.5625Z" fill="#1F2933"/>
</g>
</svg>
