<svg width="20" height="17" viewBox="0 0 20 17" fill="none" xmlns="http://www.w3.org/2000/svg">
<path d="M9.98754 2.95903C10.8462 2.20033 11.8903 1.8296 13.1197 1.84684C14.3296 1.84684 15.3639 2.22619 16.2226 2.9849C17.0812 3.7436 17.5203 4.66612 17.5399 5.75245C17.5399 6.82154 17.1105 7.73543 16.2519 8.49414L13.7344 10.7185L12.5342 9.65807L15.0517 7.43368C15.5786 6.96811 15.842 6.4077 15.842 5.75245C15.842 5.06272 15.5786 4.48507 15.0517 4.0195C14.5248 3.55393 13.8808 3.32977 13.1197 3.34701C12.3586 3.32977 11.7146 3.55393 11.1877 4.0195L8.67027 6.24389L7.4701 5.18342L9.98754 2.95903ZM8.1141 11.2358L6.88465 10.1495L11.861 5.75245L13.0904 6.83878L8.1141 11.2358ZM4.13303 11.2876C4.13303 11.9428 4.39648 12.5032 4.92339 12.9688C5.45029 13.4344 6.09429 13.6758 6.85538 13.693C7.61646 13.6758 8.26046 13.4344 8.78736 12.9688L11.3048 10.7444L12.505 11.8049L9.98754 14.0292C9.12888 14.788 8.09458 15.1673 6.88465 15.1673C5.6552 15.1501 4.61115 14.7621 3.75249 14.0034C2.89383 13.2447 2.4645 12.3308 2.4645 11.2617C2.44498 10.1754 2.86455 9.25285 3.72322 8.49414L6.24065 6.26975L7.44083 7.33022L4.92339 9.55461C4.39648 10.0202 4.13303 10.5978 4.13303 11.2876Z" fill="#35424F"/>
</svg>
