<svg width="23" height="22" viewBox="0 0 23 22" fill="none" xmlns="http://www.w3.org/2000/svg">
<mask id="mask0_5756_2615" style="mask-type:alpha" maskUnits="userSpaceOnUse" x="0" y="0" width="23" height="22">
<rect x="0.794922" width="22" height="22" fill="#D9D9D9"/>
</mask>
<g mask="url(#mask0_5756_2615)">
<path d="M7.21582 19.25C6.71165 19.25 6.28021 19.0706 5.92149 18.7119C5.56215 18.3526 5.38249 17.9208 5.38249 17.4167V5.5H4.46582V3.66667H9.04915V2.75H14.5492V3.66667H19.1325V5.5H18.2158V17.4167C18.2158 17.9208 18.0365 18.3526 17.6777 18.7119C17.3184 19.0706 16.8867 19.25 16.3825 19.25H7.21582ZM16.3825 5.5H7.21582V17.4167H16.3825V5.5ZM9.04915 15.5833H10.8825V7.33333H9.04915V15.5833ZM12.7158 15.5833H14.5492V7.33333H12.7158V15.5833Z" fill="#35424F"/>
</g>
</svg>
