<svg width="22" height="22" viewBox="0 0 22 22" fill="none" xmlns="http://www.w3.org/2000/svg">
<mask id="mask0_6897_264" style="mask-type:alpha" maskUnits="userSpaceOnUse" x="0" y="0" width="22" height="22">
<rect width="22" height="22" fill="#D9D9D9"/>
</mask>
<g mask="url(#mask0_6897_264)">
<path d="M10.9993 18.3327C10.4952 18.3327 10.0636 18.1532 9.70456 17.7941C9.34553 17.4351 9.16602 17.0035 9.16602 16.4993C9.16602 15.9952 9.34553 15.5636 9.70456 15.2046C10.0636 14.8455 10.4952 14.666 10.9993 14.666C11.5035 14.666 11.9351 14.8455 12.2941 15.2046C12.6532 15.5636 12.8327 15.9952 12.8327 16.4993C12.8327 17.0035 12.6532 17.4351 12.2941 17.7941C11.9351 18.1532 11.5035 18.3327 10.9993 18.3327ZM10.9993 12.8327C10.4952 12.8327 10.0636 12.6532 9.70456 12.2941C9.34553 11.9351 9.16602 11.5035 9.16602 10.9993C9.16602 10.4952 9.34553 10.0636 9.70456 9.70456C10.0636 9.34553 10.4952 9.16602 10.9993 9.16602C11.5035 9.16602 11.9351 9.34553 12.2941 9.70456C12.6532 10.0636 12.8327 10.4952 12.8327 10.9993C12.8327 11.5035 12.6532 11.9351 12.2941 12.2941C11.9351 12.6532 11.5035 12.8327 10.9993 12.8327ZM10.9993 7.33268C10.4952 7.33268 10.0636 7.15317 9.70456 6.79414C9.34553 6.43511 9.16602 6.00352 9.16602 5.49935C9.16602 4.99518 9.34553 4.56359 9.70456 4.20456C10.0636 3.84553 10.4952 3.66602 10.9993 3.66602C11.5035 3.66602 11.9351 3.84553 12.2941 4.20456C12.6532 4.56359 12.8327 4.99518 12.8327 5.49935C12.8327 6.00352 12.6532 6.43511 12.2941 6.79414C11.9351 7.15317 11.5035 7.33268 10.9993 7.33268Z" fill="#1F2933"/>
</g>
</svg>
