<svg width="16" height="17" viewBox="0 0 16 17" fill="none" xmlns="http://www.w3.org/2000/svg">
<path d="M0.179688 6.26184C0.179688 5.03323 0.440639 3.89916 0.962542 2.85963C1.48443 1.8201 2.18874 0.942437 3.07548 0.226631L3.84631 1.19936C3.1038 1.79979 2.5154 2.5359 2.0811 3.40769C1.64681 4.27949 1.42967 5.23087 1.42967 6.26184H0.179688ZM14.5707 6.26184C14.5707 5.23087 14.3535 4.27815 13.9192 3.40369C13.4849 2.52922 12.8965 1.79178 12.154 1.19136L12.9249 0.226631C13.8116 0.942437 14.5159 1.8201 15.0378 2.85963C15.5597 3.89916 15.8206 5.03323 15.8206 6.26184H14.5707ZM1.75019 13.7378V12.4878H3.2566V6.26986C3.2566 5.14914 3.60249 4.15822 4.29425 3.29711C4.98603 2.436 5.87412 1.88526 6.95852 1.64488V1.12565C6.95852 0.837193 7.06001 0.591471 7.263 0.388485C7.46599 0.185485 7.71171 0.0839844 8.00017 0.0839844C8.28862 0.0839844 8.53435 0.185485 8.73733 0.388485C8.94032 0.591471 9.04181 0.837193 9.04181 1.12565V1.64488C10.1262 1.88526 11.0143 2.436 11.7061 3.29711C12.3978 4.15822 12.7437 5.14914 12.7437 6.26986V12.4878H14.2501V13.7378H1.75019ZM8.00017 16.0775C7.58457 16.0775 7.2296 15.9304 6.93527 15.636C6.64094 15.3417 6.49377 14.9867 6.49377 14.5711H9.50656C9.50656 14.9867 9.3594 15.3417 9.06506 15.636C8.77073 15.9304 8.41576 16.0775 8.00017 16.0775ZM4.50656 12.4878H11.4938V6.26986C11.4938 5.30511 11.1527 4.48166 10.4705 3.79951C9.78837 3.11734 8.96492 2.77626 8.00017 2.77626C7.03542 2.77626 6.21197 3.11734 5.52981 3.79951C4.84765 4.48166 4.50656 5.30511 4.50656 6.26986V12.4878Z" fill="white"/>
</svg>
