<svg width="23" height="22" viewBox="0 0 23 22" fill="none" xmlns="http://www.w3.org/2000/svg">
<mask id="mask0_5756_2609" style="mask-type:alpha" maskUnits="userSpaceOnUse" x="0" y="0" width="23" height="22">
<rect x="0.794922" width="22" height="22" fill="#D9D9D9"/>
</mask>
<g mask="url(#mask0_5756_2609)">
<path d="M5.37826 20.1673C4.87409 20.1673 4.44234 19.988 4.08301 19.6292C3.72428 19.2699 3.54492 18.8382 3.54492 18.334V5.50065H5.37826V18.334H15.4616V20.1673H5.37826ZM9.04492 16.5007C8.54075 16.5007 8.10931 16.3213 7.75059 15.9626C7.39125 15.6032 7.21159 15.1715 7.21159 14.6673V3.66732C7.21159 3.16315 7.39125 2.7314 7.75059 2.37207C8.10931 2.01335 8.54075 1.83398 9.04492 1.83398H17.2949C17.7991 1.83398 18.2308 2.01335 18.5902 2.37207C18.9489 2.7314 19.1283 3.16315 19.1283 3.66732V14.6673C19.1283 15.1715 18.9489 15.6032 18.5902 15.9626C18.2308 16.3213 17.7991 16.5007 17.2949 16.5007H9.04492ZM9.04492 14.6673H17.2949V3.66732H9.04492V14.6673Z" fill="#35424F"/>
</g>
</svg>
