<svg width="30" height="30" viewBox="0 0 30 30" fill="none" xmlns="http://www.w3.org/2000/svg">
<mask id="mask0_6879_5036" style="mask-type:alpha" maskUnits="userSpaceOnUse" x="0" y="0" width="30" height="30">
<rect width="30" height="30" fill="#D9D9D9"/>
</mask>
<g mask="url(#mask0_6879_5036)">
<path d="M6.24997 23.75H7.82688L20.6226 10.9543L19.0457 9.37735L6.24997 22.1731V23.75ZM4.375 25.6249V21.3942L20.863 4.91347C21.052 4.74178 21.2607 4.60911 21.4891 4.51547C21.7175 4.42182 21.957 4.375 22.2077 4.375C22.4583 4.375 22.701 4.41948 22.936 4.50844C23.1709 4.59738 23.379 4.73879 23.56 4.93269L25.0865 6.47834C25.2804 6.65943 25.4186 6.8678 25.5011 7.10347C25.5837 7.33912 25.6249 7.57476 25.6249 7.81041C25.6249 8.06176 25.582 8.30164 25.4962 8.53003C25.4103 8.75845 25.2738 8.96717 25.0865 9.15619L8.60572 25.6249H4.375ZM19.8203 10.1796L19.0457 9.37735L20.6226 10.9543L19.8203 10.1796Z" fill="white"/>
</g>
</svg>
