<svg width="23" height="22" viewBox="0 0 23 22" fill="none" xmlns="http://www.w3.org/2000/svg">
<mask id="mask0_5756_2618" style="mask-type:alpha" maskUnits="userSpaceOnUse" x="0" y="0" width="23" height="22">
<rect x="0.794922" width="22" height="22" fill="#D9D9D9"/>
</mask>
<g mask="url(#mask0_5756_2618)">
<path d="M2.62402 6.41732V1.83398H7.20736V3.66732H4.45736V6.41732H2.62402ZM2.62402 20.1673V15.584H4.45736V18.334H7.20736V20.1673H2.62402ZM16.374 20.1673V18.334H19.124V15.584H20.9574V20.1673H16.374ZM19.124 6.41732V3.66732H16.374V1.83398H20.9574V6.41732H19.124ZM16.8324 16.0423H18.2074V17.4173H16.8324V16.0423ZM16.8324 13.2923H18.2074V14.6673H16.8324V13.2923ZM15.4574 14.6673H16.8324V16.0423H15.4574V14.6673ZM14.0824 16.0423H15.4574V17.4173H14.0824V16.0423ZM12.7074 14.6673H14.0824V16.0423H12.7074V14.6673ZM15.4574 11.9173H16.8324V13.2923H15.4574V11.9173ZM14.0824 13.2923H15.4574V14.6673H14.0824V13.2923ZM12.7074 11.9173H14.0824V13.2923H12.7074V11.9173ZM18.2074 4.58398V10.084H12.7074V4.58398H18.2074ZM10.874 11.9173V17.4173H5.37402V11.9173H10.874ZM10.874 4.58398V10.084H5.37402V4.58398H10.874ZM9.49902 16.0423V13.2923H6.74902V16.0423H9.49902ZM9.49902 8.70898V5.95898H6.74902V8.70898H9.49902ZM16.8324 8.70898V5.95898H14.0824V8.70898H16.8324Z" fill="#35424F"/>
</g>
</svg>
