<svg width="20" height="20" viewBox="0 0 20 20" fill="none" xmlns="http://www.w3.org/2000/svg">
<mask id="mask0_6965_325" style="mask-type:alpha" maskUnits="userSpaceOnUse" x="0" y="0" width="20" height="20">
<rect width="20" height="20" fill="#D9D9D9"/>
</mask>
<g mask="url(#mask0_6965_325)">
<path d="M4.16599 15.8327H5.21727L13.7477 7.30218L12.6965 6.25091L4.16599 14.7814V15.8327ZM2.91602 17.0826V14.2622L13.908 3.275C14.034 3.16054 14.1732 3.07209 14.3254 3.00966C14.4777 2.94723 14.6374 2.91602 14.8045 2.91602C14.9715 2.91602 15.1334 2.94567 15.29 3.00497C15.4466 3.06427 15.5853 3.15854 15.706 3.28781L16.7237 4.31825C16.8529 4.43897 16.9451 4.57788 17.0001 4.735C17.0551 4.89209 17.0826 5.04919 17.0826 5.20629C17.0826 5.37386 17.054 5.53377 16.9968 5.68604C16.9396 5.83831 16.8485 5.97746 16.7237 6.10348L5.73649 17.0826H2.91602ZM13.2129 6.78577L12.6965 6.25091L13.7477 7.30218L13.2129 6.78577Z" fill="#35424F"/>
</g>
</svg>
