<svg width="24" height="24" viewBox="0 0 24 24" fill="none" xmlns="http://www.w3.org/2000/svg">
<mask id="mask0_6869_11600" style="mask-type:alpha" maskUnits="userSpaceOnUse" x="0" y="0" width="24" height="24">
<rect width="24" height="24" fill="#D9D9D9"/>
</mask>
<g mask="url(#mask0_6869_11600)">
<path d="M8.47578 16.9998L12.0008 13.4748L15.5258 16.9998L17.0008 15.5248L13.4758 11.9998L17.0008 8.4748L15.5258 6.9998L12.0008 10.5248L8.47578 6.9998L7.00078 8.4748L10.5258 11.9998L7.00078 15.5248L8.47578 16.9998ZM12.0008 22.1998C10.5841 22.1998 9.25478 21.9331 8.01278 21.3998C6.77145 20.8665 5.69245 20.1415 4.77578 19.2248C3.85911 18.3081 3.13411 17.2291 2.60078 15.9878C2.06745 14.7458 1.80078 13.4165 1.80078 11.9998C1.80078 10.5831 2.06745 9.2538 2.60078 8.0118C3.13411 6.77047 3.85911 5.69147 4.77578 4.7748C5.69245 3.85814 6.77145 3.13314 8.01278 2.5998C9.25478 2.06647 10.5841 1.7998 12.0008 1.7998C13.4174 1.7998 14.7468 2.06647 15.9888 2.5998C17.2301 3.13314 18.3091 3.85814 19.2258 4.7748C20.1424 5.69147 20.8674 6.77047 21.4008 8.0118C21.9341 9.2538 22.2008 10.5831 22.2008 11.9998C22.2008 13.4165 21.9341 14.7458 21.4008 15.9878C20.8674 17.2291 20.1424 18.3081 19.2258 19.2248C18.3091 20.1415 17.2301 20.8665 15.9888 21.3998C14.7468 21.9331 13.4174 22.1998 12.0008 22.1998ZM12.0008 19.9248C14.2174 19.9248 16.0924 19.1581 17.6258 17.6248C19.1591 16.0915 19.9258 14.2165 19.9258 11.9998C19.9258 9.78314 19.1591 7.90814 17.6258 6.3748C16.0924 4.84147 14.2174 4.0748 12.0008 4.0748C9.78411 4.0748 7.90911 4.84147 6.37578 6.3748C4.84245 7.90814 4.07578 9.78314 4.07578 11.9998C4.07578 14.2165 4.84245 16.0915 6.37578 17.6248C7.90911 19.1581 9.78411 19.9248 12.0008 19.9248Z" fill="#35424F"/>
</g>
<mask id="mask1_6869_11600" style="mask-type:alpha" maskUnits="userSpaceOnUse" x="0" y="0" width="24" height="24">
<rect width="24" height="24" fill="#D9D9D9"/>
</mask>
<g mask="url(#mask1_6869_11600)">
<path d="M6.39976 19.0006L4.99976 17.6006L10.5998 12.0006L4.99976 6.40061L6.39976 5.00061L11.9998 10.6006L17.5998 5.00061L18.9998 6.40061L13.3998 12.0006L18.9998 17.6006L17.5998 19.0006L11.9998 13.4006L6.39976 19.0006Z" fill="#35424F"/>
</g>
</svg>
