<svg width="20" height="20" viewBox="0 0 20 20" fill="none" xmlns="http://www.w3.org/2000/svg">
<mask id="mask0_5756_1300" style="mask-type:alpha" maskUnits="userSpaceOnUse" x="0" y="0" width="20" height="20">
<rect width="20" height="20" fill="#D9D9D9"/>
</mask>
<g mask="url(#mask0_5756_1300)">
<path d="M15.0016 18.125C14.3653 18.125 13.8241 17.9022 13.378 17.4566C12.932 17.011 12.709 16.4699 12.709 15.8333C12.709 15.7293 12.7173 15.6215 12.7338 15.5101C12.7504 15.3986 12.7752 15.2959 12.8083 15.2019L6.64486 11.5929C6.42478 11.8119 6.17424 11.9831 5.89326 12.1065C5.61227 12.2299 5.31473 12.2916 5.00063 12.2916C4.36406 12.2916 3.82298 12.0689 3.37738 11.6235C2.93178 11.1781 2.70898 10.6372 2.70898 10.0009C2.70898 9.36461 2.93178 8.82344 3.37738 8.3774C3.82298 7.93136 4.36406 7.70833 5.00063 7.70833C5.31473 7.70833 5.61227 7.77003 5.89326 7.89342C6.17424 8.01682 6.42478 8.18803 6.64486 8.40704L12.8083 4.79806C12.7752 4.70405 12.7504 4.60131 12.7338 4.48985C12.7173 4.37841 12.709 4.27067 12.709 4.16665C12.709 3.53008 12.9317 2.98899 13.3771 2.5434C13.8225 2.0978 14.3634 1.875 14.9997 1.875C15.636 1.875 16.1772 2.09771 16.6232 2.54313C17.0693 2.98854 17.2923 3.5294 17.2923 4.16571C17.2923 4.80201 17.0695 5.34319 16.6239 5.78923C16.1783 6.23527 15.6372 6.45829 15.0006 6.45829C14.6865 6.45829 14.389 6.3966 14.108 6.27321C13.827 6.14981 13.5765 5.9786 13.3564 5.75958L7.19292 9.36856C7.22605 9.46258 7.25089 9.56513 7.26744 9.67621C7.284 9.78728 7.29228 9.89465 7.29228 9.99831C7.29228 10.102 7.284 10.2099 7.26744 10.3221C7.25089 10.4343 7.22605 10.5374 7.19292 10.6314L13.3564 14.2404C13.5765 14.0214 13.827 13.8502 14.108 13.7268C14.389 13.6034 14.6865 13.5417 15.0006 13.5417C15.6372 13.5417 16.1783 13.7644 16.6239 14.2098C17.0695 14.6552 17.2923 15.1961 17.2923 15.8324C17.2923 16.4687 17.0696 17.0099 16.6242 17.4559C16.1787 17.9019 15.6379 18.125 15.0016 18.125ZM15.0006 5.20831C15.2902 5.20831 15.5362 5.10708 15.7386 4.90462C15.9411 4.70215 16.0423 4.45615 16.0423 4.16663C16.0423 3.8771 15.9411 3.6311 15.7386 3.42863C15.5362 3.22618 15.2902 3.12496 15.0006 3.12496C14.7111 3.12496 14.4651 3.22619 14.2626 3.42865C14.0602 3.63112 13.9589 3.87712 13.9589 4.16665C13.9589 4.45617 14.0602 4.70217 14.2626 4.90465C14.4651 5.10711 14.7111 5.20831 15.0006 5.20831ZM5.00063 11.0416C5.29016 11.0416 5.53616 10.9404 5.73863 10.738C5.94109 10.5355 6.04232 10.2895 6.04232 9.99996C6.04232 9.71043 5.94109 9.46443 5.73863 9.26196C5.53616 9.05951 5.29016 8.95829 5.00063 8.95829C4.7111 8.95829 4.4651 9.05952 4.26263 9.26198C4.06017 9.46445 3.95894 9.71045 3.95894 9.99998C3.95894 10.2895 4.06017 10.5355 4.26263 10.738C4.4651 10.9404 4.7111 11.0416 5.00063 11.0416ZM15.0006 16.875C15.2902 16.875 15.5362 16.7737 15.7386 16.5713C15.9411 16.3688 16.0423 16.1228 16.0423 15.8333C16.0423 15.5438 15.9411 15.2978 15.7386 15.0953C15.5362 14.8928 15.2902 14.7916 15.0006 14.7916C14.7111 14.7916 14.4651 14.8929 14.2626 15.0953C14.0602 15.2978 13.9589 15.5438 13.9589 15.8333C13.9589 16.1228 14.0602 16.3688 14.2626 16.5713C14.4651 16.7738 14.7111 16.875 15.0006 16.875Z" fill="white"/>
</g>
</svg>
