<svg width="24" height="24" viewBox="0 0 24 24" fill="none" xmlns="http://www.w3.org/2000/svg">
<mask id="mask0_5756_5819" style="mask-type:alpha" maskUnits="userSpaceOnUse" x="0" y="0" width="24" height="24">
<rect width="24" height="24" fill="#D9D9D9"/>
</mask>
<g mask="url(#mask0_5756_5819)">
<path d="M12 11.6913C11.0375 11.6913 10.2135 11.3486 9.52813 10.6632C8.84271 9.97782 8.5 9.15387 8.5 8.19138C8.5 7.22888 8.84271 6.40493 9.52813 5.71953C10.2135 5.03411 11.0375 4.69141 12 4.69141C12.9625 4.69141 13.7864 5.03411 14.4718 5.71953C15.1572 6.40493 15.5 7.22888 15.5 8.19138C15.5 9.15387 15.1572 9.97782 14.4718 10.6632C13.7864 11.3486 12.9625 11.6913 12 11.6913ZM4.5 19.3067V17.0837C4.5 16.5939 4.63302 16.1404 4.89905 15.7231C5.16507 15.3058 5.52051 14.985 5.96537 14.7606C6.95384 14.276 7.95096 13.9125 8.95672 13.6702C9.96249 13.4279 10.9769 13.3068 12 13.3068C13.023 13.3068 14.0375 13.4279 15.0432 13.6702C16.049 13.9125 17.0461 14.276 18.0346 14.7606C18.4794 14.985 18.8349 15.3058 19.1009 15.7231C19.3669 16.1404 19.5 16.5939 19.5 17.0837V19.3067H4.5Z" fill="#35424F"/>
</g>
</svg>
