<svg width="22" height="22" viewBox="0 0 22 22" fill="none" xmlns="http://www.w3.org/2000/svg">
<mask id="mask0_6933_5439" style="mask-type:alpha" maskUnits="userSpaceOnUse" x="0" y="0" width="22" height="22">
<rect width="22" height="22" fill="#D9D9D9"/>
</mask>
<g mask="url(#mask0_6933_5439)">
<path d="M4.67435 14.7118C4.33824 14.1313 4.08615 13.5355 3.9181 12.9243C3.75004 12.3132 3.66602 11.6868 3.66602 11.0452C3.66602 8.99796 4.37643 7.25629 5.79727 5.82018C7.2181 4.38407 8.95213 3.66602 10.9993 3.66602H11.1598L9.6931 2.19935L10.9764 0.916016L14.6431 4.58268L10.9764 8.24935L9.6931 6.96602L11.1598 5.49935H10.9993C9.47157 5.49935 8.17296 6.03789 7.10352 7.11497C6.03407 8.19206 5.49935 9.50213 5.49935 11.0452C5.49935 11.4424 5.54518 11.832 5.63685 12.2139C5.72852 12.5959 5.86602 12.9702 6.04935 13.3368L4.67435 14.7118ZM11.0223 21.0827L7.3556 17.416L11.0223 13.7493L12.3056 15.0327L10.8389 16.4993H10.9993C12.5271 16.4993 13.8257 15.9608 14.8952 14.8837C15.9646 13.8066 16.4993 12.4966 16.4993 10.9535C16.4993 10.5563 16.4535 10.1667 16.3618 9.78477C16.2702 9.40282 16.1327 9.02851 15.9493 8.66185L17.3243 7.28685C17.6605 7.8674 17.9125 8.46324 18.0806 9.07435C18.2487 9.68546 18.3327 10.3118 18.3327 10.9535C18.3327 13.0007 17.6223 14.7424 16.2014 16.1785C14.7806 17.6146 13.0466 18.3327 10.9993 18.3327H10.8389L12.3056 19.7993L11.0223 21.0827Z" fill="white"/>
</g>
</svg>
