<svg width="22" height="22" viewBox="0 0 22 22" fill="none" xmlns="http://www.w3.org/2000/svg">
<mask id="mask0_5756_427" style="mask-type:alpha" maskUnits="userSpaceOnUse" x="0" y="0" width="22" height="22">
<rect width="22" height="22" fill="#D9D9D9"/>
</mask>
<g mask="url(#mask0_5756_427)">
<path d="M10.084 15.584H11.9173V10.084H10.084V15.584ZM11.0007 8.25065C11.2604 8.25065 11.4781 8.1628 11.6538 7.98711C11.8295 7.81142 11.9173 7.59371 11.9173 7.33398C11.9173 7.07426 11.8295 6.85655 11.6538 6.68086C11.4781 6.50517 11.2604 6.41732 11.0007 6.41732C10.7409 6.41732 10.5232 6.50517 10.3475 6.68086C10.1718 6.85655 10.084 7.07426 10.084 7.33398C10.084 7.59371 10.1718 7.81142 10.3475 7.98711C10.5232 8.1628 10.7409 8.25065 11.0007 8.25065ZM11.0007 20.1673C9.7326 20.1673 8.54093 19.9267 7.42565 19.4454C6.31037 18.9642 5.34023 18.3111 4.51523 17.4861C3.69023 16.6611 3.03711 15.6909 2.55586 14.5757C2.07461 13.4604 1.83398 12.2687 1.83398 11.0007C1.83398 9.7326 2.07461 8.54093 2.55586 7.42565C3.03711 6.31037 3.69023 5.34023 4.51523 4.51523C5.34023 3.69023 6.31037 3.03711 7.42565 2.55586C8.54093 2.07461 9.7326 1.83398 11.0007 1.83398C12.2687 1.83398 13.4604 2.07461 14.5757 2.55586C15.6909 3.03711 16.6611 3.69023 17.4861 4.51523C18.3111 5.34023 18.9642 6.31037 19.4454 7.42565C19.9267 8.54093 20.1673 9.7326 20.1673 11.0007C20.1673 12.2687 19.9267 13.4604 19.4454 14.5757C18.9642 15.6909 18.3111 16.6611 17.4861 17.4861C16.6611 18.3111 15.6909 18.9642 14.5757 19.4454C13.4604 19.9267 12.2687 20.1673 11.0007 20.1673ZM11.0007 18.334C13.0479 18.334 14.7819 17.6236 16.2027 16.2027C17.6236 14.7819 18.334 13.0479 18.334 11.0007C18.334 8.95343 17.6236 7.2194 16.2027 5.79857C14.7819 4.37773 13.0479 3.66732 11.0007 3.66732C8.95343 3.66732 7.2194 4.37773 5.79857 5.79857C4.37773 7.2194 3.66732 8.95343 3.66732 11.0007C3.66732 13.0479 4.37773 14.7819 5.79857 16.2027C7.2194 17.6236 8.95343 18.334 11.0007 18.334Z" fill="#35424F"/>
</g>
</svg>
