<svg width="23" height="22" viewBox="0 0 23 22" fill="none" xmlns="http://www.w3.org/2000/svg">
<mask id="mask0_5756_2603" style="mask-type:alpha" maskUnits="userSpaceOnUse" x="0" y="0" width="23" height="22">
<rect x="0.794922" width="22" height="22" fill="#D9D9D9"/>
</mask>
<g mask="url(#mask0_5756_2603)">
<path d="M5.37826 19.25C4.87409 19.25 4.44234 19.0706 4.08301 18.7119C3.72428 18.3526 3.54492 17.9208 3.54492 17.4167V4.58333C3.54492 4.07917 3.72428 3.64742 4.08301 3.28808C4.44234 2.92936 4.87409 2.75 5.37826 2.75H11.7949V4.58333H5.37826V17.4167H18.2116V11H20.0449V17.4167C20.0449 17.9208 19.8656 18.3526 19.5068 18.7119C19.1475 19.0706 18.7158 19.25 18.2116 19.25H5.37826ZM9.68659 14.3917L8.40326 13.1083L16.9283 4.58333H13.6283V2.75H20.0449V9.16667H18.2116V5.86667L9.68659 14.3917Z" fill="#35424F"/>
</g>
</svg>
