<svg width="14" height="14" viewBox="0 0 14 14" fill="none" xmlns="http://www.w3.org/2000/svg">
<path d="M8.97048 10.3771L6.74946 12.5981C6.00957 13.338 5.11816 13.708 4.07525 13.708C3.03234 13.7081 2.14098 13.3382 1.40118 12.5984C0.661378 11.8586 0.291405 10.9672 0.291257 9.92405C0.29111 8.88092 0.660981 7.98941 1.40087 7.24952L3.62189 5.0285L4.50575 5.91235L2.28472 8.13337C1.7899 8.6282 1.54248 9.22502 1.54248 9.92381C1.54248 10.6226 1.7899 11.2194 2.28472 11.7143C2.77955 12.2091 3.37636 12.4565 4.07516 12.4565C4.77396 12.4565 5.37077 12.2091 5.8656 11.7143L8.08662 9.49323L8.97048 10.3771ZM5.231 9.65183L4.34715 8.76797L8.76654 4.34858L9.65039 5.23244L5.231 9.65183ZM10.3756 8.97191L9.49179 8.08806L11.7128 5.86704C12.2076 5.37221 12.4551 4.7754 12.4551 4.0766C12.4551 3.3778 12.2076 2.78099 11.7128 2.28616C11.218 1.79133 10.6212 1.54392 9.92238 1.54392C9.22358 1.54392 8.62677 1.79133 8.13194 2.28616L5.91091 4.50718L5.02706 3.62333L7.24808 1.40231C7.98797 0.662417 8.87937 0.292439 9.92229 0.29237C10.9652 0.292301 11.8566 0.662167 12.5964 1.40197C13.3362 2.14177 13.7061 3.03323 13.7063 4.07636C13.7064 5.11949 13.3366 6.011 12.5967 6.75089L10.3756 8.97191Z" fill="white"/>
</svg>
