<svg width="236" height="217" viewBox="0 0 236 217" fill="none" xmlns="http://www.w3.org/2000/svg">
<path d="M67.5178 217C30.7727 217 0.984863 214.379 0.984863 211.146C0.984863 207.914 30.7727 205.293 67.5178 205.293C104.263 205.293 134.051 207.914 134.051 211.146C134.051 214.379 104.263 217 67.5178 217Z" fill="white"/>
<path opacity="0.1" d="M67.5178 217C30.7727 217 0.984863 214.379 0.984863 211.146C0.984863 207.914 30.7727 205.293 67.5178 205.293C104.263 205.293 134.051 207.914 134.051 211.146C134.051 214.379 104.263 217 67.5178 217Z" fill="#292A2E"/>
<path d="M177.964 124.104H199.172V129.987H177.964V124.104Z" fill="#F4F4F4"/>
<path opacity="0.05" d="M193.545 124.104H196.324V129.987H193.545V124.104Z" fill="#292A2E"/>
<path d="M180.674 125.383H192.229V128.869H180.674V125.383Z" fill="white"/>
<path d="M161.048 124.87L180.754 116.664L183.224 122.056L163.518 130.261L161.048 124.87Z" fill="#F4F4F4"/>
<path opacity="0.05" d="M161.048 124.87L180.754 116.664L183.224 122.056L163.518 130.261L161.048 124.87Z" fill="#292A2E"/>
<path d="M163.695 123.769L166.277 122.693L168.747 128.085L166.165 129.161L163.695 123.769Z" fill="white"/>
<path d="M168.037 123.356L178.773 118.885L180.237 122.08L169.501 126.55L168.037 123.356Z" fill="white"/>
<path opacity="0.05" d="M161.012 198.633H166.342V202.027H161.012V198.633Z" fill="#292A2E"/>
<path opacity="0.05" d="M215.5 198.633H220.83V202.027H215.5V198.633Z" fill="#292A2E"/>
<path d="M156.126 130.264H225.715V198.519H156.126V130.264Z" fill="#F4F4F4"/>
<path opacity="0.03" d="M156.126 130.264H225.715V198.519H156.126V130.264Z" fill="#292A2E"/>
<path d="M143.23 130.264H212.818V198.519H143.23V130.264Z" fill="#F4F4F4"/>
<path opacity="0.05" d="M148.115 198.633H153.445V202.027H148.115V198.633Z" fill="#292A2E"/>
<path opacity="0.05" d="M202.604 198.633H207.934V202.027H202.604V198.633Z" fill="#292A2E"/>
<path opacity="0.7" d="M145.843 133.461H210.207V146.574H145.843V133.461Z" fill="white"/>
<path opacity="0.7" d="M145.843 149.783H210.207V162.897H145.843V149.783Z" fill="white"/>
<path opacity="0.7" d="M145.843 166.107H210.207V179.221H145.843V166.107Z" fill="white"/>
<path opacity="0.05" d="M178.025 141.852C176.962 141.852 176.1 141.03 176.1 140.017C176.1 139.003 176.962 138.182 178.025 138.182C179.088 138.182 179.949 139.003 179.949 140.017C179.949 141.03 179.088 141.852 178.025 141.852Z" fill="#292A2E"/>
<path opacity="0.05" d="M178.025 158.176C176.962 158.176 176.1 157.354 176.1 156.341C176.1 155.327 176.962 154.506 178.025 154.506C179.088 154.506 179.949 155.327 179.949 156.341C179.949 157.354 179.088 158.176 178.025 158.176Z" fill="#292A2E"/>
<path opacity="0.05" d="M178.025 174.498C176.962 174.498 176.1 173.676 176.1 172.663C176.1 171.65 176.962 170.828 178.025 170.828C179.088 170.828 179.949 171.65 179.949 172.663C179.949 173.676 179.088 174.498 178.025 174.498Z" fill="#292A2E"/>
<path opacity="0.7" d="M145.843 182.797H210.207V195.91H145.843V182.797Z" fill="white"/>
<path opacity="0.05" d="M178.025 191.187C176.962 191.187 176.1 190.366 176.1 189.353C176.1 188.339 176.962 187.518 178.025 187.518C179.088 187.518 179.949 188.339 179.949 189.353C179.949 190.366 179.088 191.187 178.025 191.187Z" fill="#292A2E"/>
<path d="M201.013 62.5137L159.865 62.5137V11.4486L201.013 11.4486V62.5137Z" fill="#F4F4F4"/>
<path d="M201.013 11.4492H202.348V62.5143H201.013V11.4492Z" fill="#F4F4F4"/>
<path opacity="0.05" d="M201.013 11.4492H202.348V62.5143H201.013V11.4492Z" fill="#292A2E"/>
<path opacity="0.05" d="M193.518 53.2129H167.361V20.752H193.518V53.2129Z" fill="#292A2E"/>
<path opacity="0.03" d="M193.517 53.2129H192.154V20.752H193.517V53.2129Z" fill="#292A2E"/>
<path d="M234.664 107.453H201.012V75.0731H234.664V107.453Z" fill="#F4F4F4"/>
<path opacity="0.05" d="M228.535 101.555H207.143V80.9717H228.535V101.555Z" fill="#292A2E"/>
<path d="M234.665 75.0723H236V107.452H234.665V75.0723Z" fill="#F4F4F4"/>
<path opacity="0.05" d="M234.665 75.0723H236V107.452H234.665V75.0723Z" fill="#292A2E"/>
<path opacity="0.03" d="M228.535 101.555H227.172V80.9717H228.535V101.555Z" fill="#292A2E"/>
<path d="M29.4564 11.3281H115.326V93.1989H29.4564V11.3281Z" fill="#F4F4F4"/>
<path d="M115.326 11.3281H116.311V93.1989H115.326V11.3281Z" fill="#F4F4F4"/>
<path opacity="0.05" d="M115.326 11.3281H116.311V93.1989H115.326V11.3281Z" fill="#292A2E"/>
<path opacity="0.05" d="M94.5235 67.7445V46.3242H76.1203V58.769H47.6138V80.8037H35.498V93.1996H47.6138H49.9478H111.195V67.7445H94.5235Z" fill="#292A2E"/>
<path opacity="0.34" d="M78.4834 48.6504H91.8848V50.9761H78.4834V48.6504Z" fill="#FFFFFA"/>
<path opacity="0.34" d="M78.4834 53.4707H91.8848V55.7964H78.4834V53.4707Z" fill="#FFFFFA"/>
<path opacity="0.34" d="M78.4834 58.2891H91.8848V60.6147H78.4834V58.2891Z" fill="#FFFFFA"/>
<path opacity="0.34" d="M106.348 70.002H108.818V72.3278H106.348V70.002Z" fill="#FFFFFA"/>
<path opacity="0.34" d="M106.348 74.8223H108.818V77.1481H106.348V74.8223Z" fill="#FFFFFA"/>
<path opacity="0.34" d="M106.348 79.6406H108.818V81.9665H106.348V79.6406Z" fill="#FFFFFA"/>
<path opacity="0.34" d="M101.778 70.002H104.248V72.3278H101.778V70.002Z" fill="#FFFFFA"/>
<path opacity="0.34" d="M101.778 74.8223H104.248V77.1481H101.778V74.8223Z" fill="#FFFFFA"/>
<path opacity="0.34" d="M101.778 79.6406H104.248V81.9665H101.778V79.6406Z" fill="#FFFFFA"/>
<path opacity="0.34" d="M97.3324 70.002H99.8027V72.3278H97.3324V70.002Z" fill="#FFFFFA"/>
<path opacity="0.34" d="M97.3324 74.8223H99.8027V77.1481H97.3324V74.8223Z" fill="#FFFFFA"/>
<path opacity="0.34" d="M97.3324 79.6406H99.8027V81.9665H97.3324V79.6406Z" fill="#FFFFFA"/>
<path d="M115.326 51.8044H98.0479V11.3281H96.6188V51.8044H49.948V11.3281H48.5192V51.8044H29.4564V53.1667H48.5192V93.1992H49.948V53.1667H96.6188V93.1992H98.0479V53.1667H115.326V51.8044Z" fill="white"/>
<path d="M26.0348 93.1016H118.746V95.8242H26.0348V93.1016Z" fill="#F4F4F4"/>
<path opacity="0.1" d="M26.0348 93.1016H118.746V95.8242H26.0348V93.1016Z" fill="#292A2E"/>
<path opacity="0.1" d="M118.747 93.1016H120.086V95.8244H118.747V93.1016Z" fill="#292A2E"/>
<path opacity="0.1" d="M118.747 93.1016H120.086V95.8244H118.747V93.1016Z" fill="#292A2E"/>
<path d="M44.1831 107.127C57.3292 107.127 67.9863 110.546 67.9863 114.765V123.857H20.3796V114.765C20.3796 110.546 31.0368 107.127 44.1831 107.127Z" fill="#624DE3"/>
<path opacity="0.49" d="M44.1831 107.127C57.3292 107.127 67.9863 110.546 67.9863 114.765V123.857H20.3796V114.765C20.3796 110.546 31.0368 107.127 44.1831 107.127Z" fill="white"/>
<path opacity="0.49" d="M26.8634 114.765V123.856H67.9863V114.765C67.9863 110.899 59.0361 107.704 47.425 107.199C35.8126 107.704 26.8634 110.899 26.8634 114.765Z" fill="white"/>
<path d="M20.3791 212.206H19.5802L20.3791 123.051L21.1711 123.812L20.6064 186.09L48.8071 186.547L49.3761 123.806L50.1682 123.812L49.5989 186.56L66.6227 186.835L67.1943 123.806L67.9863 123.057L67.1874 212.206L66.4022 212.2L66.6161 187.591L49.5923 187.315L49.3761 212.206L48.5841 212.2L48.8003 187.302L20.5995 186.845L20.3791 212.206Z" fill="#292A2E"/>
<path d="M92.1791 198.859C92.1791 198.859 93.5948 205.856 100.465 206.245C107.336 206.635 105.846 211.854 105.846 211.854H79.5907V199.347L92.1791 198.859Z" fill="#624DE3"/>
<path d="M77.1987 177.816C77.1987 177.816 75.2299 184.689 81.2142 187.931C87.1985 191.172 83.4457 195.228 83.4457 195.228L59.887 184.177L65.6772 172.955L77.1987 177.816Z" fill="#624DE3"/>
<path d="M79.6923 182.359L97.4439 118.499C98.7904 111.444 96.7633 108.386 93.6396 105.416C88.1517 100.197 65.4115 89.0886 65.4115 89.0886L38.1303 89.0176C30.8962 89.0176 23.7853 95.8184 23.7853 102.715C23.7853 109.612 31.1391 115.461 38.3729 115.461L71.9673 118.658L62.8608 177.13L79.6923 182.359Z" fill="#262626"/>
<path d="M62.8599 177.129L66.445 154.109L84.6074 164.673L79.6911 182.358L62.8599 177.129Z" fill="#0C0C0C"/>
<path d="M58.7444 102.012C58.7444 102.012 70.2126 104.448 81.5708 115.278C88.4572 121.843 87.8924 133.725 86.8593 156.577L75.5786 140.691L63.2055 119.415L58.7444 102.012Z" fill="#0C0C0C"/>
<path d="M19.0367 89.0111L37.564 88.9277L37.5709 89.1603H43.181C43.181 89.1603 57.2343 101.489 68.5475 109.258C76.777 114.908 81.7974 120.296 82.2317 126.168C83.2907 140.481 95.2344 201.525 95.2344 201.525L77.2594 204.12L61.485 131.168C61.485 131.168 36.8203 120.326 31.1151 116.553C25.7428 113.001 21.948 111.627 20.1701 107.75C17.0998 101.054 19.0367 89.0111 19.0367 89.0111Z" fill="#262626"/>
<path d="M39.821 93.4591L69.877 93.8387L53.0169 103.439L38.988 96.5324C38.65 96.3594 38.3826 96.0832 38.2288 95.748C38.075 95.4129 38.0435 95.0383 38.1395 94.6841C38.2355 94.33 38.4534 94.0167 38.7583 93.7946C39.0631 93.5725 39.4373 93.4544 39.821 93.4591Z" fill="#292A2E"/>
<path opacity="0.2" d="M39.821 93.4591L69.877 93.8387L53.0169 103.439L38.988 96.5324C38.65 96.3594 38.3826 96.0832 38.2288 95.748C38.075 95.4129 38.0435 95.0383 38.1395 94.6841C38.2355 94.33 38.4534 94.0167 38.7583 93.7946C39.0631 93.5725 39.4373 93.4544 39.821 93.4591Z" fill="white"/>
<path d="M69.705 42.0488L78.2064 68.3115L95.2344 89.5676L85.2874 100.454L65.0295 78.8967C64.0961 78.1935 63.366 77.2752 62.9081 76.2285L62.5925 75.5002L50.8912 48.5068L69.705 42.0488Z" fill="#624DE3"/>
<path d="M56.6079 14.1727C56.6079 14.1727 60.0335 11.7058 60.8821 6.03197C61.5395 1.63862 57.2888 4.48487 57.2888 4.48487C57.2888 4.48487 57.7297 1.31692 55.3086 1.63132C52.8876 1.94572 51.5332 5.27352 51.5332 5.27352" fill="#0C0C0C"/>
<path d="M42.7969 2.00195C42.7969 2.00195 30.7856 3.22961 35.1276 18.7479L36.1903 18.8159L38.3479 18.9538" fill="#0C0C0C"/>
<path d="M54.5957 34.9533C54.5429 34.9468 53.9568 44.2168 42.662 43.4095C34.8415 42.8509 32.0532 34.9403 31.8742 34.9403C32.7172 34.7693 33.7593 34.5101 34.1733 34.4212C35.0758 34.2215 35.8932 33.7645 36.5167 33.1111C37.1402 32.4576 37.5403 31.6387 37.6636 30.7631C37.8923 29.4491 37.5052 22.7261 37.6238 21.3965L49.6266 23.951C49.4587 26.7592 48.2849 33.2691 52.3988 34.4212C53.0839 34.6115 53.8216 34.7877 54.5957 34.9533Z" fill="#E98862"/>
<path opacity="0.52" d="M49.7949 31.7602C49.6069 31.1824 49.4858 30.5867 49.4337 29.9838C49.302 28.608 49.3286 27.2226 49.513 25.8523C47.073 25.5388 44.7742 24.579 42.8779 23.082C42.6548 23.8669 41.4289 27.2964 41.769 28.041C42.41 29.4507 45.4249 31.7602 49.7949 31.7602Z" fill="#0C0C0C"/>
<path d="M47.3178 29.9272C42.5821 29.5221 36.9138 26.6694 36.832 20.5401L36.7583 15.0097C36.6765 8.88075 39.9868 3.87119 46.0394 3.79768C52.0921 3.72443 56.6826 8.63809 56.7644 14.7673L56.7969 17.2156C56.7928 18.0564 56.7286 18.896 56.6047 19.7286C56.2942 21.9311 55.8126 25.2798 54.2449 27.5451C52.7645 29.6838 50.3434 30.1857 47.3178 29.9272Z" fill="#E98862"/>
<path opacity="0.52" d="M49.5134 24.324C50.4908 24.3662 51.465 24.1889 52.3574 23.8062C52.3938 23.7905 52.4223 23.7618 52.4368 23.7263C52.4513 23.6908 52.4507 23.6513 52.435 23.6162C52.4193 23.5811 52.3899 23.5533 52.353 23.5387C52.316 23.5241 52.2746 23.5239 52.2375 23.5381C50.315 24.3197 48.5694 24.2054 47.1896 23.2073C47.1618 23.1863 47.1329 23.1667 47.103 23.1486C47.0683 23.1331 47.0287 23.1305 46.9921 23.1415C46.9555 23.1524 46.9246 23.1761 46.9054 23.2078C46.8863 23.2395 46.8803 23.2769 46.8887 23.3125C46.8972 23.3482 46.9193 23.3796 46.9509 23.4004C46.962 23.4069 46.9799 23.4203 47.0037 23.4384C47.7291 23.9653 48.603 24.2736 49.5134 24.324Z" fill="#0C0C0C"/>
<path opacity="0.52" d="M49.4705 25.7036C49.6471 25.714 49.8243 25.7099 50.0001 25.6915C50.0201 25.6895 50.0394 25.6837 50.057 25.6746C50.0746 25.6655 50.0902 25.6531 50.1028 25.6382C50.1154 25.6234 50.1248 25.6063 50.1305 25.588C50.1361 25.5696 50.138 25.5504 50.1359 25.5314C50.1338 25.5124 50.1277 25.494 50.1181 25.4772C50.1086 25.4604 50.0956 25.4455 50.08 25.4335C50.0644 25.4215 50.0465 25.4125 50.0273 25.4071C50.008 25.4017 49.9879 25.4 49.9679 25.402C48.9102 25.509 48.4051 25.047 48.3837 25.0271C48.3551 24.9998 48.3163 24.9844 48.2758 24.9844C48.2353 24.9843 48.1964 24.9996 48.1677 25.0269C48.139 25.0542 48.1229 25.0912 48.1229 25.1298C48.1228 25.1684 48.1389 25.2055 48.1675 25.2328C48.5317 25.5286 48.9921 25.6949 49.4705 25.7036Z" fill="#0C0C0C"/>
<path d="M54.7661 18.3925C54.3543 18.3925 54.0204 18.0743 54.0204 17.6816C54.0204 17.289 54.3543 16.9707 54.7661 16.9707C55.1779 16.9707 55.5117 17.289 55.5117 17.6816C55.5117 18.0743 55.1779 18.3925 54.7661 18.3925Z" fill="#0C0C0C"/>
<path d="M47.4809 17.9589C47.0691 17.9589 46.7353 17.6407 46.7353 17.248C46.7353 16.8554 47.0691 16.5371 47.4809 16.5371C47.8927 16.5371 48.2266 16.8554 48.2266 17.248C48.2266 17.6407 47.8927 17.9589 47.4809 17.9589Z" fill="#0C0C0C"/>
<path d="M37.2334 22.4039C35.3938 22.4264 33.8777 20.568 33.8537 18.8141C33.8297 17.0602 35.3088 16.0749 37.1484 16.0527L38.1118 17.2163L38.8145 22.3848L37.2334 22.4039Z" fill="#E98862"/>
<path d="M39.063 19.5847C39.063 19.5847 39.684 10.9121 42.4424 10.3764C44.2795 10.0197 48.7343 12.5042 52.8607 11.7538C54.6658 11.4266 56.3795 11.8515 56.5538 12.6646C56.6229 12.9865 57.7474 8.36007 54.9205 4.85003C52.6698 2.05589 45.3044 1.26547 41.9535 2.18175C32.6748 4.71963 36.7692 16.4336 36.7692 16.4336L37.1829 19.4236L39.063 19.5847Z" fill="#0C0C0C"/>
<g opacity="0.52">
<path opacity="0.52" d="M50.6264 22.2785C50.6303 22.2787 50.6342 22.2787 50.638 22.2785C51.2308 22.273 52.2247 22.2002 52.2207 21.7775C52.2165 21.4271 51.1709 17.6552 51.0515 17.2263C51.0413 17.1894 51.0161 17.1578 50.9814 17.1386C50.9468 17.1194 50.9056 17.1142 50.8668 17.1239C50.8281 17.1337 50.795 17.1578 50.7749 17.1908C50.7548 17.2238 50.7492 17.2631 50.7595 17.3C51.2242 18.9706 51.916 21.5424 51.9186 21.7811C51.8613 21.8818 51.249 21.9855 50.6354 21.9915C50.5967 21.9923 50.5598 22.0072 50.5323 22.0332C50.5048 22.0592 50.4888 22.0943 50.4877 22.1312C50.4865 22.1681 50.5003 22.204 50.5261 22.2315C50.5519 22.259 50.5878 22.276 50.6264 22.279V22.2785Z" fill="#0C0C0C"/>
</g>
<path d="M52.6487 13.8277C53.2718 13.6642 53.9296 13.6642 54.5527 13.8277C54.8586 13.9062 55.1505 14.028 55.4185 14.1892C55.6835 14.347 55.9266 14.5362 56.1419 14.7521C56.1816 14.7906 56.2042 14.8421 56.2051 14.8961C56.2059 14.9501 56.1849 15.0023 56.1464 15.0418C56.1079 15.0814 56.0549 15.1053 55.9984 15.1085C55.9419 15.1117 55.8862 15.0941 55.843 15.0592L55.8295 15.0481C55.6303 14.8721 55.4085 14.7208 55.1695 14.5978C54.935 14.4753 54.6825 14.3874 54.4204 14.337C53.9045 14.2339 53.3692 14.2624 52.8686 14.4198L52.8478 14.4268C52.7659 14.452 52.6769 14.4457 52.5997 14.4093C52.5226 14.3729 52.4634 14.3093 52.4347 14.2319C52.406 14.1545 52.4101 14.0695 52.4461 13.995C52.4822 13.9204 52.5473 13.8622 52.6276 13.8327L52.6487 13.8277Z" fill="#0C0C0C"/>
<path d="M48.2374 14.1856C47.7633 13.966 47.2367 13.8697 46.711 13.9064C46.4443 13.923 46.1818 13.978 45.9324 14.0696C45.6786 14.1614 45.4379 14.2831 45.216 14.4321L45.2018 14.4411C45.1541 14.4704 45.0964 14.481 45.0408 14.4707C44.9851 14.4605 44.9358 14.4301 44.903 14.3859C44.8703 14.3418 44.8567 14.2873 44.8651 14.2339C44.8735 14.1804 44.9032 14.1321 44.948 14.099C45.1916 13.9124 45.4589 13.7558 45.7436 13.6331C46.0318 13.5074 46.3381 13.4237 46.6524 13.3848C47.2926 13.3017 47.9445 13.3849 48.5392 13.6258C48.5791 13.6423 48.6152 13.6661 48.6454 13.696C48.6756 13.7258 48.6993 13.761 48.7152 13.7996C48.7312 13.8381 48.739 13.8793 48.7382 13.9208C48.7375 13.9622 48.7282 14.0031 48.7108 14.0411C48.6758 14.1179 48.6102 14.1783 48.5285 14.209C48.4881 14.2242 48.4449 14.2316 48.4014 14.2309C48.3579 14.2302 48.315 14.2213 48.2752 14.2048L48.2567 14.1965L48.2374 14.1856Z" fill="#0C0C0C"/>
<path d="M48.5399 4.88984C48.1212 2.9792 48.8855 1.21045 50.2471 0.939239C51.6086 0.668025 53.0517 1.99705 53.4704 3.90768C53.8891 5.81832 53.1248 7.58705 51.7633 7.85826C50.4017 8.12948 48.9586 6.80047 48.5399 4.88984Z" fill="#0C0C0C"/>
<path d="M68.6309 55.3287C68.275 59.314 65.7531 84.1788 65.4099 89.088H19.0549C18.7885 84.6604 17.5927 65.3 16.5826 56.6407C15.6184 48.3786 14.2672 44.6189 15.3776 42.0515C17.3361 37.523 23.5701 35.5009 27.7916 34.9559C30.3694 34.6231 34.2466 34.3848 34.2466 34.3848C34.2466 34.3848 34.5748 40.7164 42.4024 41.0688C53.0582 41.5471 52.3464 34.3848 52.3992 34.3848C54.1257 34.3848 63.5219 35.5817 65.8716 37.0417C69.1901 39.1038 70.1709 41.9143 70.2098 44.4963C70.2541 47.4699 69.0338 50.808 68.6309 55.3287Z" fill="#624DE3"/>
<path d="M66.2812 79.2898C66.3142 79.2899 66.3462 79.2782 66.3706 79.2569C66.3951 79.2356 66.4103 79.2064 66.4132 79.175L68.1694 60.0238C68.1725 59.9906 68.1616 59.9575 68.1391 59.9319C68.1166 59.9063 68.0844 59.8903 68.0496 59.8874C68.0322 59.8857 68.0147 59.8873 67.998 59.8922C67.9814 59.8971 67.9659 59.9051 67.9526 59.9158C67.9392 59.9265 67.9283 59.9396 67.9204 59.9544C67.9124 59.9692 67.9077 59.9853 67.9065 60.0019L66.1502 79.1531C66.1472 79.1863 66.1581 79.2193 66.1806 79.2448C66.2031 79.2703 66.2352 79.2863 66.2701 79.2893C66.2737 79.2896 66.2775 79.2898 66.2812 79.2898Z" fill="#0C0C0C"/>
<path d="M62.9193 90.4136L56.5543 85.4901L57.6254 85.7788C57.9731 85.8654 58.3423 85.8229 58.6584 85.6599C58.9745 85.4969 59.214 85.2256 59.3283 84.9008C59.3812 84.7312 59.3973 84.5531 59.3756 84.3774C59.354 84.2017 59.295 84.032 59.2023 83.8787C59.1095 83.7255 58.985 83.5918 58.8364 83.4859C58.6877 83.38 58.5179 83.3041 58.3375 83.2628L44.9659 80.1621L43.8153 84.2229C43.4579 85.4841 43.5036 86.8183 43.9466 88.0546C44.3896 89.2908 45.2098 90.3727 46.3019 91.1617L51.2565 94.7266C51.5101 94.9164 51.8246 95.0168 52.1469 95.0109C52.4693 95.005 52.7796 94.8932 53.0254 94.6944C53.2436 94.5102 53.3944 94.2642 53.4555 93.9924C53.5166 93.7207 53.485 93.4374 53.3652 93.1841C53.3867 93.178 53.406 93.1665 53.4212 93.1508C53.4345 93.1356 53.4437 93.1174 53.4479 93.098C53.4521 93.0785 53.4512 93.0584 53.4452 93.0393L54.3579 93.6983C54.6399 93.9107 54.996 94.0131 55.3541 93.9847C55.7122 93.9563 56.0457 93.7994 56.2871 93.5455C56.4945 93.3115 56.6087 93.0153 56.6096 92.7089C56.6105 92.4025 56.4981 92.1057 56.2921 91.8706C56.3065 91.8685 56.3203 91.864 56.333 91.8572L56.7079 92.1281C56.9616 92.3178 57.2761 92.4182 57.5984 92.4123C57.9207 92.4065 58.231 92.2947 58.4769 92.0959C58.7415 91.8724 58.9051 91.5599 58.9334 91.2239C58.9617 90.8879 58.8523 90.5546 58.6284 90.2938C58.6337 90.2865 58.6382 90.2786 58.6416 90.2704L61.2924 92.3206C61.4238 92.4223 61.5749 92.4982 61.7371 92.5442C61.8993 92.5901 62.0694 92.6052 62.2377 92.5885C62.406 92.5717 62.5692 92.5236 62.7179 92.4467C62.8667 92.3699 62.9981 92.2658 63.1047 92.1405C63.2113 92.0153 63.291 91.8712 63.3392 91.7165C63.3874 91.5619 63.4032 91.3997 63.3856 91.2393C63.3681 91.0788 63.3176 90.9232 63.237 90.7814C63.1564 90.6395 63.0472 90.5142 62.9158 90.4126L62.9193 90.4136Z" fill="#E98862"/>
<path opacity="0.2" d="M58.4827 90.3435C58.4686 90.3387 58.4555 90.3317 58.4441 90.3226L55.8935 88.3023C55.8805 88.292 55.8698 88.2794 55.862 88.2652C55.8542 88.251 55.8493 88.2354 55.8478 88.2194C55.8463 88.2034 55.8481 88.1873 55.8531 88.1719C55.8581 88.1566 55.8662 88.1424 55.877 88.13C55.8878 88.1177 55.901 88.1075 55.9159 88.1C55.9308 88.0925 55.9472 88.0879 55.9639 88.0864C55.9807 88.085 55.9976 88.0867 56.0137 88.0915C56.0298 88.0962 56.0448 88.104 56.0577 88.1143L58.6081 90.1343C58.6312 90.1527 58.6469 90.1783 58.6523 90.2066C58.6576 90.2349 58.6523 90.264 58.6374 90.289C58.6224 90.314 58.5987 90.3331 58.5704 90.3431C58.5421 90.353 58.511 90.3532 58.4827 90.3435Z" fill="#0A0A0A"/>
<path opacity="0.2" d="M56.2363 91.869C56.2225 91.8644 56.2097 91.8575 56.1985 91.8486L54.181 90.2757C54.1546 90.2552 54.1379 90.2255 54.1344 90.1933C54.131 90.161 54.1412 90.1287 54.1627 90.1036C54.1843 90.0784 54.2154 90.0625 54.2493 90.0592C54.2831 90.056 54.317 90.0657 54.3433 90.0862L56.3609 91.6591C56.3844 91.6773 56.4004 91.7029 56.406 91.7313C56.4116 91.7597 56.4065 91.7891 56.3916 91.8142C56.3766 91.8394 56.3528 91.8587 56.3244 91.8687C56.296 91.8787 56.2648 91.8789 56.2363 91.869Z" fill="#0A0A0A"/>
<path opacity="0.2" d="M53.2838 93.187C53.2691 93.1818 53.2554 93.1742 53.2435 93.1646L52.309 92.4005C52.2962 92.3901 52.2857 92.3773 52.2781 92.363C52.2705 92.3487 52.2659 92.3331 52.2647 92.3171C52.2634 92.3011 52.2654 92.285 52.2706 92.2698C52.2759 92.2545 52.2842 92.2404 52.2951 92.2282C52.3061 92.216 52.3195 92.206 52.3345 92.1988C52.3495 92.1915 52.3659 92.1871 52.3827 92.1859C52.3994 92.1847 52.4163 92.1866 52.4323 92.1916C52.4483 92.1966 52.4631 92.2045 52.4759 92.215L53.4106 92.979C53.4332 92.9977 53.4484 93.0233 53.4533 93.0514C53.4583 93.0796 53.4527 93.1085 53.4377 93.1331C53.4227 93.1578 53.3991 93.1767 53.371 93.1865C53.3429 93.1964 53.312 93.1965 53.2838 93.187Z" fill="#0A0A0A"/>
<path d="M6.66463 78.3534L6.71347 78.1467L15.1745 42.4668L31.9134 46.0745L25.3094 73.925L51.7637 80.1228L48.508 94.3548L13.2546 87.9438C13.1754 87.929 13.0579 87.9063 12.9776 87.889C11.9064 87.6581 10.8934 87.2283 9.99635 86.6241C9.09934 86.02 8.33593 85.2533 7.74971 84.3678C7.1635 83.4823 6.76595 82.4954 6.57977 81.4635C6.39359 80.4315 6.42242 79.3747 6.66463 78.3534Z" fill="#624DE3"/>
<path d="M51.8917 80.1502C51.8987 80.1182 51.8925 80.0849 51.8743 80.0573C51.856 80.0297 51.8273 80.0099 51.794 80.0021L25.4575 73.8349L29.7397 55.8024C29.7445 55.7859 29.7458 55.7688 29.7434 55.7519C29.7411 55.7349 29.7351 55.7187 29.726 55.704C29.7168 55.6894 29.7046 55.6766 29.6902 55.6666C29.6757 55.6566 29.6592 55.6495 29.6418 55.6457C29.6243 55.6419 29.6063 55.6416 29.5887 55.6447C29.5711 55.6477 29.5543 55.6542 29.5394 55.6637C29.5245 55.6731 29.5118 55.6853 29.502 55.6996C29.4922 55.7139 29.4856 55.7299 29.4825 55.7467L25.1716 73.8998C25.1636 73.9321 25.1694 73.9661 25.1876 73.9944C25.2058 74.0227 25.235 74.043 25.2688 74.0509L51.6071 80.2181C51.6071 80.2181 51.4307 80.9521 51.3808 81.1998C51.3769 81.2321 51.3866 81.2645 51.4077 81.2899C51.4289 81.3154 51.4598 81.3318 51.4936 81.3355C51.5274 81.3393 51.5614 81.33 51.5881 81.3099C51.6148 81.2897 51.632 81.2603 51.6359 81.228C51.6966 80.9564 51.8917 80.1502 51.8917 80.1502Z" fill="#0C0C0C"/>
<path d="M50.8594 100.024L61.0308 70.2142C61.2094 69.6903 61.5575 69.2338 62.025 68.9101C62.4924 68.5864 63.0554 68.4121 63.6332 68.4121H105.072C105.504 68.4121 105.93 68.5096 106.315 68.6966C106.699 68.8836 107.032 69.1548 107.286 69.488C107.54 69.8212 107.708 70.207 107.775 70.6138C107.842 71.0206 107.808 71.4369 107.674 71.8285L97.5027 101.638C97.324 102.162 96.9759 102.619 96.5084 102.942C96.041 103.266 95.478 103.441 94.9002 103.441H53.4618C53.0299 103.441 52.6041 103.343 52.2192 103.156C51.8344 102.969 51.5015 102.698 51.2476 102.365C50.9938 102.031 50.8263 101.646 50.7588 101.239C50.6913 100.832 50.7258 100.416 50.8594 100.024Z" fill="#292A2E"/>
<path opacity="0.2" d="M50.8594 100.024L61.0308 70.2142C61.2094 69.6903 61.5575 69.2338 62.025 68.9101C62.4924 68.5864 63.0554 68.4121 63.6332 68.4121H105.072C105.504 68.4121 105.93 68.5096 106.315 68.6966C106.699 68.8836 107.032 69.1548 107.286 69.488C107.54 69.8212 107.708 70.207 107.775 70.6138C107.842 71.0206 107.808 71.4369 107.674 71.8285L97.5027 101.638C97.324 102.162 96.9759 102.619 96.5084 102.942C96.041 103.266 95.478 103.441 94.9002 103.441H53.4618C53.0299 103.441 52.6041 103.343 52.2192 103.156C51.8344 102.969 51.5015 102.698 51.2476 102.365C50.9938 102.031 50.8263 101.646 50.7588 101.239C50.6913 100.832 50.7258 100.416 50.8594 100.024Z" fill="white"/>
<path d="M80.4606 90.0685C78.0604 90.0685 76.1146 88.2133 76.1146 85.9249C76.1146 83.6364 78.0604 81.7812 80.4606 81.7812C82.8609 81.7812 84.8066 83.6364 84.8066 85.9249C84.8066 88.2133 82.8609 90.0685 80.4606 90.0685Z" fill="white"/>
<path d="M121.373 3.15039H203.618C207.429 3.15039 210.518 6.09538 210.518 9.7282V104.923C210.518 108.556 207.429 111.501 203.618 111.501H121.373C117.563 111.501 114.474 108.556 114.474 104.923V9.7282C114.474 6.09538 117.563 3.15039 121.373 3.15039Z" fill="#292A2E"/>
<path d="M118.334 0.251953H200.579C204.39 0.251953 207.479 3.19694 207.479 6.82976V102.024C207.479 105.657 204.39 108.602 200.579 108.602H118.334C114.524 108.602 111.435 105.657 111.435 102.024V6.82976C111.435 3.19694 114.524 0.251953 118.334 0.251953Z" fill="white"/>
<path d="M118.334 108.854H200.579C202.478 108.852 204.299 108.131 205.642 106.851C206.985 105.571 207.74 103.835 207.742 102.024V6.82953C207.74 5.01884 206.985 3.28288 205.642 2.00253C204.299 0.722179 202.478 0.00199885 200.579 0L118.334 0C116.434 0.00206547 114.614 0.722275 113.271 2.00262C111.928 3.28297 111.173 5.01888 111.171 6.82953V102.024C111.173 103.835 111.928 105.571 113.271 106.851C114.614 108.131 116.434 108.852 118.334 108.854ZM200.579 0.503449C202.338 0.505314 204.025 1.17241 205.269 2.35838C206.513 3.54434 207.212 5.15232 207.214 6.82953V102.024C207.212 103.701 206.513 105.309 205.269 106.495C204.025 107.681 202.338 108.348 200.579 108.35H118.334C116.574 108.348 114.888 107.681 113.644 106.495C112.4 105.309 111.701 103.701 111.699 102.024V6.82953C111.701 5.15235 112.4 3.54436 113.644 2.35839C114.888 1.17242 116.574 0.505314 118.334 0.503449H200.579Z" fill="#292A2E"/>
<path d="M208.586 122.223C199.126 122.223 191.457 114.911 191.457 105.892C191.457 96.8722 199.126 89.5605 208.586 89.5605C218.046 89.5605 225.715 96.8722 225.715 105.892C225.715 114.911 218.046 122.223 208.586 122.223Z" fill="#292A2E"/>
<path d="M212.142 103.761C212.367 103.761 212.584 103.676 212.743 103.524C212.902 103.372 212.992 103.165 212.992 102.95V99.0258C212.992 96.8557 211.015 95.0898 208.586 95.0898C206.156 95.0898 204.18 96.8557 204.18 99.0258V102.681C204.178 102.789 204.198 102.896 204.24 102.996C204.282 103.096 204.344 103.187 204.423 103.264C204.503 103.34 204.597 103.401 204.701 103.443C204.805 103.485 204.917 103.506 205.03 103.506C205.143 103.506 205.255 103.485 205.359 103.443C205.463 103.401 205.557 103.34 205.637 103.264C205.716 103.187 205.778 103.096 205.82 102.996C205.862 102.896 205.882 102.789 205.88 102.681V99.0258C205.88 97.7496 207.095 96.7112 208.586 96.7112C210.077 96.7112 211.292 97.7496 211.292 99.0258V102.951C211.292 103.166 211.381 103.372 211.541 103.524C211.7 103.676 211.916 103.761 212.142 103.761Z" fill="white"/>
<path d="M203.162 102.271H214.011C214.643 102.271 215.156 102.76 215.156 103.364V113.107C215.156 113.71 214.643 114.199 214.011 114.199H203.162C202.529 114.199 202.016 113.71 202.016 113.107V103.364C202.016 102.76 202.529 102.271 203.162 102.271Z" fill="white"/>
<path d="M209.667 107.272C209.667 107.465 209.61 107.654 209.502 107.818C209.395 107.982 209.242 108.114 209.059 108.199V109.781C209.059 109.9 209.01 110.015 208.921 110.099C208.833 110.183 208.713 110.231 208.588 110.231C208.463 110.231 208.343 110.183 208.254 110.099C208.166 110.015 208.116 109.9 208.116 109.781V108.199C207.943 108.118 207.795 107.995 207.688 107.842C207.581 107.689 207.52 107.511 207.509 107.328C207.499 107.144 207.54 106.961 207.629 106.798C207.718 106.635 207.851 106.497 208.014 106.399C208.178 106.302 208.366 106.248 208.558 106.243C208.751 106.238 208.942 106.282 209.111 106.371C209.28 106.46 209.42 106.59 209.518 106.749C209.616 106.907 209.668 107.088 209.668 107.272H209.667Z" fill="#292A2E"/>
<path d="M125.517 54.3164H193.398C195.018 54.3164 196.332 55.5689 196.332 57.1138V66.187C196.332 67.7319 195.018 68.9844 193.398 68.9844H125.517C123.896 68.9844 122.583 67.7319 122.583 66.187V57.1138C122.583 55.5689 123.896 54.3164 125.517 54.3164Z" fill="white"/>
<path d="M125.517 69.2359H193.398C194.246 69.2349 195.058 68.9134 195.658 68.3418C196.257 67.7701 196.595 66.9951 196.596 66.1867V57.1138C196.595 56.3054 196.257 55.5304 195.658 54.9587C195.058 54.3871 194.246 54.0655 193.398 54.0645H125.517C124.669 54.0654 123.856 54.387 123.256 54.9586C122.657 55.5303 122.319 56.3054 122.318 57.1138V66.1867C122.319 66.9952 122.657 67.7702 123.256 68.3419C123.856 68.9135 124.669 69.235 125.517 69.2359ZM193.398 54.5679C194.106 54.5686 194.784 54.8371 195.285 55.3144C195.785 55.7917 196.067 56.4389 196.068 57.1138V66.1867C196.067 66.8617 195.785 67.5087 195.285 67.986C194.784 68.4632 194.106 68.7317 193.398 68.7324H125.517C124.809 68.7317 124.13 68.4632 123.629 67.986C123.129 67.5088 122.847 66.8617 122.846 66.1867V57.1138C122.847 56.4388 123.129 55.7917 123.629 55.3144C124.13 54.8371 124.809 54.5686 125.517 54.5679H193.398Z" fill="#292A2E"/>
<path d="M125.517 75.2793H193.398C195.018 75.2793 196.332 76.5317 196.332 78.0767V87.1499C196.332 88.6948 195.018 89.9473 193.398 89.9473H125.517C123.896 89.9473 122.583 88.6948 122.583 87.1499V78.0767C122.583 76.5317 123.896 75.2793 125.517 75.2793Z" fill="white"/>
<path d="M125.517 90.1985H193.398C194.246 90.1976 195.059 89.8759 195.658 89.3041C196.258 88.7324 196.595 87.9572 196.596 87.1486V78.0765C196.595 77.2681 196.257 76.4931 195.658 75.9214C195.058 75.3498 194.246 75.0283 193.398 75.0273H125.517C124.669 75.0282 123.856 75.3497 123.256 75.9214C122.657 76.493 122.319 77.268 122.318 78.0765V87.1486C122.319 87.9572 122.656 88.7324 123.256 89.3042C123.855 89.876 124.669 90.1977 125.517 90.1985ZM193.398 75.5308C194.106 75.5315 194.784 75.8 195.285 76.2772C195.785 76.7545 196.067 77.4015 196.068 78.0765V87.1486C196.067 87.8236 195.785 88.4706 195.285 88.9479C194.784 89.4251 194.106 89.6936 193.398 89.6943H125.517C124.809 89.6936 124.13 89.4252 123.629 88.948C123.129 88.4707 122.847 87.8236 122.846 87.1486V78.0765C122.847 77.4015 123.129 76.7544 123.629 76.2771C124.13 75.7999 124.809 75.5315 125.517 75.5308H193.398Z" fill="#292A2E"/>
<path d="M159.456 43.4064C150.752 43.4064 143.696 36.6788 143.696 28.3799C143.696 20.0811 150.752 13.3535 159.456 13.3535C168.161 13.3535 175.217 20.0811 175.217 28.3799C175.217 36.6788 168.161 43.4064 159.456 43.4064Z" fill="white"/>
<path d="M159.456 43.6579C162.625 43.6579 165.724 42.7618 168.359 41.083C170.994 39.4043 173.048 37.0181 174.261 34.2264C175.474 31.4347 175.791 28.3628 175.173 25.3991C174.554 22.4354 173.028 19.7131 170.787 17.5764C168.546 15.4397 165.691 13.9846 162.582 13.3951C159.474 12.8056 156.252 13.1082 153.324 14.2645C150.396 15.4209 147.893 17.3792 146.132 19.8916C144.371 22.4041 143.432 25.358 143.432 28.3797C143.436 32.4304 145.126 36.3138 148.13 39.178C151.134 42.0422 155.208 43.6533 159.456 43.6579ZM159.456 13.605C162.521 13.605 165.517 14.4715 168.065 16.095C170.614 17.7185 172.6 20.026 173.773 22.7257C174.946 25.4254 175.253 28.3961 174.655 31.2621C174.057 34.1281 172.581 36.7607 170.414 38.827C168.246 40.8933 165.485 42.3005 162.479 42.8705C159.473 43.4406 156.357 43.148 153.526 42.0298C150.694 40.9115 148.274 39.0178 146.571 36.5881C144.869 34.1584 143.96 31.3019 143.96 28.3797C143.964 24.4626 145.598 20.7071 148.504 17.9373C151.409 15.1674 155.348 13.6094 159.456 13.605Z" fill="#292A2E"/>
<path opacity="0.5" d="M144.047 28.3805C144.042 31.8585 145.337 35.2244 147.698 37.8753C149.153 36.2586 150.957 34.961 152.987 34.0715C155.017 33.182 157.224 32.7217 159.458 32.722C161.692 32.7224 163.9 33.1835 165.929 34.0737C167.959 34.9639 169.762 36.2621 171.216 37.8793C172.82 36.0748 173.943 33.928 174.49 31.6211C175.037 29.3143 174.992 26.9156 174.358 24.629C173.725 22.3423 172.522 20.2352 170.851 18.4867C169.181 16.7382 167.093 15.4 164.764 14.5857C162.435 13.7715 159.934 13.5053 157.474 13.8098C155.014 14.1142 152.668 14.9803 150.634 16.3345C148.6 17.6887 146.939 19.491 145.793 21.5881C144.646 23.6853 144.047 26.0154 144.047 28.3805Z" fill="#32962C"/>
<path d="M147.699 37.8759C149.145 39.5044 150.946 40.8129 152.977 41.7106C155.008 42.6082 157.219 43.0734 159.457 43.0738C161.695 43.0742 163.906 42.6097 165.937 41.7128C167.968 40.8158 169.77 39.5079 171.217 37.8799C169.763 36.2627 167.959 34.9645 165.93 34.0743C163.9 33.1841 161.693 32.723 159.459 32.7227C157.225 32.7223 155.017 33.1826 152.987 34.0721C150.958 34.9616 149.153 36.2592 147.699 37.8759Z" fill="white"/>
<path d="M159.457 29.9814C156.016 29.9814 153.228 27.3224 153.228 24.0425C153.228 20.7625 156.016 18.1035 159.457 18.1035C162.897 18.1035 165.686 20.7625 165.686 24.0425C165.686 27.3224 162.897 29.9814 159.457 29.9814Z" fill="white"/>
<g opacity="0.4">
<path opacity="0.4" d="M190.617 84.3989C189.582 84.3989 188.743 83.5991 188.743 82.6125C188.743 81.626 189.582 80.8262 190.617 80.8262C191.651 80.8262 192.49 81.626 192.49 82.6125C192.49 83.5991 191.651 84.3989 190.617 84.3989Z" fill="#292A2E"/>
<path opacity="0.4" d="M184.755 84.3989C183.721 84.3989 182.882 83.5991 182.882 82.6125C182.882 81.626 183.721 80.8262 184.755 80.8262C185.79 80.8262 186.629 81.626 186.629 82.6125C186.629 83.5991 185.79 84.3989 184.755 84.3989Z" fill="#292A2E"/>
<path opacity="0.4" d="M178.896 84.3989C177.861 84.3989 177.022 83.5991 177.022 82.6125C177.022 81.626 177.861 80.8262 178.896 80.8262C179.931 80.8262 180.77 81.626 180.77 82.6125C180.77 83.5991 179.931 84.3989 178.896 84.3989Z" fill="#292A2E"/>
<path opacity="0.4" d="M173.035 84.3989C172 84.3989 171.161 83.5991 171.161 82.6125C171.161 81.626 172 80.8262 173.035 80.8262C174.069 80.8262 174.908 81.626 174.908 82.6125C174.908 83.5991 174.069 84.3989 173.035 84.3989Z" fill="#292A2E"/>
<path opacity="0.4" d="M167.175 84.3989C166.14 84.3989 165.302 83.5991 165.302 82.6125C165.302 81.626 166.14 80.8262 167.175 80.8262C168.21 80.8262 169.049 81.626 169.049 82.6125C169.049 83.5991 168.21 84.3989 167.175 84.3989Z" fill="#292A2E"/>
<path opacity="0.4" d="M161.314 84.3989C160.279 84.3989 159.44 83.5991 159.44 82.6125C159.44 81.626 160.279 80.8262 161.314 80.8262C162.349 80.8262 163.188 81.626 163.188 82.6125C163.188 83.5991 162.349 84.3989 161.314 84.3989Z" fill="#292A2E"/>
<path opacity="0.4" d="M155.455 84.3989C154.42 84.3989 153.581 83.5991 153.581 82.6125C153.581 81.626 154.42 80.8262 155.455 80.8262C156.489 80.8262 157.328 81.626 157.328 82.6125C157.328 83.5991 156.489 84.3989 155.455 84.3989Z" fill="#292A2E"/>
</g>
<g opacity="0.3">
<path opacity="0.3" d="M188.758 61.543V62.1471H191.164V61.543H188.758Z" fill="black"/>
<path opacity="0.3" d="M185.768 61.543V62.1471H188.174V61.543H185.768Z" fill="black"/>
<path opacity="0.3" d="M182.777 61.543V62.1471H185.184V61.543H182.777Z" fill="black"/>
<path opacity="0.3" d="M179.789 61.543V62.1471H182.195V61.543H179.789Z" fill="black"/>
<path opacity="0.3" d="M176.799 61.543V62.1471H179.205V61.543H176.799Z" fill="black"/>
<path opacity="0.3" d="M171.403 64.9518C171.938 65.2139 172.535 65.3421 173.136 65.3241C174.734 65.3241 176.088 64.2094 176.088 62.4261C176.088 60.5128 174.695 58.8594 172.532 58.8594C170.837 58.8594 169.697 59.9922 169.697 61.5437C169.697 62.9371 170.516 63.7543 171.431 63.7543C171.821 63.7543 172.181 63.5025 172.152 62.9371H172.191C172.317 63.182 172.513 63.3883 172.755 63.5327C172.998 63.6772 173.278 63.7539 173.564 63.7543C174.129 63.7543 174.616 63.3177 174.616 62.5842C174.617 62.2948 174.558 62.008 174.443 61.7405C174.327 61.4729 174.157 61.2298 173.943 61.0252C173.728 60.8205 173.473 60.6584 173.192 60.5481C172.912 60.4379 172.611 60.3816 172.307 60.3827C171.949 60.3777 171.594 60.4442 171.265 60.5778L171.596 62.2589C171.742 62.9638 171.625 63.2911 171.304 63.2994C170.807 63.3084 170.252 62.6768 170.252 61.5996C170.252 60.2528 171.099 59.2868 172.609 59.2868C174.197 59.2868 175.532 60.4849 175.532 62.3704C175.532 63.9217 174.47 64.8783 173.028 64.8783C172.517 64.8896 172.011 64.7778 171.557 64.5533L171.403 64.9518ZM171.939 60.9393C172.097 60.895 172.261 60.8731 172.426 60.8743C173.283 60.8743 173.975 61.6452 173.975 62.5461C173.975 62.9547 173.76 63.251 173.332 63.251C172.767 63.251 172.251 62.5638 172.144 61.9878L171.939 60.9393Z" fill="black"/>
<path opacity="0.3" d="M166.631 61.543V62.1471H169.037V61.543H166.631Z" fill="black"/>
<path opacity="0.3" d="M163.64 61.543V62.1471H166.047V61.543H163.64Z" fill="black"/>
<path opacity="0.3" d="M160.65 61.543V62.1471H163.057V61.543H160.65Z" fill="black"/>
</g>
</svg>
