<svg width="488" height="444" viewBox="0 0 488 444" fill="none" xmlns="http://www.w3.org/2000/svg">
<path d="M408.007 0H167.031V224.982H408.007V0Z" fill="#F4F4F4"/>
<path d="M407.554 0H404.824V225.147H407.554V0Z" fill="#F4F4F4"/>
<path opacity="0.05" d="M407.554 0H404.824V225.147H407.554V0Z" fill="#292A2E"/>
<path opacity="0.05" d="M347.118 151.144V92.2383H296.069V126.462H216.991V187.058H183.382V221.146H216.991H223.466H393.366V151.144H347.118Z" fill="#292A2E"/>
<path opacity="0.34" d="M339.797 98.6367H302.622V105.033H339.797V98.6367Z" fill="#FFFFFA"/>
<path opacity="0.34" d="M339.797 111.891H302.622V118.287H339.797V111.891Z" fill="#FFFFFA"/>
<path opacity="0.34" d="M339.797 125.145H302.622V131.541H339.797V125.145Z" fill="#FFFFFA"/>
<path opacity="0.34" d="M386.774 157.354H379.922V163.75H386.774V157.354Z" fill="#FFFFFA"/>
<path opacity="0.34" d="M386.774 170.607H379.922V177.004H386.774V170.607Z" fill="#FFFFFA"/>
<path opacity="0.34" d="M386.774 183.861H379.922V190.258H386.774V183.861Z" fill="#FFFFFA"/>
<path opacity="0.34" d="M374.098 157.354H367.245V163.75H374.098V157.354Z" fill="#FFFFFA"/>
<path opacity="0.34" d="M374.098 170.607H367.245V177.004H374.098V170.607Z" fill="#FFFFFA"/>
<path opacity="0.34" d="M374.098 183.861H367.245V190.258H374.098V183.861Z" fill="#FFFFFA"/>
<path opacity="0.34" d="M361.764 157.354H354.912V163.75H361.764V157.354Z" fill="#FFFFFA"/>
<path opacity="0.34" d="M361.764 170.607H354.912V177.004H361.764V170.607Z" fill="#FFFFFA"/>
<path opacity="0.34" d="M361.764 183.861H354.912V190.258H361.764V183.861Z" fill="#FFFFFA"/>
<path d="M405.007 109.251H357.123V0H353.162V109.251H223.82V0H219.86V109.251H167.031V112.929H219.86V220.982H223.82V112.929H353.162V220.982H357.123V112.929H405.007V109.251Z" fill="white"/>
<path d="M414.313 220.875H157.134V228.363H414.313V220.875Z" fill="#F4F4F4"/>
<path opacity="0.1" d="M414.313 220.875H157.134V228.363H414.313V220.875Z" fill="#292A2E"/>
<path opacity="0.1" d="M418.027 220.875H414.313V228.363H418.027V220.875Z" fill="#292A2E"/>
<path opacity="0.1" d="M418.027 220.875H414.313V228.363H418.027V220.875Z" fill="#292A2E"/>
<path d="M407.554 0.0195312H166.623V5.58713H407.554V0.0195312Z" fill="white"/>
<path d="M407.554 10.418H166.623V15.9856H407.554V10.418Z" fill="white"/>
<path d="M407.554 20.8164H166.623V26.384H407.554V20.8164Z" fill="white"/>
<path d="M407.554 31.2148H166.623V36.7824H407.554V31.2148Z" fill="white"/>
<path d="M407.554 41.6113H166.623V47.1789H407.554V41.6113Z" fill="white"/>
<path d="M382.01 0H378.01V52.9957H382.01V0Z" fill="white"/>
<path d="M380.465 61.71C383.205 61.71 385.426 59.6106 385.426 57.021C385.426 54.4314 383.205 52.332 380.465 52.332C377.726 52.332 375.505 54.4314 375.505 57.021C375.505 59.6106 377.726 61.71 380.465 61.71Z" fill="white"/>
<path d="M473.617 444H0.385C0.334441 444 0.284377 443.99 0.237667 443.972C0.190957 443.954 0.148515 443.927 0.112764 443.893C0.0770134 443.859 0.0486545 443.819 0.0293064 443.775C0.00995832 443.731 0 443.683 0 443.636C0 443.588 0.00995832 443.54 0.0293064 443.496C0.0486545 443.452 0.0770134 443.412 0.112764 443.378C0.148515 443.344 0.190957 443.317 0.237667 443.299C0.284377 443.281 0.334441 443.271 0.385 443.271H473.616C473.718 443.271 473.816 443.31 473.888 443.378C473.96 443.446 474.001 443.539 474.001 443.636C474.001 443.732 473.96 443.825 473.888 443.893C473.816 443.961 473.718 444 473.616 444H473.617Z" fill="#292A2E"/>
<g opacity="0.65">
<path opacity="0.65" d="M473.617 444H0.385C0.334441 444 0.284377 443.99 0.237667 443.972C0.190957 443.954 0.148515 443.927 0.112764 443.893C0.0770134 443.859 0.0486545 443.819 0.0293064 443.775C0.00995832 443.731 0 443.683 0 443.636C0 443.588 0.00995832 443.54 0.0293064 443.496C0.0486545 443.452 0.0770134 443.412 0.112764 443.378C0.148515 443.344 0.190957 443.317 0.237667 443.299C0.284377 443.281 0.334441 443.271 0.385 443.271H473.616C473.718 443.271 473.816 443.31 473.888 443.378C473.96 443.446 474.001 443.539 474.001 443.636C474.001 443.732 473.96 443.825 473.888 443.893C473.816 443.961 473.718 444 473.616 444H473.617Z" fill="#292A2E"/>
</g>
<path d="M33.3317 443.359L32.2515 443.163L49.1343 284.59L50.2145 284.786L33.3317 443.359Z" fill="#494949"/>
<path d="M96.1956 443.359L95.1154 443.163L111.998 284.59L113.078 284.786L96.1956 443.359Z" fill="#494949"/>
<path d="M235.152 443.359L236.232 443.163L219.35 284.59L218.27 284.786L235.152 443.359Z" fill="#494949"/>
<path d="M172.289 443.359L173.368 443.163L156.486 284.59L155.406 284.786L172.289 443.359Z" fill="#494949"/>
<path d="M149.899 214.802L148.808 214.939L158.671 284.759L159.761 284.621L149.899 214.802Z" fill="#494949"/>
<path d="M36.6954 214.802L35.605 214.939L45.4676 284.759L46.558 284.621L36.6954 214.802Z" fill="#494949"/>
<path d="M159.667 279.576H48.9412C45.9538 279.576 43.532 281.865 43.532 284.689V284.69C43.532 287.514 45.9538 289.803 48.9412 289.803H159.667C162.655 289.803 165.076 287.514 165.076 284.69V284.689C165.076 281.865 162.655 279.576 159.667 279.576Z" fill="#292A2E"/>
<path opacity="0.8" d="M159.667 279.576H48.9412C45.9538 279.576 43.532 281.865 43.532 284.689V284.69C43.532 287.514 45.9538 289.803 48.9412 289.803H159.667C162.655 289.803 165.076 287.514 165.076 284.69V284.689C165.076 281.865 162.655 279.576 159.667 279.576Z" fill="white"/>
<path d="M159.665 290.323H48.9411C47.3705 290.309 45.8693 289.709 44.764 288.654C43.6586 287.599 43.0386 286.175 43.0386 284.69C43.0386 283.205 43.6586 281.781 44.764 280.726C45.8693 279.671 47.3705 279.071 48.9411 279.057H159.665C161.236 279.071 162.737 279.671 163.842 280.726C164.947 281.781 165.567 283.205 165.567 284.69C165.567 286.175 164.947 287.599 163.842 288.654C162.737 289.709 161.236 290.309 159.665 290.323ZM48.9411 280.096C47.6612 280.109 46.4384 280.599 45.5382 281.459C44.638 282.319 44.133 283.48 44.133 284.69C44.133 285.9 44.638 287.061 45.5382 287.921C46.4384 288.781 47.6612 289.271 48.9411 289.284H159.665C160.945 289.271 162.168 288.781 163.068 287.921C163.968 287.061 164.473 285.9 164.473 284.69C164.473 283.48 163.968 282.319 163.068 281.459C162.168 280.599 160.945 280.109 159.665 280.096H48.9411Z" fill="#292A2E"/>
<path d="M220.439 279.574H109.713C106.726 279.574 104.304 281.863 104.304 284.687V284.688C104.304 287.512 106.726 289.801 109.713 289.801H220.439C223.427 289.801 225.849 287.512 225.849 284.688V284.687C225.849 281.863 223.427 279.574 220.439 279.574Z" fill="white"/>
<path d="M220.44 290.322H109.714C108.927 290.329 108.145 290.188 107.416 289.909C106.686 289.629 106.022 289.215 105.463 288.691C104.903 288.167 104.459 287.544 104.156 286.857C103.853 286.17 103.697 285.433 103.697 284.688C103.697 283.944 103.853 283.207 104.156 282.52C104.459 281.833 104.903 281.209 105.463 280.686C106.022 280.162 106.686 279.748 107.416 279.468C108.145 279.188 108.927 279.048 109.714 279.055H220.44C221.227 279.048 222.008 279.188 222.738 279.468C223.468 279.748 224.132 280.162 224.691 280.686C225.251 281.209 225.695 281.833 225.998 282.52C226.301 283.207 226.457 283.944 226.457 284.688C226.457 285.433 226.301 286.17 225.998 286.857C225.695 287.544 225.251 288.167 224.691 288.691C224.132 289.215 223.468 289.629 222.738 289.909C222.008 290.188 221.227 290.329 220.44 290.322ZM109.714 280.095C109.071 280.088 108.434 280.202 107.838 280.43C107.243 280.658 106.701 280.996 106.244 281.423C105.787 281.85 105.425 282.359 105.177 282.919C104.93 283.48 104.802 284.081 104.802 284.688C104.802 285.296 104.93 285.897 105.177 286.458C105.425 287.018 105.787 287.527 106.244 287.954C106.701 288.381 107.243 288.718 107.838 288.946C108.434 289.174 109.071 289.288 109.714 289.282H220.44C221.082 289.288 221.72 289.174 222.316 288.946C222.911 288.718 223.453 288.381 223.91 287.954C224.366 287.527 224.729 287.018 224.977 286.458C225.224 285.897 225.351 285.296 225.351 284.688C225.351 284.081 225.224 283.48 224.977 282.919C224.729 282.359 224.366 281.85 223.91 281.423C223.453 280.996 222.911 280.658 222.316 280.43C221.72 280.202 221.082 280.088 220.44 280.095H109.714Z" fill="#292A2E"/>
<path d="M143.833 214.87H36.4473C34.6916 214.871 32.996 214.267 31.6768 213.172C30.3577 212.077 29.5052 210.565 29.2786 208.92L22.1753 157.36C22.0425 156.396 22.1287 155.417 22.4282 154.487C22.7277 153.557 23.2336 152.699 23.9122 151.969C24.5907 151.238 25.4263 150.653 26.3631 150.252C27.2998 149.852 28.3163 149.644 29.3446 149.645H136.73C138.486 149.645 140.181 150.248 141.5 151.343C142.819 152.438 143.672 153.95 143.899 155.595L151.002 207.155C151.135 208.119 151.048 209.098 150.749 210.028C150.449 210.957 149.943 211.816 149.265 212.546C148.587 213.276 147.751 213.861 146.814 214.262C145.878 214.663 144.861 214.87 143.833 214.87Z" fill="#292A2E"/>
<path opacity="0.8" d="M143.833 214.87H36.4473C34.6916 214.871 32.996 214.267 31.6768 213.172C30.3577 212.077 29.5052 210.565 29.2786 208.92L22.1753 157.36C22.0425 156.396 22.1287 155.417 22.4282 154.487C22.7277 153.557 23.2336 152.699 23.9122 151.969C24.5907 151.238 25.4263 150.653 26.3631 150.252C27.2998 149.852 28.3163 149.644 29.3446 149.645H136.73C138.486 149.645 140.181 150.248 141.5 151.343C142.819 152.438 143.672 153.95 143.899 155.595L151.002 207.155C151.135 208.119 151.048 209.098 150.749 210.028C150.449 210.957 149.943 211.816 149.265 212.546C148.587 213.276 147.751 213.861 146.814 214.262C145.878 214.663 144.861 214.87 143.833 214.87Z" fill="white"/>
<path d="M143.833 215.39H36.4474C34.5595 215.386 32.7373 214.735 31.3187 213.557C29.9 212.38 28.9814 210.756 28.7331 208.987L21.6299 157.428C21.4869 156.391 21.5797 155.337 21.902 154.336C22.2243 153.336 22.7687 152.412 23.4988 151.626C24.2289 150.84 25.128 150.211 26.136 149.779C27.144 149.348 28.2377 149.125 29.3442 149.125H136.73C138.618 149.129 140.441 149.78 141.859 150.958C143.278 152.136 144.197 153.76 144.445 155.529L151.548 207.088C151.691 208.125 151.598 209.179 151.276 210.179C150.953 211.18 150.409 212.104 149.679 212.89C148.948 213.675 148.049 214.305 147.041 214.736C146.033 215.168 144.94 215.391 143.833 215.391V215.39ZM29.3442 150.164C28.3942 150.164 27.4551 150.355 26.5897 150.726C25.7243 151.096 24.9523 151.636 24.3255 152.311C23.6987 152.986 23.2313 153.779 22.9546 154.638C22.678 155.497 22.5983 156.402 22.7211 157.292L29.8238 208.852C30.0369 210.371 30.8256 211.765 32.0437 212.776C33.2617 213.787 34.8264 214.346 36.4474 214.35H143.833C144.783 214.35 145.723 214.158 146.588 213.788C147.454 213.418 148.226 212.877 148.853 212.202C149.48 211.527 149.947 210.734 150.224 209.874C150.5 209.015 150.58 208.11 150.457 207.22L143.354 155.661C143.14 154.142 142.352 152.748 141.134 151.737C139.916 150.726 138.351 150.167 136.73 150.164H29.3442Z" fill="#292A2E"/>
<path d="M149.906 214.87H42.5199C40.7642 214.871 39.0685 214.267 37.7493 213.172C36.4301 212.077 35.5775 210.565 35.3507 208.92L28.2474 157.36C28.1148 156.397 28.2011 155.417 28.5007 154.487C28.8003 153.558 29.3062 152.699 29.9847 151.969C30.6632 151.239 31.4987 150.654 32.4354 150.253C33.3721 149.852 34.3885 149.645 35.4167 149.645H142.803C144.558 149.645 146.254 150.248 147.573 151.343C148.892 152.438 149.745 153.95 149.972 155.595L157.075 207.155C157.208 208.119 157.121 209.098 156.822 210.028C156.522 210.957 156.016 211.816 155.338 212.546C154.659 213.276 153.824 213.861 152.887 214.262C151.95 214.663 150.934 214.87 149.906 214.87Z" fill="white"/>
<path d="M149.906 215.39H42.5199C40.632 215.386 38.8097 214.735 37.391 213.557C35.9724 212.38 35.0538 210.756 34.8056 208.987L27.7024 157.428C27.5595 156.391 27.6522 155.337 27.9745 154.336C28.2968 153.336 28.8412 152.412 29.5713 151.626C30.3014 150.84 31.2005 150.211 32.2085 149.779C33.2165 149.348 34.3102 149.125 35.4167 149.125H142.802C144.691 149.129 146.513 149.78 147.932 150.958C149.351 152.136 150.269 153.76 150.517 155.529L157.62 207.088C157.763 208.125 157.67 209.179 157.348 210.18C157.026 211.18 156.481 212.104 155.751 212.89C155.021 213.676 154.122 214.305 153.114 214.736C152.106 215.168 151.012 215.391 149.906 215.391V215.39ZM35.4167 150.164C34.4667 150.164 33.5276 150.355 32.6621 150.726C31.7967 151.096 31.0247 151.636 30.3979 152.311C29.771 152.986 29.3036 153.779 29.0268 154.638C28.7501 155.497 28.6704 156.402 28.793 157.292L35.8963 208.852C36.1092 210.371 36.8979 211.765 38.1159 212.776C39.334 213.788 40.8988 214.347 42.5199 214.35H149.906C150.856 214.35 151.795 214.158 152.661 213.788C153.527 213.418 154.299 212.877 154.926 212.202C155.553 211.527 156.02 210.734 156.297 209.875C156.573 209.015 156.653 208.11 156.53 207.22L149.427 155.661C149.214 154.142 148.425 152.747 147.207 151.736C145.989 150.725 144.424 150.166 142.803 150.162L35.4167 150.164Z" fill="#292A2E"/>
<path d="M301.356 416.84C301.356 416.84 304.305 431.289 318.618 432.094C332.93 432.899 329.827 443.677 329.827 443.677H275.132V417.847L301.356 416.84Z" fill="#624DE3"/>
<path d="M197.303 407.717C197.303 407.717 193.202 421.912 205.668 428.607C218.135 435.301 210.317 443.676 210.317 443.676L161.24 420.854L173.302 397.678L197.303 407.717Z" fill="#624DE3"/>
<path d="M153.262 71.044C153.262 71.044 160.398 65.9529 162.166 54.2339C163.535 45.1599 154.68 51.0382 154.68 51.0382C154.68 51.0382 155.599 44.4961 150.555 45.1449C145.512 45.7937 142.69 52.6675 142.69 52.6675" fill="#0C0C0C"/>
<path d="M124.491 45.9102C124.491 45.9102 99.4691 48.446 108.514 80.4942L110.729 80.634L115.223 80.9189" fill="#0C0C0C"/>
<path d="M149.071 113.965C148.961 113.951 147.74 133.095 124.208 131.428C107.917 130.275 102.109 113.938 101.735 113.938C103.492 113.585 105.662 113.049 106.525 112.865C108.405 112.453 110.108 111.509 111.406 110.159C112.705 108.81 113.538 107.119 113.795 105.311C114.272 102.597 113.465 88.7127 113.712 85.9668L138.719 91.2428C138.369 97.0418 135.924 110.486 144.494 112.865C145.922 113.259 147.458 113.621 149.071 113.965Z" fill="#E98862"/>
<path opacity="0.52" d="M139.07 107.371C138.679 106.178 138.426 104.948 138.318 103.703C138.043 100.861 138.099 97.9996 138.483 95.1694C133.4 94.5209 128.612 92.5378 124.662 89.4453C124.198 91.0664 121.644 98.1495 122.352 99.6904C123.686 102.602 129.965 107.371 139.07 107.371Z" fill="#0C0C0C"/>
<path d="M133.909 103.581C124.043 102.744 112.235 96.8526 112.065 84.1946L111.911 72.7738C111.741 60.1158 118.637 49.7701 131.246 49.6189C143.855 49.4671 153.417 59.6152 153.587 72.2727L153.656 77.3288C153.647 79.0653 153.513 80.7993 153.255 82.5186C152.608 87.0673 151.605 93.983 148.339 98.6617C145.255 103.078 140.211 104.115 133.909 103.581Z" fill="#E98862"/>
<path d="M138.486 92.0108C140.522 92.0981 142.552 91.7316 144.41 90.941C144.449 90.9255 144.483 90.903 144.513 90.8748C144.542 90.8466 144.565 90.8132 144.581 90.7765C144.596 90.7398 144.604 90.7007 144.603 90.6612C144.603 90.6216 144.594 90.5826 144.578 90.5463C144.562 90.5099 144.538 90.477 144.508 90.4494C144.478 90.4218 144.443 90.3999 144.404 90.3852C144.365 90.3705 144.324 90.3631 144.282 90.3635C144.24 90.364 144.199 90.3722 144.161 90.3877C140.156 92.0025 136.52 91.7659 133.646 89.7038C133.587 89.6604 133.527 89.62 133.465 89.5826C133.392 89.5509 133.31 89.546 133.234 89.5688C133.158 89.5916 133.094 89.6404 133.055 89.7057C133.015 89.771 133.003 89.8479 133.02 89.9214C133.037 89.9949 133.083 90.0595 133.148 90.1027C133.171 90.1162 133.208 90.1438 133.258 90.1817C134.77 91.27 136.59 91.9069 138.486 92.0108Z" fill="#0C0C0C"/>
<path d="M138.391 94.8626C138.759 94.8843 139.128 94.876 139.495 94.8377C139.578 94.8292 139.655 94.7897 139.708 94.7276C139.761 94.6656 139.786 94.5862 139.777 94.5069C139.768 94.4276 139.726 94.3549 139.661 94.3047C139.595 94.2546 139.511 94.2312 139.427 94.2396C137.223 94.4611 136.172 93.5063 136.127 93.4652C136.067 93.4113 135.987 93.3818 135.904 93.3828C135.821 93.3839 135.742 93.4155 135.683 93.4709C135.625 93.5263 135.591 93.6011 135.59 93.6795C135.589 93.7579 135.62 93.8336 135.677 93.8906C136.436 94.5011 137.395 94.8445 138.391 94.8626Z" fill="#0C0C0C"/>
<path d="M149.423 79.7655C150.281 79.7655 150.977 79.1079 150.977 78.2968C150.977 77.4857 150.281 76.8281 149.423 76.8281C148.566 76.8281 147.87 77.4857 147.87 78.2968C147.87 79.1079 148.566 79.7655 149.423 79.7655Z" fill="#0C0C0C"/>
<path d="M134.25 78.8651C135.108 78.8651 135.803 78.2075 135.803 77.3964C135.803 76.5853 135.108 75.9277 134.25 75.9277C133.392 75.9277 132.697 76.5853 132.697 77.3964C132.697 78.2075 133.392 78.8651 134.25 78.8651Z" fill="#0C0C0C"/>
<path d="M112.901 88.0423C109.068 88.0886 105.91 84.2507 105.86 80.6286C105.81 77.0064 108.891 74.9721 112.723 74.9258L114.73 77.3288L116.194 88.0028L112.901 88.0423Z" fill="#E98862"/>
<path d="M116.71 82.2221C116.71 82.2221 118.004 64.3114 123.75 63.2057C127.577 62.469 136.857 67.5995 145.452 66.0498C149.213 65.374 152.783 66.252 153.146 67.9307C153.29 68.5956 155.633 59.0411 149.744 51.7922C145.055 46.0218 129.711 44.3894 122.731 46.2817C103.402 51.5229 111.931 75.715 111.931 75.715L112.793 81.8893L116.71 82.2221Z" fill="#0C0C0C"/>
<path d="M140.8 87.7853C140.808 87.7858 140.816 87.7858 140.825 87.7853C142.059 87.7733 144.129 87.6236 144.121 86.7502C144.113 86.0265 141.935 78.2368 141.685 77.3509C141.658 77.2819 141.604 77.2249 141.535 77.1912C141.466 77.1574 141.385 77.1492 141.31 77.1682C141.235 77.1872 141.169 77.232 141.127 77.2939C141.084 77.3558 141.068 77.4304 141.08 77.5032C142.048 80.9533 143.489 86.2646 143.495 86.7574C143.376 86.9654 142.1 87.1791 140.821 87.1915C140.741 87.1932 140.664 87.224 140.607 87.2777C140.549 87.3314 140.516 87.4038 140.514 87.48C140.511 87.5562 140.54 87.6304 140.594 87.6872C140.647 87.744 140.722 87.7791 140.803 87.7853H140.8Z" fill="#0C0C0C"/>
<path d="M145.015 70.3354C146.313 69.9976 147.683 69.9976 148.981 70.3354C149.618 70.4974 150.227 70.7491 150.785 71.0822C151.337 71.4082 151.843 71.7989 152.292 72.245C152.377 72.3238 152.427 72.4311 152.431 72.5442C152.434 72.6573 152.39 72.767 152.309 72.85C152.227 72.9329 152.115 72.9825 151.995 72.988C151.876 72.9935 151.759 72.9546 151.669 72.8795L151.641 72.8566C151.226 72.4933 150.764 72.1807 150.266 71.9262C149.778 71.6733 149.252 71.4918 148.706 71.388C147.631 71.1744 146.516 71.2332 145.473 71.5586L145.429 71.5731C145.257 71.6306 145.068 71.6212 144.903 71.5468C144.739 71.4724 144.612 71.3393 144.551 71.1766C144.49 71.0139 144.5 70.835 144.579 70.6793C144.658 70.5236 144.799 70.4038 144.971 70.3463L145.015 70.3354Z" fill="#0C0C0C"/>
<path d="M135.826 71.0724C134.839 70.6187 133.742 70.4197 132.647 70.4957C132.091 70.5298 131.544 70.6435 131.024 70.8327C130.496 71.0224 129.995 71.274 129.533 71.5816L129.503 71.6003C129.404 71.6604 129.284 71.6821 129.168 71.6608C129.053 71.6395 128.95 71.5769 128.882 71.486C128.814 71.3951 128.785 71.2828 128.802 71.1726C128.82 71.0624 128.881 70.9626 128.974 70.894C129.481 70.5085 130.038 70.1849 130.631 69.9309C131.232 69.6716 131.87 69.4987 132.524 69.4181C133.18 69.331 133.845 69.3294 134.501 69.4134C135.175 69.4926 135.833 69.6619 136.455 69.9163C136.623 69.9853 136.755 70.1144 136.822 70.2754C136.889 70.4363 136.886 70.6158 136.813 70.7744C136.74 70.9331 136.603 71.0578 136.433 71.1212C136.263 71.1846 136.073 71.1814 135.905 71.1125C135.893 71.1073 135.88 71.1016 135.867 71.0953L135.826 71.0724Z" fill="#0C0C0C"/>
<path d="M143.169 58.0064C146.006 57.4463 147.598 53.7932 146.726 49.8471C145.853 45.901 142.847 43.1561 140.01 43.7162C137.174 44.2764 135.582 47.9294 136.454 51.8756C137.326 55.8217 140.333 58.5666 143.169 58.0064Z" fill="#0C0C0C"/>
<path d="M166.906 403.708L208.293 280.299H133.273C118.203 280.299 111.921 268.22 111.921 253.977C111.921 239.734 126.736 227.248 141.805 227.248H243.054C252.245 227.248 262.551 232.561 267.596 239.823C272.641 247.086 271.277 258.339 267.622 266.311L201.347 418.456" fill="#262626"/>
<path opacity="0.8" d="M166.906 403.708L208.293 280.299H133.273C118.203 280.299 111.921 268.22 111.921 253.977C111.921 239.734 126.736 227.248 141.805 227.248H243.054C252.245 227.248 262.551 232.561 267.596 239.823C272.641 247.086 271.277 258.339 267.622 266.311L201.347 418.456" fill="#0A0A0A"/>
<path d="M271.987 430.258L202.785 280.299L111.92 280.293C90.6291 278.715 80.8781 267.686 81.1883 253.446C81.4941 239.387 89.0258 225.5 103.833 225.5H226.303C237.259 225.713 245.879 237.157 249.943 246.775L307.473 421.077" fill="#262626"/>
<path d="M74.9908 225.672C74.9908 225.672 70.9555 250.545 77.352 264.373C85.3374 281.638 115.273 280.293 115.273 280.293L113.586 225.5L74.9908 225.672Z" fill="#262626"/>
<path d="M252.547 225.182L188.362 212.611C185.687 212.087 183.195 210.935 181.117 209.259C179.039 207.584 177.442 205.44 176.473 203.026L151.228 140.148C150.459 138.261 150.093 136.249 150.149 134.227C150.205 132.206 150.684 130.215 151.557 128.369C152.43 126.523 153.68 124.858 155.235 123.469C156.791 122.081 158.622 120.997 160.622 120.28C162.622 119.563 164.752 119.226 166.891 119.289C169.029 119.352 171.133 119.814 173.082 120.648C175.031 121.481 176.787 122.671 178.248 124.148C179.709 125.625 180.847 127.361 181.596 129.255L203.68 184.256L259.139 195.118C259.139 195.118 253.66 225.4 252.547 225.182Z" fill="#624DE3"/>
<path d="M178.31 156.116C177.569 164.347 172.315 215.697 171.6 225.836H75.0332C74.4782 216.692 71.9867 176.709 69.883 158.826C67.8744 141.764 65.0589 133.999 67.3722 128.697C71.4521 119.345 84.4387 115.168 93.2332 114.043C98.6029 113.356 106.68 112.863 106.68 112.863C106.68 112.863 107.364 125.939 123.67 126.667C145.868 127.655 144.385 112.863 144.495 112.863C148.091 112.863 167.666 115.335 172.56 118.35C179.474 122.61 181.516 128.413 181.597 133.746C181.69 139.885 179.15 146.779 178.31 156.116Z" fill="#624DE3"/>
<path d="M174.515 198.074H174.492C174.456 198.071 174.421 198.062 174.389 198.046C174.356 198.03 174.328 198.009 174.305 197.983C174.281 197.957 174.264 197.927 174.253 197.894C174.242 197.861 174.237 197.827 174.24 197.793L176.748 169.329C176.75 169.295 176.759 169.261 176.775 169.23C176.791 169.199 176.814 169.172 176.842 169.15C176.87 169.128 176.902 169.111 176.937 169.101C176.971 169.091 177.008 169.088 177.044 169.091C177.08 169.094 177.115 169.104 177.147 169.119C177.179 169.135 177.208 169.156 177.231 169.182C177.255 169.209 177.272 169.239 177.283 169.271C177.294 169.304 177.298 169.338 177.295 169.372L174.788 197.836C174.782 197.901 174.751 197.961 174.7 198.005C174.65 198.049 174.584 198.074 174.515 198.074Z" fill="#0C0C0C"/>
<path d="M190.04 220.193L211.228 158.63C211.6 157.548 212.325 156.605 213.299 155.937C214.273 155.268 215.446 154.908 216.649 154.908H302.973C303.873 154.908 304.76 155.109 305.562 155.496C306.363 155.882 307.057 156.442 307.586 157.13C308.115 157.818 308.464 158.615 308.604 159.455C308.745 160.295 308.673 161.155 308.394 161.964L287.206 223.527C286.834 224.609 286.109 225.551 285.135 226.22C284.161 226.888 282.988 227.248 281.785 227.248H195.461C194.561 227.248 193.674 227.047 192.872 226.661C192.071 226.275 191.377 225.715 190.848 225.027C190.319 224.338 189.971 223.542 189.83 222.701C189.69 221.861 189.761 221.002 190.04 220.193Z" fill="#292A2E"/>
<path opacity="0.2" d="M190.04 220.193L211.228 158.63C211.6 157.548 212.325 156.605 213.299 155.937C214.273 155.268 215.446 154.908 216.649 154.908H302.973C303.873 154.908 304.76 155.109 305.562 155.496C306.363 155.882 307.057 156.442 307.586 157.13C308.115 157.818 308.464 158.615 308.604 159.455C308.745 160.295 308.673 161.155 308.394 161.964L287.206 223.527C286.834 224.609 286.109 225.551 285.135 226.22C284.161 226.888 282.988 227.248 281.785 227.248H195.461C194.561 227.248 193.674 227.047 192.872 226.661C192.071 226.275 191.377 225.715 190.848 225.027C190.319 224.338 189.971 223.542 189.83 222.701C189.69 221.861 189.761 221.002 190.04 220.193Z" fill="white"/>
<path d="M207.324 222.256H149.539C148.099 222.256 146.932 223.359 146.932 224.72V224.784C146.932 226.145 148.099 227.248 149.539 227.248H207.324C208.764 227.248 209.931 226.145 209.931 224.784V224.72C209.931 223.359 208.764 222.256 207.324 222.256Z" fill="#292A2E"/>
<path opacity="0.2" d="M207.324 222.256H149.539C148.099 222.256 146.932 223.359 146.932 224.72V224.784C146.932 226.145 148.099 227.248 149.539 227.248H207.324C208.764 227.248 209.931 226.145 209.931 224.784V224.72C209.931 223.359 208.764 222.256 207.324 222.256Z" fill="white"/>
<path d="M249.217 202.64C254.217 202.64 258.271 198.808 258.271 194.081C258.271 189.355 254.217 185.523 249.217 185.523C244.217 185.523 240.164 189.355 240.164 194.081C240.164 198.808 244.217 202.64 249.217 202.64Z" fill="white"/>
<path d="M179.185 144.643H156.231V171.252H179.185V144.643Z" fill="white"/>
<path d="M156.231 166.832C154.372 166.832 152.554 166.311 151.008 165.334C149.463 164.358 148.258 162.97 147.546 161.347C146.835 159.723 146.649 157.936 147.011 156.213C147.374 154.489 148.269 152.906 149.584 151.663C150.899 150.42 152.574 149.574 154.397 149.231C156.22 148.888 158.11 149.064 159.828 149.737C161.546 150.409 163.014 151.548 164.047 153.01C165.08 154.471 165.631 156.189 165.631 157.946C165.628 160.302 164.637 162.561 162.875 164.226C161.112 165.892 158.723 166.829 156.231 166.832ZM156.231 152.7C155.133 152.7 154.06 153.008 153.147 153.585C152.235 154.161 151.523 154.98 151.103 155.939C150.683 156.898 150.573 157.953 150.787 158.97C151.002 159.988 151.53 160.923 152.307 161.657C153.083 162.39 154.072 162.89 155.148 163.092C156.225 163.295 157.341 163.191 158.355 162.793C159.369 162.396 160.236 161.724 160.846 160.861C161.456 159.998 161.781 158.984 161.781 157.946C161.779 156.555 161.194 155.222 160.154 154.238C159.113 153.255 157.702 152.702 156.231 152.7Z" fill="white"/>
<path d="M157.555 161.889C157.345 161.375 156.952 160.947 156.442 160.68C155.933 160.413 155.34 160.324 154.768 160.429C154.779 160.404 154.784 160.377 154.785 160.351L155.555 160.025C156.094 159.808 156.538 159.422 156.811 158.931C157.083 158.441 157.168 157.877 157.051 157.334C156.971 156.995 156.811 156.677 156.585 156.403C156.358 156.129 156.07 155.907 155.742 155.751C155.413 155.595 155.052 155.51 154.684 155.502C154.317 155.494 153.952 155.563 153.616 155.705L151.8 156.473C151.8 156.466 151.8 156.459 151.796 156.452C151.789 156.439 151.78 156.426 151.77 156.414C152.217 156.095 152.537 155.643 152.678 155.13C152.818 154.617 152.77 154.074 152.543 153.591C152.038 152.301 150.251 152.198 149.069 152.696L144.32 154.507L145.753 153.133C146.202 152.685 146.455 152.093 146.459 151.475C146.464 150.858 146.221 150.263 145.779 149.808C145.542 149.582 145.258 149.403 144.945 149.283C144.633 149.163 144.298 149.105 143.961 149.112C143.623 149.119 143.291 149.19 142.984 149.322C142.677 149.454 142.402 149.644 142.175 149.88L125.29 167.311L131.065 172.568C132.858 174.2 135.126 175.29 137.579 175.696C140.032 176.103 142.557 175.807 144.83 174.848L155.122 170.487C155.662 170.27 156.105 169.884 156.378 169.394C156.651 168.903 156.736 168.339 156.619 167.796C156.502 167.308 156.223 166.869 155.824 166.542C155.424 166.214 154.925 166.016 154.398 165.976C154.404 165.949 154.404 165.921 154.398 165.894C154.392 165.867 154.381 165.842 154.365 165.819C154.349 165.796 154.328 165.776 154.303 165.761C154.279 165.746 154.252 165.735 154.223 165.73L156.124 164.929C156.725 164.688 157.208 164.24 157.473 163.676C157.739 163.112 157.768 162.473 157.555 161.889Z" fill="#E98862"/>
<path opacity="0.2" d="M148.366 157.948C148.312 157.948 148.259 157.93 148.217 157.898C148.175 157.865 148.146 157.819 148.136 157.769C148.126 157.718 148.135 157.666 148.161 157.621C148.188 157.576 148.23 157.541 148.281 157.522L151.493 156.326C151.521 156.315 151.552 156.31 151.582 156.311C151.613 156.311 151.643 156.317 151.671 156.329C151.699 156.34 151.725 156.357 151.746 156.378C151.767 156.399 151.784 156.423 151.795 156.45C151.806 156.477 151.812 156.506 151.811 156.535C151.811 156.564 151.804 156.592 151.792 156.619C151.78 156.646 151.762 156.67 151.74 156.69C151.718 156.71 151.692 156.726 151.664 156.736L148.452 157.932C148.424 157.943 148.396 157.948 148.366 157.948Z" fill="#0C0C0C"/>
<path opacity="0.2" d="M150.159 162.241C150.105 162.241 150.052 162.223 150.011 162.191C149.969 162.158 149.941 162.113 149.93 162.062C149.92 162.012 149.929 161.96 149.954 161.915C149.98 161.87 150.022 161.835 150.072 161.816L154.466 160.145C154.522 160.126 154.584 160.129 154.639 160.152C154.694 160.176 154.737 160.218 154.759 160.271C154.781 160.324 154.782 160.383 154.759 160.435C154.737 160.488 154.694 160.53 154.639 160.554L150.246 162.226C150.218 162.236 150.189 162.241 150.159 162.241Z" fill="#0C0C0C"/>
<path opacity="0.2" d="M152.075 166.901C152.02 166.901 151.967 166.883 151.925 166.85C151.884 166.817 151.855 166.771 151.845 166.72C151.836 166.669 151.845 166.617 151.872 166.572C151.899 166.527 151.942 166.492 151.993 166.474L154.088 165.731C154.145 165.71 154.21 165.712 154.266 165.736C154.323 165.76 154.367 165.805 154.388 165.86C154.41 165.914 154.408 165.975 154.383 166.028C154.357 166.082 154.31 166.123 154.253 166.144L152.158 166.887C152.131 166.897 152.103 166.901 152.075 166.901Z" fill="#0C0C0C"/>
<path d="M162.439 127.717C162.337 127.717 162.238 127.69 162.152 127.641C162.065 127.591 161.995 127.519 161.949 127.434C160.696 125.126 159.138 122.254 159.314 119.242C159.454 116.847 160.642 114.719 161.789 112.664C162.531 111.422 163.163 110.124 163.679 108.784C164.308 106.935 164.467 104.971 164.142 103.053C163.817 101.134 163.017 99.3156 161.808 97.7444C161.763 97.6897 161.73 97.6269 161.711 97.5599C161.692 97.4928 161.687 97.4228 161.697 97.354C161.707 97.2851 161.731 97.2189 161.769 97.1591C161.806 97.0994 161.856 97.0473 161.915 97.006C161.974 96.9648 162.041 96.9351 162.113 96.9188C162.184 96.9025 162.258 96.8999 162.331 96.9112C162.403 96.9224 162.473 96.9473 162.535 96.9843C162.597 97.0214 162.651 97.0698 162.693 97.1268C164.006 98.8318 164.875 100.806 165.229 102.888C165.582 104.97 165.411 107.102 164.728 109.11C164.194 110.506 163.538 111.857 162.767 113.15C161.623 115.198 160.542 117.131 160.416 119.3C160.256 122.03 161.678 124.649 162.931 126.96C162.974 127.039 162.995 127.127 162.991 127.216C162.988 127.305 162.96 127.392 162.911 127.468C162.862 127.544 162.793 127.607 162.711 127.65C162.629 127.694 162.536 127.717 162.442 127.717H162.439Z" fill="white"/>
<path d="M171.27 135.831C171.148 135.831 171.03 135.793 170.933 135.722C170.837 135.652 170.768 135.553 170.738 135.441C170.707 135.33 170.717 135.212 170.765 135.106C170.813 135 170.897 134.912 171.004 134.856C173.042 133.794 173.271 130.836 172.313 128.591C171.838 127.559 171.282 126.562 170.65 125.608C169.806 124.372 169.119 123.046 168.604 121.657C168.079 119.964 168.046 118.168 168.509 116.458C168.972 114.749 169.913 113.189 171.234 111.942C171.339 111.848 171.48 111.796 171.625 111.799C171.77 111.802 171.908 111.858 172.009 111.957C172.11 112.055 172.166 112.187 172.164 112.324C172.163 112.461 172.104 112.592 172.001 112.688C170.823 113.8 169.983 115.191 169.57 116.716C169.158 118.24 169.187 119.841 169.655 121.351C170.144 122.661 170.796 123.912 171.596 125.078C172.258 126.076 172.839 127.12 173.333 128.202C174.454 130.831 174.205 134.375 171.535 135.766C171.454 135.809 171.363 135.831 171.27 135.831Z" fill="white"/>
<path d="M144.65 181.146L63.6625 212.826C60.7425 213.956 57.5376 214.257 54.4394 213.693C51.3412 213.13 48.4838 211.725 46.2164 209.651C43.9489 207.578 42.3697 204.924 41.6715 202.016C40.9734 199.108 41.1866 196.07 42.2851 193.275L66.44 130.916C69.5629 122.968 78.3601 118.398 86.7691 121.35C90.8068 122.768 94.0835 125.644 95.8782 129.345C97.6729 133.045 97.8387 137.269 96.3391 141.085L85.3215 170.6L132.786 153.304" fill="#624DE3"/>
<path d="M144.453 181.429C144.409 181.429 144.367 181.416 144.332 181.394C144.296 181.371 144.268 181.339 144.251 181.301L132.468 153.645L85.1615 170.901C85.1224 170.915 85.0797 170.919 85.0386 170.91C84.9975 170.902 84.9598 170.883 84.9302 170.855C84.9006 170.827 84.8802 170.791 84.8717 170.752C84.8632 170.713 84.8668 170.673 84.8821 170.636L92.1971 152.89C92.218 152.839 92.2592 152.799 92.3118 152.777C92.3643 152.755 92.4239 152.754 92.4774 152.774C92.5308 152.793 92.5738 152.832 92.5969 152.882C92.6199 152.932 92.6211 152.988 92.6003 153.039L85.4635 170.351L132.511 153.189C132.564 153.17 132.623 153.171 132.675 153.193C132.727 153.214 132.769 153.254 132.79 153.304L144.653 181.148C144.674 181.198 144.673 181.254 144.651 181.304C144.628 181.354 144.586 181.394 144.533 181.415C144.508 181.424 144.48 181.429 144.453 181.429Z" fill="#0C0C0C"/>
<path d="M70.3044 176.392C70.2537 176.393 70.2045 176.376 70.1653 176.346C70.1261 176.315 70.0995 176.273 70.0901 176.226C70.0806 176.179 70.089 176.13 70.1137 176.088C70.1384 176.046 70.1778 176.014 70.2252 175.997L85.0425 170.486C85.0691 170.476 85.0976 170.471 85.1263 170.471C85.155 170.471 85.1834 170.476 85.2099 170.487C85.2363 170.498 85.2602 170.513 85.2803 170.533C85.3003 170.552 85.3161 170.575 85.3266 170.6C85.3371 170.626 85.3422 170.653 85.3417 170.68C85.3411 170.707 85.3348 170.734 85.3231 170.759C85.3115 170.783 85.2947 170.806 85.2739 170.824C85.253 170.843 85.2284 170.858 85.2015 170.867L70.3836 176.378C70.3583 176.387 70.3315 176.392 70.3044 176.392Z" fill="#0C0C0C"/>
<path d="M73.755 209.127C73.7048 209.127 73.6561 209.11 73.6172 209.08C73.5783 209.05 73.5517 209.008 73.542 208.962C73.5322 208.915 73.5399 208.867 73.5637 208.825C73.5875 208.784 73.626 208.751 73.6725 208.733L144.372 181.035C144.399 181.025 144.427 181.019 144.455 181.02C144.483 181.02 144.512 181.025 144.538 181.035C144.564 181.046 144.588 181.061 144.608 181.08C144.628 181.099 144.644 181.121 144.655 181.146C144.666 181.171 144.671 181.197 144.671 181.224C144.671 181.251 144.665 181.278 144.654 181.302C144.644 181.327 144.628 181.35 144.607 181.369C144.587 181.388 144.564 181.403 144.537 181.413L73.8375 209.111C73.8114 209.121 73.7833 209.127 73.755 209.127Z" fill="#0C0C0C"/>
<path d="M432.691 375.826C432.545 375.826 432.405 375.771 432.302 375.674C431.527 374.941 430.265 361.503 426.862 321.493C425.47 305.121 424.155 289.658 423.195 280.26C423.127 279.589 422.852 279.511 422.761 279.485C421.448 279.11 417.452 282.088 415.222 284.695C415.13 284.803 414.997 284.871 414.852 284.886C414.707 284.9 414.562 284.86 414.449 284.773C414.335 284.686 414.263 284.561 414.247 284.423C414.232 284.286 414.275 284.149 414.366 284.042C415.841 282.318 420.648 277.798 423.077 278.489C423.567 278.629 424.177 279.031 424.29 280.16C425.251 289.566 426.566 305.034 427.958 321.409C430.026 345.723 432.368 373.268 433.138 375.003C433.197 375.08 433.232 375.172 433.24 375.267C433.247 375.363 433.227 375.458 433.181 375.544C433.135 375.629 433.064 375.7 432.978 375.75C432.892 375.8 432.792 375.826 432.691 375.826Z" fill="#494949"/>
<path d="M421.785 297.505C430.912 290.59 433.937 279.827 428.541 273.465C423.146 267.103 411.373 267.551 402.246 274.466C393.118 281.381 390.094 292.144 395.489 298.506C400.885 304.867 412.658 304.419 421.785 297.505Z" fill="#32962C"/>
<path opacity="0.2" d="M421.785 297.505C430.912 290.59 433.937 279.827 428.541 273.465C423.146 267.103 411.373 267.551 402.246 274.466C393.118 281.381 390.094 292.144 395.489 298.506C400.885 304.867 412.658 304.419 421.785 297.505Z" fill="white"/>
<path d="M398.046 300.124C397.994 300.124 397.943 300.11 397.899 300.083C397.855 300.057 397.82 300.019 397.797 299.974C397.775 299.929 397.767 299.88 397.774 299.831C397.78 299.782 397.802 299.735 397.835 299.697L423.845 270.051C423.868 270.024 423.896 270.001 423.928 269.985C423.961 269.968 423.996 269.958 424.032 269.954C424.068 269.951 424.105 269.954 424.14 269.964C424.175 269.975 424.208 269.991 424.236 270.013C424.264 270.035 424.287 270.062 424.304 270.093C424.321 270.124 424.331 270.157 424.334 270.191C424.337 270.226 424.333 270.26 424.321 270.293C424.31 270.326 424.292 270.357 424.268 270.383L398.258 300.03C398.232 300.059 398.2 300.083 398.163 300.099C398.127 300.115 398.087 300.124 398.046 300.124Z" fill="white"/>
<path d="M438.364 369.469C438.277 369.469 438.19 369.449 438.112 369.411C438.034 369.373 437.967 369.318 437.916 369.25C437.865 369.183 437.832 369.105 437.819 369.022C437.807 368.94 437.816 368.856 437.845 368.778L447.615 342.22C447.902 341.44 448.393 340.74 449.04 340.185C449.688 339.63 450.473 339.238 451.323 339.044C452.173 338.85 453.061 338.861 453.905 339.075C454.749 339.29 455.523 339.701 456.156 340.272L461.321 344.936C461.426 345.031 461.487 345.162 461.49 345.3C461.494 345.438 461.439 345.571 461.338 345.671C461.237 345.771 461.099 345.828 460.953 345.831C460.807 345.835 460.666 345.783 460.56 345.688L455.395 341.024C454.896 340.574 454.285 340.249 453.619 340.08C452.952 339.911 452.252 339.902 451.581 340.055C450.91 340.208 450.291 340.518 449.779 340.956C449.268 341.394 448.881 341.946 448.654 342.562L438.883 369.12C438.846 369.222 438.776 369.31 438.683 369.373C438.59 369.435 438.479 369.469 438.364 369.469Z" fill="#494949"/>
<path d="M475.753 359.64C482.517 354.58 482.115 343.45 474.855 334.781C467.596 326.113 456.227 323.187 449.464 328.248C442.7 333.308 443.102 344.438 450.362 353.107C457.621 361.776 468.989 364.701 475.753 359.64Z" fill="#32962C"/>
<path d="M428.253 374.131C428.129 374.131 428.009 374.092 427.912 374.019C427.815 373.947 427.747 373.846 427.718 373.732L411.323 308.935C411.21 308.493 410.972 308.089 410.632 307.768C410.293 307.446 409.867 307.219 409.4 307.111C408.933 307.004 408.444 307.02 407.986 307.158C407.528 307.297 407.12 307.552 406.805 307.895L401.751 313.415C401.704 313.467 401.647 313.509 401.582 313.54C401.517 313.571 401.447 313.589 401.375 313.594C401.303 313.599 401.231 313.59 401.162 313.569C401.093 313.547 401.03 313.513 400.975 313.468C400.921 313.424 400.876 313.369 400.844 313.308C400.811 313.247 400.792 313.181 400.787 313.113C400.781 313.045 400.79 312.976 400.813 312.911C400.836 312.847 400.872 312.787 400.919 312.735L405.974 307.215C406.421 306.727 407.001 306.366 407.652 306.17C408.302 305.974 408.997 305.951 409.66 306.104C410.323 306.257 410.929 306.58 411.41 307.037C411.892 307.494 412.231 308.068 412.39 308.695L428.786 373.492C428.819 373.626 428.796 373.768 428.719 373.885C428.643 374.003 428.52 374.087 428.379 374.119C428.337 374.127 428.295 374.132 428.253 374.131Z" fill="#494949"/>
<path d="M422.205 327.812C424.198 316.918 418.924 306.96 410.424 305.571C401.924 304.181 393.417 311.886 391.424 322.78C389.431 333.675 394.706 343.632 403.206 345.021C411.706 346.411 420.212 338.706 422.205 327.812Z" fill="#32962C"/>
<path d="M432.692 375.826C432.669 375.826 432.647 375.825 432.624 375.822C432.479 375.805 432.347 375.735 432.258 375.626C432.168 375.518 432.127 375.38 432.145 375.243L442.615 294.895C442.729 294.019 443.108 293.193 443.707 292.516C444.306 291.84 445.098 291.341 445.99 291.08C446.882 290.819 447.834 290.807 448.733 291.046C449.631 291.284 450.438 291.763 451.055 292.425L463.022 305.236C463.119 305.339 463.168 305.475 463.159 305.612C463.15 305.75 463.083 305.879 462.974 305.97C462.864 306.061 462.721 306.108 462.575 306.099C462.43 306.09 462.294 306.028 462.197 305.924L450.23 293.113C449.753 292.601 449.129 292.231 448.434 292.047C447.74 291.862 447.003 291.872 446.314 292.074C445.625 292.276 445.012 292.662 444.55 293.185C444.087 293.709 443.795 294.347 443.707 295.024L433.235 375.37C433.219 375.495 433.155 375.611 433.055 375.695C432.955 375.779 432.826 375.825 432.692 375.826Z" fill="#494949"/>
<path d="M475.294 312.353C479.47 305.218 474.557 295.095 464.322 289.744C454.086 284.393 442.404 285.838 438.228 292.974C434.053 300.109 438.965 310.231 449.201 315.582C459.436 320.934 471.119 319.488 475.294 312.353Z" fill="#32962C"/>
<path opacity="0.2" d="M475.753 359.64C482.517 354.58 482.115 343.45 474.855 334.781C467.596 326.113 456.227 323.187 449.464 328.248C442.7 333.308 443.102 344.438 450.362 353.107C457.621 361.776 468.989 364.701 475.753 359.64Z" fill="white"/>
<path opacity="0.5" d="M422.205 327.812C424.198 316.918 418.924 306.96 410.424 305.571C401.924 304.181 393.417 311.886 391.424 322.78C389.431 333.675 394.706 343.632 403.206 345.021C411.706 346.411 420.212 338.706 422.205 327.812Z" fill="white"/>
<path opacity="0.5" d="M475.294 312.353C479.47 305.218 474.557 295.095 464.322 289.744C454.086 284.393 442.404 285.838 438.228 292.974C434.053 300.109 438.965 310.231 449.201 315.582C459.436 320.934 471.119 319.488 475.294 312.353Z" fill="white"/>
<path d="M446.082 444H419.3L414.862 363.004H450.521L446.082 444Z" fill="#292A2E"/>
<path opacity="0.3" d="M446.082 444H419.3L414.862 363.004H450.521L446.082 444Z" fill="white"/>
<path d="M475.753 359.897C475.711 359.897 475.67 359.888 475.633 359.871C475.595 359.854 475.562 359.829 475.537 359.798L449.246 328.406C449.201 328.352 449.18 328.283 449.189 328.214C449.197 328.146 449.234 328.083 449.291 328.041C449.348 327.998 449.421 327.978 449.494 327.986C449.566 327.994 449.632 328.029 449.678 328.083L475.968 359.475C476 359.513 476.02 359.559 476.026 359.608C476.031 359.656 476.023 359.706 476 359.75C475.978 359.794 475.943 359.831 475.899 359.857C475.855 359.883 475.804 359.897 475.753 359.897Z" fill="white"/>
<path d="M473.545 314.87C473.486 314.87 473.43 314.851 473.383 314.818L439.741 291.601C439.712 291.581 439.687 291.555 439.669 291.526C439.65 291.497 439.637 291.465 439.632 291.431C439.626 291.397 439.628 291.363 439.636 291.33C439.645 291.296 439.66 291.265 439.681 291.238C439.703 291.21 439.729 291.187 439.76 291.169C439.791 291.151 439.825 291.139 439.861 291.134C439.897 291.129 439.933 291.13 439.968 291.138C440.004 291.146 440.037 291.161 440.066 291.181L473.707 314.4C473.753 314.433 473.787 314.478 473.804 314.53C473.822 314.582 473.821 314.637 473.803 314.689C473.786 314.741 473.751 314.786 473.705 314.818C473.658 314.85 473.602 314.867 473.545 314.868V314.87Z" fill="white"/>
<path d="M401.839 344.682C401.815 344.682 401.791 344.679 401.768 344.673C401.698 344.655 401.637 344.611 401.601 344.552C401.564 344.492 401.554 344.421 401.573 344.355L412.284 306.429C412.292 306.396 412.308 306.365 412.33 306.337C412.352 306.309 412.379 306.286 412.411 306.268C412.442 306.251 412.477 306.239 412.513 306.235C412.549 306.23 412.586 306.232 412.621 306.241C412.657 306.25 412.69 306.266 412.719 306.287C412.747 306.308 412.772 306.334 412.79 306.364C412.808 306.394 412.819 306.427 412.823 306.461C412.828 306.496 412.825 306.53 412.815 306.564L402.105 344.489C402.089 344.544 402.055 344.593 402.007 344.628C401.959 344.663 401.9 344.682 401.839 344.682Z" fill="white"/>
</svg>
