<svg width="330" height="292" viewBox="0 0 330 292" fill="none" xmlns="http://www.w3.org/2000/svg">
<g clip-path="url(#clip0_5756_5265)">
<path d="M165 291.75C245.559 291.75 310.865 226.444 310.865 145.885C310.865 65.3255 245.559 0.0195312 165 0.0195312C84.4408 0.0195312 19.1348 65.3255 19.1348 145.885C19.1348 226.444 84.4408 291.75 165 291.75Z" fill="white"/>
<path opacity="0.1" d="M165 291.75C245.559 291.75 310.865 226.444 310.865 145.885C310.865 65.3255 245.559 0.0195312 165 0.0195312C84.4408 0.0195312 19.1348 65.3255 19.1348 145.885C19.1348 226.444 84.4408 291.75 165 291.75Z" fill="#624DE3"/>
<path d="M70.2017 195.429L0.444336 195.217L0.731352 100.453L48.9669 100.599L70.4234 122.186L70.2017 195.429Z" fill="white"/>
<path opacity="0.3" d="M48.9667 100.598L48.9014 122.119L70.4231 122.185L48.9667 100.598Z" fill="#624DE3"/>
<path d="M70.8623 122.159C70.8596 122.12 70.852 122.081 70.8396 122.045C70.8348 122.03 70.8312 122.017 70.825 122.002C70.8042 121.954 70.7749 121.91 70.7383 121.872L49.2819 100.285C49.2441 100.248 49.2001 100.218 49.1517 100.196C49.1382 100.19 49.1244 100.185 49.1104 100.181C49.0731 100.168 49.0343 100.16 48.9949 100.158C48.9855 100.158 48.9771 100.152 48.9678 100.152L0.732646 100.008C0.614811 100.008 0.501802 100.055 0.418481 100.138C0.335159 100.221 0.288349 100.334 0.288349 100.452L0 195.215C0 195.333 0.0468098 195.446 0.130132 195.529C0.213454 195.612 0.326462 195.659 0.444297 195.659L70.199 195.872C70.3168 195.872 70.4298 195.825 70.5131 195.742C70.5965 195.659 70.6433 195.546 70.6433 195.428L70.8654 122.185C70.8676 122.177 70.8627 122.168 70.8623 122.159ZM49.4059 101.673L59.3137 111.637L69.3521 121.737L49.3472 121.676L49.4059 101.673ZM0.888595 194.773L1.17294 100.898L48.5195 101.041L48.4559 122.119C48.4559 122.237 48.5028 122.35 48.5861 122.433C48.6694 122.516 48.7824 122.563 48.9002 122.563L69.9777 122.627L69.7587 194.981L0.888595 194.773Z" fill="#262626"/>
<path d="M212.412 191.634L117.286 191.346L117.678 62.1191L183.454 62.3186L212.714 91.756L212.412 191.634Z" fill="white"/>
<path opacity="0.3" d="M183.454 62.3184L183.365 91.6669L212.714 91.7557L183.454 62.3184Z" fill="#624DE3"/>
<path d="M213.153 91.7295C213.15 91.6908 213.143 91.6525 213.13 91.6157C213.126 91.6011 213.122 91.5873 213.115 91.5713C213.095 91.5231 213.065 91.479 213.029 91.4411L183.769 62.0038C183.732 61.9666 183.688 61.9365 183.639 61.9149C183.626 61.9087 183.612 61.9051 183.598 61.9002C183.561 61.8873 183.522 61.8794 183.482 61.8767C183.473 61.8767 183.465 61.8714 183.455 61.8714L117.678 61.6719C117.561 61.6719 117.448 61.7187 117.364 61.802C117.281 61.8853 117.234 61.9983 117.234 62.1162L116.843 191.343C116.843 191.461 116.89 191.574 116.973 191.657C117.056 191.74 117.169 191.787 117.287 191.787L212.411 192.075C212.529 192.075 212.642 192.029 212.725 191.945C212.809 191.862 212.855 191.749 212.855 191.631L213.158 91.753C213.158 91.7477 213.153 91.7392 213.153 91.7295ZM183.894 63.3926L211.642 91.3087L183.81 91.2243L183.894 63.3926ZM117.731 190.903L118.12 62.5649L183.008 62.7617L182.92 91.6659C182.92 91.7838 182.966 91.8968 183.05 91.9801C183.133 92.0634 183.246 92.1102 183.364 92.1102L212.268 92.1991L211.968 191.189L117.731 190.903Z" fill="#262626"/>
<path d="M329.334 195.427L259.577 195.215L259.864 100.451L308.1 100.597L329.556 122.184L329.334 195.427Z" fill="white"/>
<path opacity="0.3" d="M308.099 100.598L308.034 122.119L329.556 122.185L308.099 100.598Z" fill="#624DE3"/>
<path d="M329.995 122.159C329.992 122.12 329.985 122.081 329.973 122.044C329.968 122.03 329.964 122.016 329.957 122.002C329.937 121.954 329.908 121.91 329.871 121.872L308.414 100.285C308.377 100.248 308.333 100.218 308.285 100.196C308.271 100.19 308.257 100.186 308.243 100.181C308.206 100.168 308.167 100.16 308.128 100.158C308.118 100.158 308.11 100.152 308.101 100.152L259.865 100.006C259.747 100.006 259.634 100.053 259.551 100.136C259.468 100.219 259.421 100.332 259.421 100.45L259.134 195.214C259.134 195.332 259.181 195.445 259.264 195.528C259.347 195.612 259.46 195.659 259.578 195.659L329.335 195.87C329.453 195.87 329.566 195.823 329.65 195.74C329.733 195.657 329.78 195.544 329.78 195.426L330.002 122.183C330 122.177 329.995 122.168 329.995 122.159ZM308.54 101.672L318.444 111.637L328.485 121.736L308.48 121.676L308.54 101.672ZM260.023 194.773L260.307 100.898L307.654 101.041L307.59 122.119C307.59 122.236 307.637 122.349 307.72 122.433C307.804 122.516 307.917 122.563 308.034 122.563L329.112 122.627L328.893 194.981L260.023 194.773Z" fill="#262626"/>
<path d="M141.24 137.43C144.918 137.43 147.899 134.448 147.899 130.77C147.899 127.093 144.918 124.111 141.24 124.111C137.562 124.111 134.581 127.093 134.581 130.77C134.581 134.448 137.562 137.43 141.24 137.43Z" fill="#292A2E"/>
<path d="M186.901 137.43C190.579 137.43 193.56 134.448 193.56 130.77C193.56 127.093 190.579 124.111 186.901 124.111C183.224 124.111 180.242 127.093 180.242 130.77C180.242 134.448 183.224 137.43 186.901 137.43Z" fill="#292A2E"/>
<path d="M172.999 149.185H155.144C155.026 149.185 154.913 149.139 154.829 149.055C154.746 148.972 154.699 148.859 154.699 148.741C154.699 148.623 154.746 148.51 154.829 148.427C154.913 148.344 155.026 148.297 155.144 148.297H172.999C173.117 148.297 173.23 148.344 173.313 148.427C173.396 148.51 173.443 148.623 173.443 148.741C173.443 148.859 173.396 148.972 173.313 149.055C173.23 149.139 173.117 149.185 172.999 149.185Z" fill="#262626"/>
<path d="M134.371 149.817C137.652 149.817 140.311 148.418 140.311 146.691C140.311 144.964 137.652 143.564 134.371 143.564C131.09 143.564 128.431 144.964 128.431 146.691C128.431 148.418 131.09 149.817 134.371 149.817Z" fill="white"/>
<path d="M193.771 149.817C197.052 149.817 199.712 148.418 199.712 146.691C199.712 144.964 197.052 143.564 193.771 143.564C190.491 143.564 187.831 144.964 187.831 146.691C187.831 148.418 190.491 149.817 193.771 149.817Z" fill="white"/>
<g opacity="0.4">
<path opacity="0.4" d="M134.371 149.817C137.652 149.817 140.311 148.418 140.311 146.691C140.311 144.964 137.652 143.564 134.371 143.564C131.09 143.564 128.431 144.964 128.431 146.691C128.431 148.418 131.09 149.817 134.371 149.817Z" fill="#624DE3"/>
<path opacity="0.4" d="M193.771 149.817C197.052 149.817 199.712 148.418 199.712 146.691C199.712 144.964 197.052 143.564 193.771 143.564C190.491 143.564 187.831 144.964 187.831 146.691C187.831 148.418 190.491 149.817 193.771 149.817Z" fill="#624DE3"/>
</g>
<path d="M212.857 92.8168C201.518 79.7986 185.472 71.8176 168.25 70.6292C151.027 69.4408 134.037 75.1423 121.018 86.4798C99.2667 105.423 92.5827 136.918 104.767 163.077C107.213 168.318 110.35 173.209 114.094 177.618L114.894 178.566L55.2724 241.839C54.1821 243.013 53.6003 244.571 53.6538 246.172C53.7073 247.773 54.3917 249.288 55.5579 250.387C56.724 251.486 58.2773 252.079 59.879 252.037C61.4806 251.995 63.0007 251.321 64.1077 250.163L123.714 186.9L124.71 187.645C137.573 197.294 153.552 201.84 169.567 200.408C185.583 198.976 200.502 191.668 211.449 179.891C222.396 168.113 228.598 152.701 228.858 136.624C229.118 120.547 223.419 104.942 212.858 92.8168H212.857ZM216.595 139.214C215.672 152.582 209.716 165.103 199.927 174.253C190.139 183.404 177.246 188.504 163.846 188.526C162.609 188.526 161.368 188.482 160.122 188.393C151.424 187.802 143.007 185.075 135.615 180.452C128.224 175.829 122.088 169.453 117.751 161.891C113.414 154.328 111.01 145.812 110.753 137.098C110.495 128.384 112.392 119.741 116.275 111.936C120.158 104.131 125.907 97.4041 133.012 92.3528C140.118 87.3016 148.36 84.0817 157.007 82.9787C165.655 81.8758 174.442 82.9238 182.587 86.03C190.733 89.1362 197.986 94.2044 203.704 100.785C208.285 106.022 211.783 112.114 213.995 118.71C216.208 125.305 217.091 132.274 216.595 139.214Z" fill="#624DE3"/>
</g>
<defs>
<clipPath id="clip0_5756_5265">
<rect width="330" height="291.77" fill="white"/>
</clipPath>
</defs>
</svg>
