<svg width="381" height="285" viewBox="0 0 381 285" fill="none" xmlns="http://www.w3.org/2000/svg">
<g clip-path="url(#clip0_5756_5603)">
<path d="M352.996 176.107C353.058 215.063 340.115 252.93 316.21 283.731H36.7865C12.8822 252.93 -0.0608785 215.063 0.00021529 176.107C0.00021529 78.8428 79.0239 0 176.503 0C273.981 0 352.996 78.8428 352.996 176.107Z" fill="white"/>
<path opacity="0.1" d="M352.997 176.107C353.058 215.063 340.115 252.93 316.21 283.731H36.7865C12.8822 252.93 -0.0608785 215.063 0.00021529 176.107C0.00021529 78.8428 79.0239 0 176.503 0C273.981 0 352.997 78.8428 352.997 176.107Z" fill="#32962C"/>
<path d="M310.338 79.813L320.065 60.2533C320.278 59.8235 320.579 59.4429 320.949 59.1356C321.318 58.8283 321.747 58.601 322.209 58.4684C322.671 58.3357 323.156 58.3005 323.633 58.3651C324.109 58.4296 324.567 58.5924 324.977 58.8431C325.72 59.3292 326.255 60.0732 326.479 60.9308C326.704 61.7885 326.601 62.6986 326.191 63.4849L324.105 67.6791L336.729 57.4961C338.113 56.339 340.553 55.8028 341.751 57.4374C342.253 58.0364 342.537 58.7875 342.556 59.5682C342.576 60.3489 342.329 61.1131 341.858 61.7362C341.872 61.7465 341.885 61.7583 341.897 61.7713C341.904 61.7825 341.91 61.7942 341.915 61.8063L344.05 60.0213C344.445 59.6911 344.909 59.4531 345.409 59.3246C345.908 59.1962 346.43 59.1805 346.936 59.2788C347.442 59.3771 347.92 59.5868 348.335 59.8927C348.749 60.1986 349.09 60.593 349.333 61.047C349.7 61.7698 349.808 62.5965 349.638 63.3889C349.468 64.1814 349.03 64.8915 348.398 65.4006L347.49 66.1599C347.5 66.1962 347.503 66.234 347.499 66.2715C348.232 65.9007 349.073 65.8021 349.872 65.9933C350.671 66.1845 351.376 66.653 351.86 67.3151C352.369 68.0553 352.579 68.9598 352.449 69.8478C352.319 70.7359 351.858 71.5423 351.158 72.106L348.902 73.9912C348.952 73.9868 349.003 73.9945 349.051 74.0138C349.098 74.0331 349.139 74.0634 349.172 74.1021C349.209 74.1504 349.231 74.2081 349.236 74.2685C349.981 74.1189 350.754 74.2176 351.437 74.5495C352.12 74.8814 352.675 75.428 353.016 76.1052C353.359 76.8236 353.45 77.6367 353.273 78.413C353.096 79.1892 352.661 79.8831 352.04 80.3823L333.007 96.2909C330.344 98.5165 327.076 99.898 323.621 100.258C320.167 100.618 316.683 99.9408 313.617 98.3124C310.973 96.9085 308.983 94.5316 308.067 91.6866C307.152 88.8416 307.384 85.7526 308.715 83.0758L310.338 79.813Z" fill="#E98862"/>
<g opacity="0.2">
<path opacity="0.2" d="M329.411 71.8772C329.465 71.9415 329.542 71.9818 329.626 71.9896C329.709 71.9974 329.793 71.9719 329.858 71.9186L341.853 62.2169C341.919 62.1637 341.961 62.0865 341.969 62.0024C341.978 61.9183 341.953 61.8341 341.9 61.7684C341.846 61.7027 341.769 61.6609 341.685 61.6521C341.601 61.6433 341.516 61.6683 341.45 61.7216L329.455 71.4233C329.39 71.4764 329.349 71.5531 329.34 71.6367C329.331 71.7203 329.355 71.804 329.408 71.8696L329.411 71.8772Z" fill="#0C0C0C"/>
</g>
<g opacity="0.2">
<path opacity="0.2" d="M333.552 77.2752C333.606 77.3393 333.683 77.3796 333.767 77.3872C333.851 77.3949 333.934 77.3693 333.999 77.316L347.386 66.489C347.451 66.4358 347.492 66.359 347.501 66.2755C347.51 66.1919 347.485 66.1083 347.432 66.0428C347.377 65.98 347.301 65.9403 347.218 65.9315C347.135 65.9228 347.052 65.9457 346.985 65.9956L333.594 76.8206C333.529 76.8738 333.487 76.9505 333.478 77.0341C333.469 77.1176 333.494 77.2013 333.547 77.2669L333.552 77.2752Z" fill="#0C0C0C"/>
</g>
<g opacity="0.2">
<path opacity="0.2" d="M338.005 83.144C338.059 83.2082 338.136 83.2486 338.22 83.2563C338.304 83.2641 338.387 83.2386 338.452 83.1854L349.13 74.549C349.196 74.4957 349.238 74.4185 349.247 74.3344C349.256 74.2503 349.231 74.1662 349.177 74.1005C349.124 74.0348 349.047 73.9929 348.962 73.9841C348.878 73.9754 348.794 74.0003 348.728 74.0536L338.047 82.69C337.982 82.7432 337.94 82.8199 337.931 82.9035C337.923 82.987 337.947 83.0707 338 83.1363L338.005 83.144Z" fill="#0C0C0C"/>
</g>
<path d="M92.0455 63.0422C92.0455 63.0422 90.6737 83.5799 86.0435 91.0292C72.7119 112.48 68.8496 136.612 82.1998 149.22C95.55 161.828 180.702 162.003 187.153 133.005C192.583 108.591 180.929 105.966 178.093 85.8284C176.81 76.7157 173.28 57.6074 173.28 57.6074" fill="#0A0A0A"/>
<path d="M165.115 128.753C164.968 128.734 163.337 155.74 131.895 153.386C110.128 151.758 102.367 128.714 101.869 128.714C104.216 128.216 108.168 127.492 109.21 126.937C112.637 125.1 116.877 123.187 117.983 116.545C118.622 112.72 117.539 93.1346 117.872 89.2598L151.284 96.7034C150.817 104.883 147.549 123.846 159.002 127.202C160.907 127.758 162.96 128.269 165.115 128.753Z" fill="#E98862"/>
<path opacity="0.5" d="M151.751 119.453C151.228 117.77 150.891 116.035 150.746 114.279C150.379 110.272 150.453 106.236 150.965 102.245C144.174 101.33 137.777 98.5332 132.5 94.1719C131.88 96.458 128.467 106.448 129.412 108.621C131.197 112.728 139.588 119.453 151.751 119.453Z" fill="#0C0C0C"/>
<path d="M147.431 111.04C134.258 112.315 117.214 107.054 113.684 89.5501L110.498 73.7563C106.968 56.2526 113.319 40.2127 129.836 36.8957C146.353 33.5806 161.56 45.2886 165.091 62.7929L166.502 69.7852C167.856 76.5014 170.934 108.771 147.431 111.04Z" fill="#E98862"/>
<path opacity="0.1" d="M139.057 88.1023C141.225 87.8442 142.829 86.3488 142.639 84.7623C142.449 83.1758 140.538 82.0988 138.37 82.3569C136.203 82.615 134.599 84.1104 134.789 85.6969C134.979 87.2834 136.89 88.3604 139.057 88.1023Z" fill="#0C0C0C"/>
<path opacity="0.1" d="M161.964 81.7582C162.156 83.3424 164.069 84.4179 166.237 84.1629C166.612 84.1181 166.981 84.0345 167.338 83.9137C167.439 82.0247 167.445 80.2078 167.39 78.5254C166.788 78.375 166.163 78.3385 165.547 78.4176C163.379 78.6726 161.776 80.1676 161.964 81.7582Z" fill="#0C0C0C"/>
<path opacity="0.5" d="M152.386 86.6557C152.396 86.6547 152.407 86.653 152.418 86.6506C153.087 86.5115 153.748 86.3354 154.398 86.1234C155.368 85.7995 156.635 85.2679 156.461 84.3925C156.26 83.3955 151.349 73.1844 150.792 72.0247C150.769 71.9724 150.736 71.9252 150.695 71.8859C150.653 71.8466 150.604 71.8161 150.551 71.7962C150.497 71.7763 150.44 71.7674 150.383 71.77C150.326 71.7726 150.27 71.7866 150.218 71.8113C150.166 71.836 150.12 71.8709 150.083 71.9137C150.045 71.9566 150.016 72.0066 149.998 72.0608C149.98 72.115 149.973 72.1723 149.978 72.2292C149.983 72.2861 149.999 72.3414 150.026 72.3919C152.119 76.7404 155.491 83.8902 155.627 84.5615C155.521 84.8745 153.912 85.4859 152.252 85.8199C152.196 85.8288 152.144 85.8484 152.096 85.8777C152.049 85.9069 152.007 85.9452 151.975 85.9903C151.942 86.0355 151.919 86.0866 151.906 86.1407C151.893 86.1949 151.891 86.2511 151.9 86.3061C151.909 86.361 151.928 86.4137 151.958 86.4611C151.987 86.5085 152.025 86.5496 152.071 86.5822C152.116 86.6148 152.167 86.6382 152.221 86.651C152.276 86.6638 152.332 86.6659 152.387 86.657L152.386 86.6557Z" fill="#0C0C0C"/>
<path d="M97.3188 79.4263L112.126 76.5403C123.312 71.873 126.485 52.4218 126.485 52.4218C126.485 52.4218 140.29 65.54 173.282 57.6073C173.282 57.6073 166.115 11.6513 117.399 25.604C101.692 30.1017 90.5648 46.0778 92.2196 67.2383C93.3793 82.0631 97.3188 79.4263 97.3188 79.4263Z" fill="#0A0A0A"/>
<path d="M115.785 94.6757C110.766 95.6836 105.616 91.1426 104.604 86.133C103.592 81.1234 107.106 77.5457 112.125 76.5371L115.389 79.3741L120.1 93.8081L115.785 94.6757Z" fill="#E98862"/>
<path d="M154.35 63.8824C155.606 62.9963 157.075 62.4578 158.607 62.3218C159.377 62.2481 160.153 62.2911 160.91 62.4493C161.673 62.6045 162.414 62.8546 163.115 63.1939L163.137 63.2041C163.214 63.2383 163.302 63.2408 163.382 63.2111C163.461 63.1815 163.526 63.1219 163.562 63.0453C163.598 62.9686 163.603 62.8809 163.575 62.8008C163.547 62.7208 163.489 62.6548 163.413 62.6169C162.671 62.2257 161.882 61.9293 161.065 61.7346C160.242 61.5351 159.394 61.4601 158.549 61.5121C156.838 61.6064 155.183 62.1568 153.757 63.1059C153.704 63.1418 153.659 63.1879 153.623 63.2414C153.588 63.2949 153.564 63.3548 153.552 63.4178C153.54 63.4807 153.54 63.5454 153.553 63.6081C153.566 63.6708 153.591 63.7304 153.628 63.7833C153.664 63.8363 153.71 63.8816 153.764 63.9167C153.817 63.9518 153.878 63.976 153.941 63.9878C154.004 63.9997 154.069 63.999 154.131 63.9859C154.194 63.9727 154.254 63.9473 154.307 63.9111L154.318 63.9034L154.35 63.8824Z" fill="#0C0C0C"/>
<path d="M140.823 65.7462C139.142 65.4124 137.401 65.535 135.783 66.1013C134.984 66.3762 134.23 66.7692 133.547 67.2674C132.867 67.7591 132.252 68.3344 131.716 68.9797C131.662 69.0439 131.635 69.1265 131.64 69.2101C131.646 69.2938 131.684 69.3721 131.746 69.4285C131.808 69.485 131.89 69.5153 131.974 69.513C132.058 69.5108 132.138 69.4761 132.196 69.4164L132.214 69.3986C132.731 68.8174 133.319 68.3034 133.964 67.8685C134.603 67.4338 135.304 67.0978 136.043 66.8721C137.511 66.4121 139.074 66.3483 140.575 66.6872L140.612 66.6968C140.738 66.7272 140.87 66.7065 140.981 66.6392C141.092 66.5719 141.171 66.4635 141.201 66.3379C141.232 66.2122 141.211 66.0797 141.144 65.9693C141.076 65.859 140.968 65.7799 140.842 65.7494L140.823 65.7462Z" fill="#0C0C0C"/>
<path d="M112.137 76.2959C122.091 72.5983 125.394 65.7399 126.411 60.6359C127.07 57.232 127.008 53.7284 126.23 50.3496L125.922 50.4344C126.688 53.7691 126.748 57.2267 126.096 60.5856C125.092 65.606 121.836 72.3548 112.025 75.9982L112.137 76.2959Z" fill="#0C0C0C"/>
<path d="M190.722 131.965L285.235 163.488L257.487 175.795L304.614 79.3262L343.129 97.2366L299.404 195.287C297.192 200.245 293.267 204.244 288.344 206.552C283.422 208.861 277.832 209.325 272.594 207.86L271.654 207.595L175.711 180.717L190.722 131.965Z" fill="#32962C"/>
<path d="M131.309 146.634C109.527 145.609 108.61 127.162 108.61 127.162C108.61 127.162 97.8172 127.858 90.6428 128.827C78.897 130.412 71.1482 134.386 64.9814 140.539C59.2452 146.263 55.7529 152.456 59.4484 191.994C62.1242 220.622 60.2413 283.591 60.2413 283.591H192.976C192.976 283.591 202.245 192.618 203.344 179.733C205.441 155.132 211.365 149.701 199.362 137.028C190.656 127.838 168.182 127.162 159.137 127.163C158.989 127.163 160.972 148.029 131.309 146.634Z" fill="#32962C"/>
<path d="M156.801 90.1059C152.521 92.2775 147.638 92.9641 142.923 92.0574C142.76 92.0269 142.591 92.0433 142.437 92.1048C142.283 92.1663 142.15 92.2703 142.052 92.4046C141.955 92.539 141.898 92.6982 141.888 92.8636C141.878 93.029 141.916 93.1938 141.996 93.3388C143.402 95.8098 146.736 100.033 152.455 98.3114C156.148 97.1996 157.544 93.4089 158.062 91.0635C158.097 90.9013 158.085 90.7324 158.028 90.5766C157.97 90.4208 157.87 90.2846 157.737 90.1841C157.605 90.0835 157.446 90.0227 157.281 90.0089C157.115 89.9951 156.948 90.0287 156.801 90.1059Z" fill="white"/>
<path d="M157.069 71.1136C158.211 71.1136 159.137 70.1897 159.137 69.05C159.137 67.9103 158.211 66.9863 157.069 66.9863C155.927 66.9863 155.001 67.9103 155.001 69.05C155.001 70.1897 155.927 71.1136 157.069 71.1136Z" fill="#0C0C0C"/>
<path d="M137.196 74.5843C138.338 74.5843 139.264 73.6604 139.264 72.5207C139.264 71.381 138.338 70.457 137.196 70.457C136.054 70.457 135.128 71.381 135.128 72.5207C135.128 73.6604 136.054 74.5843 137.196 74.5843Z" fill="#0C0C0C"/>
<path d="M203.048 188.698C203.035 188.699 203.022 188.699 203.008 188.698C202.924 188.687 202.848 188.644 202.796 188.577C202.744 188.511 202.721 188.426 202.731 188.343L204.786 171.717C204.791 171.676 204.803 171.635 204.824 171.598C204.844 171.562 204.872 171.529 204.905 171.503C204.938 171.478 204.977 171.459 205.017 171.448C205.058 171.437 205.1 171.435 205.142 171.441C205.184 171.446 205.224 171.459 205.261 171.48C205.297 171.5 205.329 171.528 205.355 171.561C205.381 171.594 205.4 171.632 205.411 171.672C205.422 171.713 205.425 171.755 205.42 171.796L203.365 188.421C203.354 188.497 203.317 188.568 203.259 188.619C203.2 188.669 203.126 188.698 203.048 188.698Z" fill="#0C0C0C"/>
<path d="M176.647 222.507L196.628 213.603C197.067 213.407 197.542 213.305 198.023 213.303C198.503 213.3 198.979 213.398 199.42 213.589C199.861 213.781 200.258 214.061 200.584 214.414C200.91 214.766 201.159 215.183 201.315 215.637C201.578 216.483 201.515 217.397 201.141 218.2C200.766 219.004 200.106 219.64 199.288 219.985L195.003 221.898L211.239 222.065C213.045 222.051 215.268 223.188 215.149 225.21C215.154 225.991 214.894 226.75 214.411 227.365C213.928 227.979 213.25 228.412 212.489 228.593C212.493 228.61 212.496 228.627 212.496 228.644C212.494 228.658 212.492 228.671 212.488 228.683L215.272 228.664C215.788 228.66 216.297 228.772 216.764 228.99C217.231 229.208 217.643 229.527 217.97 229.924C218.298 230.321 218.533 230.785 218.657 231.284C218.782 231.783 218.794 232.303 218.692 232.807C218.514 233.598 218.07 234.304 217.433 234.808C216.796 235.311 216.005 235.58 215.193 235.571L214.009 235.579C213.993 235.614 213.971 235.645 213.945 235.672C214.746 235.851 215.458 236.31 215.952 236.965C216.446 237.62 216.69 238.429 216.642 239.247C216.562 240.141 216.148 240.973 215.481 241.575C214.815 242.178 213.945 242.508 213.045 242.498L210.102 242.519C210.144 242.548 210.178 242.586 210.202 242.631C210.226 242.675 210.239 242.724 210.24 242.774C210.238 242.835 210.218 242.893 210.183 242.942C210.852 243.3 211.386 243.867 211.7 244.557C212.015 245.247 212.094 246.021 211.925 246.759C211.732 247.532 211.283 248.216 210.651 248.702C210.019 249.188 209.242 249.447 208.444 249.437L183.616 249.614C180.143 249.638 176.742 248.628 173.848 246.711C170.954 244.794 168.7 242.059 167.374 238.856C166.231 236.094 166.212 232.996 167.322 230.22C168.431 227.445 170.582 225.21 173.316 223.991L176.647 222.507Z" fill="#E98862"/>
<g opacity="0.2">
<path opacity="0.2" d="M196.417 228.504C196.418 228.587 196.452 228.667 196.512 228.726C196.572 228.785 196.652 228.818 196.736 228.818L212.176 228.956C212.261 228.957 212.343 228.924 212.403 228.865C212.464 228.806 212.498 228.725 212.499 228.64C212.5 228.556 212.467 228.474 212.407 228.414C212.348 228.354 212.267 228.319 212.182 228.319L196.742 228.18C196.657 228.18 196.576 228.213 196.516 228.273C196.456 228.333 196.423 228.414 196.423 228.498L196.417 228.504Z" fill="#0C0C0C"/>
</g>
<g opacity="0.2">
<path opacity="0.2" d="M196.168 235.3C196.169 235.384 196.204 235.463 196.263 235.522C196.323 235.581 196.404 235.614 196.488 235.614L213.719 235.769C213.803 235.769 213.885 235.735 213.945 235.676C214.004 235.616 214.038 235.535 214.038 235.45C214.035 235.367 214.001 235.287 213.941 235.228C213.882 235.169 213.802 235.134 213.719 235.131L196.488 234.977C196.445 234.976 196.404 234.984 196.364 235C196.325 235.016 196.29 235.039 196.26 235.069C196.23 235.098 196.206 235.134 196.19 235.173C196.173 235.211 196.165 235.253 196.165 235.295L196.168 235.3Z" fill="#0C0C0C"/>
</g>
<g opacity="0.2">
<path opacity="0.2" d="M195.855 242.653C195.857 242.737 195.891 242.817 195.951 242.876C196.01 242.935 196.091 242.968 196.175 242.968L209.92 243.091C210.005 243.092 210.086 243.059 210.147 243C210.207 242.941 210.241 242.86 210.242 242.775C210.243 242.691 210.21 242.609 210.151 242.549C210.091 242.489 210.01 242.455 209.926 242.454L196.181 242.33C196.096 242.33 196.015 242.364 195.955 242.423C195.895 242.483 195.861 242.564 195.861 242.649L195.855 242.653Z" fill="#0C0C0C"/>
</g>
<path d="M182.366 258.005L71.5859 283.133C67.9058 283.533 64.1829 283.076 60.7093 281.799C57.2358 280.522 54.106 278.459 51.5657 275.772C49.0254 273.085 47.1436 269.848 46.0679 266.313C44.9923 262.779 44.752 259.044 45.3661 255.401L58.0435 153.653C59.0978 147.401 62.5982 141.822 67.7748 138.145C72.9513 134.467 79.3799 132.992 85.6463 134.044C91.9126 135.096 97.5036 138.589 101.189 143.754C104.875 148.92 106.353 155.334 105.298 161.587L99.1935 234.413L176.16 217.033L182.366 258.005Z" fill="#32962C"/>
<path d="M83.6186 237.276C83.5384 237.276 83.4613 237.245 83.4028 237.19C83.3443 237.135 83.3085 237.061 83.3026 236.981C83.2967 236.901 83.3212 236.822 83.3711 236.759C83.421 236.697 83.4927 236.655 83.5719 236.643L99.0088 233.354C99.0503 233.347 99.0928 233.349 99.1337 233.358C99.1746 233.368 99.2131 233.386 99.2469 233.411C99.2807 233.436 99.3092 233.468 99.3306 233.504C99.3521 233.54 99.366 233.58 99.3717 233.621C99.3842 233.705 99.3629 233.79 99.3126 233.858C99.2623 233.926 99.187 233.971 99.1034 233.984L83.6665 237.273C83.6507 237.275 83.6346 237.276 83.6186 237.276Z" fill="#0C0C0C"/>
<path d="M74.9093 283.591C74.8245 283.596 74.7411 283.568 74.6773 283.512C74.6135 283.456 74.5745 283.377 74.569 283.293C74.5635 283.208 74.5919 283.125 74.6479 283.061C74.7039 282.998 74.783 282.959 74.8677 282.953L181.67 257.854L175.618 217.499L99.1114 233.979C99.0619 233.985 99.0117 233.98 98.9646 233.963C98.9175 233.947 98.8748 233.92 98.8399 233.884C98.805 233.849 98.7791 233.805 98.7642 233.757C98.7494 233.709 98.7459 233.659 98.7543 233.61L103.046 191.999C103.052 191.957 103.067 191.918 103.089 191.882C103.111 191.846 103.14 191.815 103.175 191.791C103.209 191.766 103.248 191.749 103.289 191.74C103.33 191.731 103.372 191.73 103.414 191.738C103.497 191.752 103.572 191.798 103.621 191.867C103.67 191.936 103.69 192.021 103.676 192.105L99.459 233.288L175.767 216.796C175.808 216.784 175.851 216.781 175.894 216.787C175.936 216.792 175.977 216.806 176.013 216.828C176.05 216.849 176.082 216.878 176.108 216.912C176.133 216.946 176.152 216.985 176.162 217.026L182.368 258.001C182.388 258.082 182.375 258.166 182.333 258.238C182.291 258.309 182.223 258.362 182.142 258.384L74.9508 283.588C74.937 283.59 74.9231 283.591 74.9093 283.591Z" fill="#0C0C0C"/>
</g>
<defs>
<clipPath id="clip0_5756_5603">
<rect width="381" height="285" fill="white"/>
</clipPath>
</defs>
</svg>
