<svg width="291" height="217" viewBox="0 0 291 217" fill="none" xmlns="http://www.w3.org/2000/svg">
<g clip-path="url(#clip0_5756_8025)">
<path d="M290.577 216.955H0C3.18382 208.145 9.06382 200.672 17.3525 198.454C29.4778 195.216 42.3095 204.122 54.4075 200.773C61.281 198.872 66.6922 193.334 72.3781 188.733C93.8307 171.381 123.226 166.252 148.61 175.437C161.878 180.236 173.968 188.628 187.56 192.194C205.136 196.809 223.516 192.982 241.591 192.351C259.194 191.739 284.415 199.522 290.577 216.955Z" fill="#624DE3"/>
<path d="M243.316 151.233C241.239 158.059 234.072 164.125 236.213 169.145C237.028 171.053 237.845 173.049 238.222 175.087C238.466 176.302 238.507 177.556 238.342 178.787C237.57 184.102 232.985 187.633 228.722 190.383C228.459 190.552 228.193 190.724 227.927 190.897C223.888 193.523 219.657 196.547 218.359 201.394C217.639 204.087 217.957 206.967 217.658 209.752C217.375 212.311 216.574 214.77 215.312 216.954H188.088C185.671 214.064 185.872 209.206 187.712 205.798C189.681 202.151 193.007 199.673 196.008 196.976C198.6 194.646 201.127 191.84 202.117 188.418C202.274 187.877 202.39 187.322 202.464 186.76C202.704 184.909 202.575 175.449 205.534 169.627C210.108 160.636 217.528 162.85 219.796 157.777C220.666 155.834 221.415 131.956 235.87 136.367C237.279 136.776 238.597 137.492 239.743 138.471C240.889 139.451 241.839 140.673 242.536 142.064C243.233 143.455 243.661 144.985 243.795 146.562C243.929 148.138 243.766 149.727 243.316 151.233Z" fill="#ADB0FF"/>
<path d="M269.755 188.57C269.34 188.88 268.894 189.138 268.425 189.338C264.525 190.925 253.679 190.749 252.092 194.928C251.346 196.892 251.168 199.061 250.528 201.071C249.078 205.63 245.25 209.048 240.967 210.333C239.426 210.794 237.83 211.009 236.305 211.523C233.359 212.519 230.919 214.522 228.774 216.955H193.614C193.598 214.425 194.172 211.931 195.281 209.706C196.39 207.481 198 205.595 199.96 204.225C203.869 201.55 208.808 201.05 212.646 198.255C215.176 196.41 216.997 193.745 218.44 190.798C219.359 188.871 220.17 186.885 220.871 184.853C221.945 181.829 223.067 178.583 225.507 176.71C226.703 175.866 228.03 175.263 229.423 174.929C232.947 173.929 235.656 174.517 238.222 175.087C241.337 175.777 244.244 176.435 248.147 174.186C255.071 170.194 265.194 150.286 275.31 169.201C279.366 176.788 273.769 185.655 269.755 188.57Z" fill="#8878EA"/>
<path d="M49.2495 151.233C51.326 158.059 58.4931 164.125 56.3517 169.145C55.5373 171.053 54.7197 173.049 54.3434 175.087C54.0992 176.302 54.0585 177.556 54.2233 178.787C54.9955 184.102 59.58 187.633 63.8432 190.383C64.106 190.552 64.3721 190.724 64.6381 190.897C68.6775 193.523 72.9084 196.547 74.2062 201.394C74.9264 204.087 74.6085 206.967 74.907 209.752C75.1898 212.311 75.9908 214.77 77.2527 216.954H104.477C106.894 214.064 106.693 209.206 104.854 205.798C102.884 202.151 99.5586 199.673 96.5575 196.976C93.9651 194.646 91.4376 191.84 90.4481 188.418C90.2908 187.877 90.1747 187.322 90.1009 186.76C89.8608 184.909 89.9906 175.449 87.0316 169.627C82.4569 160.636 75.0367 162.85 72.7688 157.777C71.8993 155.834 71.1498 131.956 56.6956 136.367C55.2862 136.776 53.9683 137.492 52.8222 138.471C51.6761 139.451 50.7258 140.673 50.0291 142.064C49.3325 143.455 48.9041 144.985 48.7701 146.562C48.636 148.138 48.7992 149.727 49.2495 151.233Z" fill="#ADB0FF"/>
<path d="M22.8095 188.57C23.2245 188.88 23.6708 189.138 24.1397 189.338C28.0396 190.925 38.8859 190.749 40.4725 194.928C41.2187 196.892 41.3972 199.061 42.0363 201.071C43.4866 205.63 47.3151 209.048 51.5978 210.333C53.139 210.794 54.7353 211.009 56.2602 211.523C59.2062 212.519 61.646 214.522 63.7906 216.955H98.9512C98.9668 214.425 98.3932 211.931 97.2838 209.706C96.1744 207.481 94.565 205.595 92.605 204.225C88.6954 201.55 83.7573 201.05 79.919 198.255C77.3883 196.41 75.5682 193.745 74.1244 190.798C73.2059 188.871 72.3944 186.885 71.6942 184.853C70.6203 181.829 69.4977 178.583 67.0579 176.71C65.8614 175.866 64.535 175.263 63.1418 174.929C59.6182 173.929 56.9091 174.517 54.3427 175.087C51.228 175.777 48.3209 176.435 44.4178 174.186C37.494 170.194 27.3712 150.286 17.2549 169.201C13.2006 176.788 18.7973 185.655 22.8095 188.57Z" fill="#8878EA"/>
<path d="M187.081 3.10742H107.462C101.365 3.10742 96.4219 8.47028 96.4219 15.0857V201.917C96.4219 208.532 101.365 213.895 107.462 213.895H187.081C193.178 213.895 198.121 208.532 198.121 201.917V15.0857C198.121 8.47028 193.178 3.10742 187.081 3.10742Z" fill="white"/>
<path d="M187.08 217H107.461C103.775 216.995 100.241 215.404 97.6351 212.576C95.0289 209.749 93.5629 205.915 93.5586 201.915V15.0846C93.5629 11.0855 95.0289 7.25147 97.6351 4.42358C100.241 1.59569 103.775 0.00484473 107.461 0L187.08 0C190.766 0.00484473 194.3 1.59569 196.906 4.42358C199.512 7.25147 200.978 11.0855 200.982 15.0846V201.915C200.978 205.915 199.512 209.749 196.906 212.576C194.3 215.404 190.766 216.995 187.08 217ZM107.461 6.21233C105.293 6.21475 103.214 7.15027 101.681 8.8136C100.148 10.4769 99.2853 12.7322 99.2829 15.0846V201.915C99.2855 204.267 100.148 206.522 101.681 208.185C103.213 209.848 105.291 210.784 107.459 210.787H187.079C189.246 210.784 191.325 209.848 192.857 208.185C194.39 206.522 195.252 204.267 195.255 201.915V15.0846C195.252 12.7327 194.39 10.478 192.857 8.8149C191.325 7.15185 189.246 6.21628 187.079 6.21339L107.461 6.21233Z" fill="#DEE8F5"/>
<path d="M129.836 3.10547H164.703V10.4457C164.703 11.1672 164.572 11.8816 164.317 12.5482C164.063 13.2148 163.69 13.8204 163.219 14.3306C162.749 14.8407 162.191 15.2454 161.577 15.5215C160.962 15.7975 160.304 15.9396 159.639 15.9395H134.9C133.557 15.9395 132.269 15.3607 131.319 14.3303C130.369 13.3 129.836 11.9025 129.836 10.4454V3.10547H129.836Z" fill="#DEE8F5"/>
<path d="M163.968 48.4806C163.968 52.0639 162.988 55.5666 161.153 58.5458C159.318 61.525 156.71 63.8469 153.659 65.2178C150.607 66.5887 147.25 66.9472 144.011 66.2478C140.772 65.5484 137.797 63.8225 135.462 61.2885C133.127 58.7545 131.537 55.5261 130.893 52.0117C130.249 48.4972 130.58 44.8544 131.844 41.544C133.108 38.2336 135.249 35.4043 137.995 33.4138C140.741 31.4233 143.969 30.3611 147.272 30.3615C149.467 30.3524 151.642 30.815 153.672 31.7224C155.701 32.6298 157.545 33.9641 159.097 35.6485C160.649 37.3329 161.879 39.3339 162.715 41.5363C163.551 43.7387 163.977 46.0988 163.968 48.4806Z" fill="#C1D8ED"/>
<path d="M147.269 50.3468C150.921 50.3468 153.881 47.1351 153.881 43.1734C153.881 39.2116 150.921 36 147.269 36C143.618 36 140.658 39.2116 140.658 43.1734C140.658 47.1351 143.618 50.3468 147.269 50.3468Z" fill="white"/>
<path d="M159.301 61.0416C157.743 62.7989 155.875 64.1971 153.807 65.1522C151.74 66.1074 149.516 66.5998 147.269 66.6002C145.022 66.6005 142.798 66.1087 140.731 65.1541C138.663 64.1996 136.794 62.802 135.236 61.0451C137.488 55.5851 142.034 51.8535 147.27 51.8535C152.507 51.8535 157.049 55.5812 159.301 61.0416Z" fill="white"/>
<path d="M182.449 79.6621H112.09V96.3161H182.449V79.6621Z" fill="#32962C"/>
<path d="M182.295 112.299H111.936V128.953H182.295V112.299Z" fill="#C1D8ED"/>
<path d="M232.132 70.9167C232.132 70.9167 229.523 69.7008 229.523 62.2634L224.278 61.6836C224.278 61.6836 225.359 68.2557 222.904 70.59L232.132 70.9167Z" fill="#E98862"/>
<path d="M232.238 59.1372C232.049 61.4107 231.082 63.6334 229.315 64.5195C227.393 65.5517 225.268 66.058 223.125 65.9941C217.431 65.9941 217.496 51.9417 219.976 48.9909C222.456 46.0402 230.466 47.0572 231.767 51.5048C232.439 53.8071 232.416 56.9736 232.238 59.1372Z" fill="#E98862"/>
<path d="M223.978 58.1335C224.238 58.1335 224.448 57.9051 224.448 57.6234C224.448 57.3417 224.238 57.1133 223.978 57.1133C223.718 57.1133 223.508 57.3417 223.508 57.6234C223.508 57.9051 223.718 58.1335 223.978 58.1335Z" fill="#624DE3"/>
<path d="M224.903 56.6117C224.891 56.6117 224.88 56.6107 224.868 56.6089L223.621 56.3977C223.591 56.3939 223.563 56.3837 223.537 56.3677C223.511 56.3517 223.489 56.3302 223.471 56.3045C223.453 56.2789 223.44 56.2496 223.433 56.2184C223.425 56.1871 223.424 56.1547 223.428 56.1228C223.433 56.091 223.443 56.0605 223.459 56.0332C223.475 56.0058 223.495 55.9822 223.52 55.9636C223.544 55.9451 223.571 55.9321 223.6 55.9253C223.629 55.9185 223.659 55.9182 223.688 55.9242L224.936 56.1354C224.991 56.1446 225.041 56.176 225.075 56.2231C225.11 56.2703 225.127 56.3299 225.123 56.39C225.119 56.4501 225.094 56.5064 225.053 56.5475C225.013 56.5887 224.959 56.6117 224.904 56.6121L224.903 56.6117Z" fill="#624DE3"/>
<path d="M220.291 59.7875C220.291 60.3611 220.501 60.9111 220.875 61.3167C221.249 61.7222 221.756 61.9501 222.284 61.9501C222.813 61.9501 223.32 61.7222 223.693 61.3167C224.067 60.9111 224.277 60.3611 224.277 59.7875C224.286 59.2236 224.088 58.679 223.727 58.2734C223.366 57.8679 222.871 57.6346 222.351 57.625C222.329 57.625 222.306 57.625 222.284 57.625C220.865 57.7007 220.291 58.5931 220.291 59.7875Z" fill="#E98862"/>
<path d="M220.275 54.702C219.17 54.6926 218.067 54.5917 216.977 54.4003C216.977 54.4003 217.31 45.2746 226.243 45.7949C227.402 45.7374 228.564 45.8118 229.71 46.017C232.395 46.4634 236.201 49.4416 236.815 56.8948C237.097 60.3141 238.183 63.5373 239.012 65.5781C239.11 65.8177 239.151 66.08 239.132 66.3412C239.113 66.6025 239.034 66.8544 238.902 67.0742C238.771 67.294 238.591 67.4746 238.379 67.5998C238.166 67.725 237.929 67.7907 237.687 67.791L218.551 67.6255C218.325 67.6256 218.101 67.5683 217.899 67.4581C217.697 67.3479 217.522 67.1879 217.387 66.9909C217.252 66.794 217.161 66.5654 217.122 66.3237C217.083 66.0819 217.097 65.8335 217.162 65.5985C218.203 61.8581 220.108 59.5657 220.275 54.702Z" fill="#0F1011"/>
<path d="M186.667 93.2187C186.667 93.2187 182.059 91.8327 181.398 90.8773C180.736 89.9219 182.345 86.7061 182.345 86.7061C182.345 86.7061 177.738 84.6597 178.18 83.8518C178.704 82.8981 184.457 86.3114 184.457 86.3114C184.457 86.3114 183.206 84.7065 183.818 84.2823C184.07 84.1063 184.397 84.2981 185.332 85.4106C186.398 86.6779 188.24 88.4764 188.24 88.4764L186.667 93.2187Z" fill="#E98862"/>
<path d="M209.589 213.146C208.871 206.592 208.871 205.917 208.871 205.696H215.685C215.685 205.673 215.685 205.645 215.685 205.609C215.709 206.157 216.052 209.494 216.357 212.273L209.589 213.146Z" fill="#E98862"/>
<path d="M236.738 214.031C236.738 214.031 236.715 206.375 236.715 205.697H243.528C243.528 206.373 243.551 214.005 243.551 214.005L236.738 214.031Z" fill="#E98862"/>
<path d="M246.606 120.709C246.606 121.758 246.096 125.265 246.917 125.516C247.409 125.666 247.99 123.051 247.99 123.051" fill="#E98862"/>
<path d="M250.483 120.158C250.483 120.158 253.164 127.239 250.106 131.307C250.028 131.41 249.923 131.486 249.805 131.524C249.687 131.562 249.561 131.56 249.443 131.519C249.326 131.478 249.223 131.399 249.147 131.293C249.072 131.188 249.028 131.06 249.02 130.926C248.872 128.183 248.362 122.55 246.695 123.208V118.785" fill="#E98862"/>
<path d="M242.563 165.972C241.905 154.925 240.768 136.394 240.21 125.521H240.302L239.342 108.025L214.659 109.678L214.405 111.555L214.319 111.527C211.425 128.165 210.192 146.565 207.846 163.323C207.682 178.851 207.636 195.101 207.076 210.591L219.081 210.813C219.043 195.681 219.388 179.861 219.799 164.705C221.681 152.824 224.324 139.64 226.446 127.889C228.365 150.782 231.226 188.287 233.347 211.49L245.31 210.393L242.563 165.972Z" fill="#262626"/>
<path d="M228.455 216.889C228.28 216.888 228.107 216.85 227.946 216.776C227.784 216.703 227.638 216.596 227.515 216.461C227.392 216.326 227.294 216.166 227.228 215.99C227.162 215.814 227.128 215.626 227.129 215.436C227.129 215.401 227.13 215.366 227.133 215.331C227.153 215.056 227.244 214.793 227.397 214.573C227.55 214.353 227.757 214.185 227.995 214.088L235.926 211.206C236.079 211.151 236.242 211.133 236.403 211.152C236.564 211.171 236.719 211.228 236.858 211.318C237.948 212.139 239.252 212.559 240.578 212.515C241.611 212.436 242.603 212.043 243.44 211.381C243.514 211.316 243.603 211.274 243.697 211.262C243.792 211.249 243.888 211.266 243.974 211.31C244.059 211.355 244.132 211.424 244.183 211.512C244.234 211.599 244.26 211.7 244.26 211.804V216.011C244.26 216.261 244.169 216.501 244.006 216.678C243.843 216.855 243.622 216.954 243.391 216.954H243.388L228.455 216.889Z" fill="#C1D8ED"/>
<path d="M201.289 216.889C201.114 216.888 200.941 216.85 200.78 216.776C200.618 216.703 200.472 216.596 200.349 216.461C200.226 216.326 200.128 216.166 200.062 215.99C199.996 215.814 199.962 215.626 199.963 215.436C199.963 215.401 199.964 215.366 199.967 215.331C199.987 215.056 200.078 214.793 200.231 214.573C200.384 214.353 200.592 214.185 200.829 214.088L208.76 211.206C208.913 211.151 209.076 211.133 209.237 211.152C209.398 211.171 209.553 211.228 209.692 211.319C210.782 212.139 212.086 212.559 213.412 212.515C214.445 212.436 215.437 212.043 216.274 211.381C216.348 211.316 216.437 211.274 216.532 211.262C216.626 211.249 216.722 211.266 216.808 211.31C216.894 211.354 216.966 211.424 217.017 211.512C217.068 211.599 217.094 211.7 217.094 211.804V216.011C217.094 216.261 217.003 216.501 216.84 216.678C216.677 216.855 216.456 216.954 216.225 216.954H216.222L201.289 216.889Z" fill="#C1D8ED"/>
<path d="M248.991 98.3764C248.955 98.1168 248.895 97.8618 248.812 97.6153L241.365 75.6435L241.32 75.6615C240.996 74.5795 240.437 73.5979 239.691 72.7994C238.208 71.1914 235.642 70.1504 232.515 70.1504C227.861 70.1504 221.505 70.1613 220.202 70.2208C216.223 70.406 214.362 72.3414 213.602 75.2L204.296 93.3272L188.157 86.8125L185.781 93.7412L204.66 101.363C205.423 101.672 206.263 101.674 207.026 101.368C207.79 101.063 208.428 100.47 208.824 99.698L214.017 89.5816C214.155 91.0196 214.258 92.433 214.272 93.7803C214.397 105.21 211.553 107.363 212.954 110.857C214.315 114.245 241.026 115.655 241.383 109.69C241.611 105.895 238.528 102.582 238.528 95.1859C238.554 93.7805 238.725 92.3826 239.039 91.0186L242.046 99.8923L244.999 121.474L251.997 120.348L248.991 98.3764Z" fill="#624DE3"/>
<path d="M147.269 193.595C159.606 193.595 169.607 182.743 169.607 169.358C169.607 155.972 159.606 145.121 147.269 145.121C134.933 145.121 124.932 155.972 124.932 169.358C124.932 182.743 134.933 193.595 147.269 193.595Z" fill="#C1D8ED"/>
<path d="M133.377 158.562C130.815 180.541 147.624 186.532 147.624 186.532C147.624 186.532 163.057 180.16 161.284 158.616C161.284 158.616 152.277 160.674 147.624 153.307C147.624 153.307 144.204 160.448 133.377 158.562Z" fill="white"/>
<path d="M152.008 167.208H151.333V165.572C151.324 164.409 150.891 163.297 150.13 162.479C149.369 161.66 148.341 161.201 147.269 161.201C146.197 161.201 145.169 161.66 144.408 162.479C143.647 163.297 143.214 164.409 143.205 165.572V167.208H142.53C142.222 167.208 141.926 167.341 141.708 167.578C141.49 167.814 141.367 168.135 141.367 168.47V176.697C141.367 177.032 141.49 177.353 141.708 177.59C141.926 177.826 142.222 177.959 142.53 177.959H152.009C152.317 177.959 152.613 177.826 152.831 177.59C153.049 177.353 153.172 177.032 153.172 176.697V168.47C153.172 168.304 153.142 168.14 153.083 167.987C153.025 167.834 152.939 167.695 152.831 167.577C152.723 167.46 152.595 167.367 152.453 167.304C152.312 167.24 152.161 167.208 152.008 167.208ZM144.526 165.572C144.534 164.788 144.826 164.039 145.34 163.488C145.853 162.937 146.547 162.628 147.269 162.628C147.991 162.628 148.685 162.937 149.198 163.488C149.712 164.039 150.004 164.788 150.012 165.572V167.208H144.526V165.572Z" fill="#32962C"/>
<path d="M119.048 90.6748C120.415 90.6748 121.523 89.4722 121.523 87.9888C121.523 86.5053 120.415 85.3027 119.048 85.3027C117.681 85.3027 116.572 86.5053 116.572 87.9888C116.572 89.4722 117.681 90.6748 119.048 90.6748Z" fill="white"/>
<path d="M126.481 90.6748C127.849 90.6748 128.957 89.4722 128.957 87.9888C128.957 86.5053 127.849 85.3027 126.481 85.3027C125.114 85.3027 124.006 86.5053 124.006 87.9888C124.006 89.4722 125.114 90.6748 126.481 90.6748Z" fill="white"/>
<path d="M133.913 90.6748C135.28 90.6748 136.389 89.4722 136.389 87.9888C136.389 86.5053 135.28 85.3027 133.913 85.3027C132.546 85.3027 131.438 86.5053 131.438 87.9888C131.438 89.4722 132.546 90.6748 133.913 90.6748Z" fill="white"/>
<path d="M141.345 90.6748C142.712 90.6748 143.82 89.4722 143.82 87.9888C143.82 86.5053 142.712 85.3027 141.345 85.3027C139.977 85.3027 138.869 86.5053 138.869 87.9888C138.869 89.4722 139.977 90.6748 141.345 90.6748Z" fill="white"/>
<path d="M148.778 90.6748C150.146 90.6748 151.254 89.4722 151.254 87.9888C151.254 86.5053 150.146 85.3027 148.778 85.3027C147.411 85.3027 146.303 86.5053 146.303 87.9888C146.303 89.4722 147.411 90.6748 148.778 90.6748Z" fill="white"/>
<path d="M156.212 90.6748C157.579 90.6748 158.687 89.4722 158.687 87.9888C158.687 86.5053 157.579 85.3027 156.212 85.3027C154.845 85.3027 153.736 86.5053 153.736 87.9888C153.736 89.4722 154.845 90.6748 156.212 90.6748Z" fill="white"/>
<path d="M163.378 90.6748C164.745 90.6748 165.853 89.4722 165.853 87.9888C165.853 86.5053 164.745 85.3027 163.378 85.3027C162.011 85.3027 160.902 86.5053 160.902 87.9888C160.902 89.4722 162.011 90.6748 163.378 90.6748Z" fill="white"/>
<path d="M119.048 119.458C120.415 119.458 121.523 118.255 121.523 116.772C121.523 115.289 120.415 114.086 119.048 114.086C117.681 114.086 116.572 115.289 116.572 116.772C116.572 118.255 117.681 119.458 119.048 119.458Z" fill="white"/>
<path d="M126.481 119.458C127.849 119.458 128.957 118.255 128.957 116.772C128.957 115.289 127.849 114.086 126.481 114.086C125.114 114.086 124.006 115.289 124.006 116.772C124.006 118.255 125.114 119.458 126.481 119.458Z" fill="white"/>
<path d="M133.913 119.458C135.28 119.458 136.389 118.255 136.389 116.772C136.389 115.289 135.28 114.086 133.913 114.086C132.546 114.086 131.438 115.289 131.438 116.772C131.438 118.255 132.546 119.458 133.913 119.458Z" fill="white"/>
<path d="M141.345 119.458C142.712 119.458 143.82 118.255 143.82 116.772C143.82 115.289 142.712 114.086 141.345 114.086C139.977 114.086 138.869 115.289 138.869 116.772C138.869 118.255 139.977 119.458 141.345 119.458Z" fill="white"/>
<path d="M148.778 119.458C150.146 119.458 151.254 118.255 151.254 116.772C151.254 115.289 150.146 114.086 148.778 114.086C147.411 114.086 146.303 115.289 146.303 116.772C146.303 118.255 147.411 119.458 148.778 119.458Z" fill="white"/>
<path d="M156.212 119.458C157.579 119.458 158.687 118.255 158.687 116.772C158.687 115.289 157.579 114.086 156.212 114.086C154.845 114.086 153.736 115.289 153.736 116.772C153.736 118.255 154.845 119.458 156.212 119.458Z" fill="white"/>
</g>
<defs>
<clipPath id="clip0_5756_8025">
<rect width="290.575" height="217" fill="white"/>
</clipPath>
</defs>
</svg>
