<svg width="456" height="441" viewBox="0 0 456 441" fill="none" xmlns="http://www.w3.org/2000/svg">
<path d="M129.094 441C57.7973 441 6.10352e-05 435.674 6.10352e-05 429.104C6.10352e-05 422.535 57.7973 417.209 129.094 417.209C200.39 417.209 258.188 422.535 258.188 429.104C258.188 435.674 200.39 441 129.094 441Z" fill="white"/>
<path opacity="0.1" d="M129.094 441C57.7973 441 6.10352e-05 435.674 6.10352e-05 429.104C6.10352e-05 422.535 57.7973 417.209 129.094 417.209C200.39 417.209 258.188 422.535 258.188 429.104C258.188 435.674 200.39 441 129.094 441Z" fill="#292A2E"/>
<path d="M343.395 252.209H384.544V264.165H343.395V252.209Z" fill="#F4F4F4"/>
<path opacity="0.05" d="M373.626 252.209H379.019V264.166H373.626V252.209Z" fill="#292A2E"/>
<path d="M348.653 254.809H371.073V261.894H348.653V254.809Z" fill="white"/>
<path d="M310.573 253.768L348.808 237.092L353.6 248.049L315.365 264.725L310.573 253.768Z" fill="#F4F4F4"/>
<path opacity="0.05" d="M310.573 253.768L348.808 237.092L353.6 248.049L315.365 264.725L310.573 253.768Z" fill="#292A2E"/>
<path d="M315.707 251.529L320.718 249.344L325.51 260.301L320.5 262.487L315.707 251.529Z" fill="white"/>
<path d="M324.133 250.689L344.964 241.604L347.804 248.096L326.973 257.182L324.133 250.689Z" fill="white"/>
<path opacity="0.05" d="M310.501 403.672H320.843V410.569H310.501V403.672Z" fill="#292A2E"/>
<path opacity="0.05" d="M416.225 403.672H426.567V410.569H416.225V403.672Z" fill="#292A2E"/>
<path d="M301.022 264.727H436.045V403.439H301.022V264.727Z" fill="#F4F4F4"/>
<path opacity="0.03" d="M301.022 264.727H436.045V403.439H301.022V264.727Z" fill="#292A2E"/>
<path d="M276.001 264.727H411.024V403.439H276.001V264.727Z" fill="#F4F4F4"/>
<path opacity="0.05" d="M285.479 403.672H295.821V410.569H285.479V403.672Z" fill="#292A2E"/>
<path opacity="0.05" d="M391.203 403.672H401.544V410.569H391.203V403.672Z" fill="#292A2E"/>
<path opacity="0.7" d="M281.069 271.223H405.955V297.872H281.069V271.223Z" fill="white"/>
<path opacity="0.7" d="M281.069 304.395H405.955V331.044H281.069V304.395Z" fill="white"/>
<path opacity="0.7" d="M281.069 337.568H405.955V364.218H281.069V337.568Z" fill="white"/>
<path opacity="0.05" d="M343.511 288.277C341.449 288.277 339.777 286.607 339.777 284.547C339.777 282.488 341.449 280.818 343.511 280.818C345.574 280.818 347.246 282.488 347.246 284.547C347.246 286.607 345.574 288.277 343.511 288.277Z" fill="#292A2E"/>
<path opacity="0.05" d="M343.511 321.45C341.449 321.45 339.777 319.781 339.777 317.721C339.777 315.662 341.449 313.992 343.511 313.992C345.574 313.992 347.246 315.662 347.246 317.721C347.246 319.781 345.574 321.45 343.511 321.45Z" fill="#292A2E"/>
<path opacity="0.05" d="M343.511 354.622C341.449 354.622 339.777 352.953 339.777 350.893C339.777 348.834 341.449 347.164 343.511 347.164C345.574 347.164 347.246 348.834 347.246 350.893C347.246 352.953 345.574 354.622 343.511 354.622Z" fill="#292A2E"/>
<path opacity="0.7" d="M281.069 371.488H405.955V398.138H281.069V371.488Z" fill="white"/>
<path opacity="0.05" d="M343.511 388.542C341.449 388.542 339.777 386.873 339.777 384.813C339.777 382.754 341.449 381.084 343.511 381.084C345.574 381.084 347.246 382.754 347.246 384.813C347.246 386.873 345.574 388.542 343.511 388.542Z" fill="#292A2E"/>
<path d="M388.115 127.047L308.275 127.047V23.2697L388.115 23.2697V127.047Z" fill="#F4F4F4"/>
<path d="M388.114 23.2695H390.704V127.047H388.114V23.2695Z" fill="#F4F4F4"/>
<path opacity="0.05" d="M388.114 23.2695H390.704V127.047H388.114V23.2695Z" fill="#292A2E"/>
<path opacity="0.05" d="M373.57 108.143H322.818V42.1738H373.57V108.143Z" fill="#292A2E"/>
<path opacity="0.03" d="M373.57 108.143H370.925V42.1738H373.57V108.143Z" fill="#292A2E"/>
<path d="M453.41 218.373H388.115V152.568H453.41V218.373Z" fill="#F4F4F4"/>
<path opacity="0.05" d="M441.516 206.385H400.009V164.555H441.516V206.385Z" fill="#292A2E"/>
<path d="M453.41 152.568H456V218.373H453.41V152.568Z" fill="#F4F4F4"/>
<path opacity="0.05" d="M453.41 152.568H456V218.373H453.41V152.568Z" fill="#292A2E"/>
<path opacity="0.03" d="M441.516 206.385H438.871V164.555H441.516V206.385Z" fill="#292A2E"/>
<path d="M55.2449 23.0234H221.858V189.406H55.2449V23.0234Z" fill="#F4F4F4"/>
<path d="M221.858 23.0234H223.768V189.406H221.858V23.0234Z" fill="#F4F4F4"/>
<path opacity="0.05" d="M221.858 23.0234H223.768V189.406H221.858V23.0234Z" fill="#292A2E"/>
<path opacity="0.05" d="M181.495 137.676V94.1445H145.787V119.435H90.4764V164.216H66.968V189.407H90.4764H95.005H213.844V137.676H181.495Z" fill="#292A2E"/>
<path opacity="0.34" d="M150.371 98.8691H176.374V103.596H150.371V98.8691Z" fill="#FFFFFA"/>
<path opacity="0.34" d="M150.371 108.664H176.374V113.39H150.371V108.664Z" fill="#FFFFFA"/>
<path opacity="0.34" d="M150.371 118.459H176.374V123.185H150.371V118.459Z" fill="#FFFFFA"/>
<path opacity="0.34" d="M204.439 142.262H209.232V146.988H204.439V142.262Z" fill="#FFFFFA"/>
<path opacity="0.34" d="M204.439 152.057H209.232V156.783H204.439V152.057Z" fill="#FFFFFA"/>
<path opacity="0.34" d="M204.439 161.85H209.232V166.576H204.439V161.85Z" fill="#FFFFFA"/>
<path opacity="0.34" d="M195.573 142.262H200.366V146.988H195.573V142.262Z" fill="#FFFFFA"/>
<path opacity="0.34" d="M195.573 152.057H200.366V156.783H195.573V152.057Z" fill="#FFFFFA"/>
<path opacity="0.34" d="M195.573 161.85H200.366V166.576H195.573V161.85Z" fill="#FFFFFA"/>
<path opacity="0.34" d="M186.946 142.262H191.739V146.988H186.946V142.262Z" fill="#FFFFFA"/>
<path opacity="0.34" d="M186.946 152.057H191.739V156.783H186.946V152.057Z" fill="#FFFFFA"/>
<path opacity="0.34" d="M186.946 161.85H191.739V166.576H186.946V161.85Z" fill="#FFFFFA"/>
<path d="M221.858 105.282H188.333V23.0234H185.56V105.282H95.0048V23.0234H92.2323V105.282H55.2449V108.05H92.2323V189.406H95.0048V108.05H185.56V189.406H188.333V108.05H221.858V105.282Z" fill="white"/>
<path d="M48.6079 189.207H228.496V194.74H48.6079V189.207Z" fill="#F4F4F4"/>
<path opacity="0.1" d="M48.6079 189.207H228.496V194.74H48.6079V189.207Z" fill="#292A2E"/>
<path opacity="0.1" d="M228.495 189.207H231.093V194.741H228.495V189.207Z" fill="#292A2E"/>
<path opacity="0.1" d="M228.495 189.207H231.093V194.741H228.495V189.207Z" fill="#292A2E"/>
<path d="M83.8159 217.709C109.323 217.709 130.001 224.658 130.001 233.23V251.709H37.63V233.23C37.63 224.658 58.308 217.709 83.8159 217.709Z" fill="#624DE3"/>
<path opacity="0.49" d="M83.8159 217.709C109.323 217.709 130.001 224.658 130.001 233.23V251.709H37.63V233.23C37.63 224.658 58.308 217.709 83.8159 217.709Z" fill="white"/>
<path opacity="0.49" d="M50.2116 233.233V251.708H130.002V233.233C130.002 225.376 112.636 218.884 90.1073 217.857C67.5758 218.884 50.2116 225.376 50.2116 233.233Z" fill="white"/>
<path d="M37.6301 431.257H36.08L37.6301 250.07L39.167 251.618L38.0712 378.182L92.7891 379.11L93.8931 251.605L95.4299 251.618L94.3254 379.136L127.357 379.697L128.466 251.605L130.002 250.084L128.452 431.257L126.929 431.244L127.344 381.232L94.3126 380.672L93.8931 431.257L92.3562 431.244L92.7758 380.646L38.0579 379.717L37.6301 431.257Z" fill="#292A2E"/>
<path d="M176.942 404.129C176.942 404.129 179.689 418.347 193.02 419.139C206.351 419.932 203.46 430.537 203.46 430.537H152.517V405.12L176.942 404.129Z" fill="#624DE3"/>
<path d="M147.877 361.365C147.877 361.365 144.057 375.334 155.669 381.921C167.28 388.509 159.998 396.75 159.998 396.75L114.287 374.293L125.522 351.486L147.877 361.365Z" fill="#624DE3"/>
<path d="M152.714 370.597L187.157 240.818C189.77 226.481 185.837 220.266 179.776 214.229C169.128 203.623 125.005 181.049 125.005 181.049L72.0711 180.904C58.0347 180.904 44.2375 194.725 44.2375 208.741C44.2375 222.757 58.506 234.644 72.5419 234.644L137.725 241.141L120.056 359.971L152.714 370.597Z" fill="#262626"/>
<path d="M120.056 359.969L127.012 313.188L162.253 334.655L152.714 370.597L120.056 359.969Z" fill="#0C0C0C"/>
<path d="M112.068 207.311C112.068 207.311 134.32 212.263 156.358 234.27C169.72 247.613 168.624 271.76 166.619 318.202L144.731 285.917L120.724 242.678L112.068 207.311Z" fill="#0C0C0C"/>
<path d="M35.0226 180.89L70.9711 180.721L70.9845 181.193H81.8699C81.8699 181.193 109.137 206.248 131.088 222.036C147.056 233.52 156.797 244.469 157.64 256.402C159.695 285.49 182.869 409.548 182.869 409.548L147.992 414.821L117.385 266.563C117.385 266.563 69.5281 244.529 58.4583 236.863C48.0345 229.644 40.6715 226.852 37.2218 218.973C31.2645 205.365 35.0226 180.89 35.0226 180.89Z" fill="#262626"/>
<path d="M75.3525 189.932L133.67 190.703L100.957 210.215L73.7363 196.178C73.0804 195.826 72.5618 195.265 72.2633 194.584C71.9648 193.903 71.9038 193.141 72.0901 192.421C72.2763 191.702 72.6991 191.065 73.2906 190.614C73.8821 190.162 74.6082 189.922 75.3525 189.932Z" fill="#292A2E"/>
<path opacity="0.2" d="M75.3525 189.932L133.67 190.703L100.957 210.215L73.7363 196.178C73.0804 195.826 72.5618 195.265 72.2633 194.584C71.9648 193.903 71.9038 193.141 72.0901 192.421C72.2763 191.702 72.6991 191.065 73.2906 190.614C73.8821 190.162 74.6082 189.922 75.3525 189.932Z" fill="white"/>
<path d="M133.336 85.4531L149.832 138.826L182.871 182.023L163.571 204.148L124.264 160.338C122.453 158.908 121.037 157.042 120.148 154.915L119.536 153.435L96.8318 98.5774L133.336 85.4531Z" fill="#624DE3"/>
<path d="M107.926 28.7995C107.926 28.7995 114.573 23.7862 116.219 12.2554C117.495 3.32701 109.247 9.11131 109.247 9.11131C109.247 9.11131 110.102 2.67323 105.405 3.31218C100.707 3.95112 98.0793 10.7141 98.0793 10.7141" fill="#0C0C0C"/>
<path d="M81.1279 4.06641C81.1279 4.06641 57.8224 6.56132 66.2473 38.0985L68.3092 38.2366L72.4955 38.5169" fill="#0C0C0C"/>
<path d="M104.022 71.0354C103.92 71.0221 102.783 89.8611 80.8673 88.2205C65.6932 87.0853 60.283 71.0088 59.9357 71.0088C61.5714 70.6614 63.5934 70.1345 64.3966 69.9539C66.1478 69.5481 67.7338 68.6194 68.9436 67.2915C70.1534 65.9635 70.9296 64.2991 71.1689 62.5198C71.6126 59.8494 70.8616 46.1865 71.0916 43.4844L94.3807 48.6758C94.0549 54.3828 91.7773 67.6125 99.7596 69.9539C101.089 70.3407 102.52 70.6988 104.022 71.0354Z" fill="#E98862"/>
<path opacity="0.52" d="M94.707 64.5445C94.3423 63.3703 94.1072 62.1597 94.0062 60.9344C93.7506 58.1384 93.8021 55.3228 94.1599 52.538C89.4257 51.901 84.9654 49.9505 81.2859 46.9082C80.853 48.5033 78.4745 55.4729 79.1343 56.9861C80.3781 59.8509 86.2278 64.5445 94.707 64.5445Z" fill="#0C0C0C"/>
<path d="M89.8997 60.8163C80.711 59.9932 69.713 54.1956 69.5542 41.7394L69.4112 30.5003C69.2524 18.0446 75.6754 7.86391 87.4193 7.71453C99.1632 7.56567 108.07 17.5515 108.229 30.0077L108.292 34.9832C108.284 36.692 108.159 38.3983 107.919 40.0902C107.317 44.5664 106.382 51.3718 103.34 55.9754C100.468 60.3217 95.7704 61.3417 89.8997 60.8163Z" fill="#E98862"/>
<path opacity="0.52" d="M94.1624 49.4325C96.0589 49.5183 97.9491 49.1578 99.6805 48.3801C99.7512 48.3482 99.8066 48.2899 99.8347 48.2178C99.8629 48.1456 99.8616 48.0653 99.8312 47.994C99.8008 47.9228 99.7436 47.8663 99.672 47.8366C99.6004 47.8069 99.5199 47.8064 99.448 47.8353C95.7178 49.4238 92.3308 49.1915 89.6535 47.163C89.5996 47.1204 89.5435 47.0806 89.4854 47.0438C89.4181 47.0122 89.3413 47.007 89.2703 47.0292C89.1993 47.0515 89.1393 47.0996 89.1021 47.164C89.065 47.2284 89.0534 47.3044 89.0698 47.3769C89.0861 47.4494 89.1292 47.5131 89.1903 47.5554C89.2119 47.5687 89.2467 47.5958 89.2928 47.6327C90.7003 48.7034 92.396 49.3301 94.1624 49.4325Z" fill="#0C0C0C"/>
<path opacity="0.52" d="M94.0762 52.237C94.4189 52.2581 94.7627 52.2499 95.1039 52.2124C95.1426 52.2084 95.1801 52.1967 95.2142 52.1781C95.2484 52.1595 95.2786 52.1344 95.3031 52.1042C95.3275 52.074 95.3458 52.0393 95.3568 52.002C95.3678 51.9648 95.3713 51.9257 95.3672 51.8871C95.3631 51.8484 95.3514 51.811 95.3328 51.7769C95.3143 51.7427 95.2891 51.7126 95.2589 51.6882C95.2286 51.6638 95.1938 51.6455 95.1565 51.6346C95.1192 51.6236 95.0801 51.62 95.0414 51.6241C92.9891 51.8415 92.009 50.9027 91.9675 50.8623C91.912 50.8068 91.8367 50.7755 91.7581 50.7754C91.6795 50.7753 91.6041 50.8064 91.5485 50.8618C91.4928 50.9172 91.4615 50.9925 91.4614 51.0709C91.4613 51.1494 91.4925 51.2247 91.548 51.2803C92.2547 51.8813 93.1481 52.2194 94.0762 52.237Z" fill="#0C0C0C"/>
<path d="M104.351 37.3798C103.552 37.3798 102.904 36.7329 102.904 35.935C102.904 35.1371 103.552 34.4902 104.351 34.4902C105.15 34.4902 105.797 35.1371 105.797 35.935C105.797 36.7329 105.15 37.3798 104.351 37.3798Z" fill="#0C0C0C"/>
<path d="M90.2173 36.495C89.4183 36.495 88.7705 35.8482 88.7705 35.0502C88.7705 34.2523 89.4183 33.6055 90.2173 33.6055C91.0163 33.6055 91.6641 34.2523 91.6641 35.0502C91.6641 35.8482 91.0163 36.495 90.2173 36.495Z" fill="#0C0C0C"/>
<path d="M70.3317 45.5303C66.7624 45.5759 63.8207 41.7992 63.7741 38.2348C63.7274 34.6705 66.5974 32.6681 70.1667 32.623L72.0361 34.9877L73.3994 45.4915L70.3317 45.5303Z" fill="#E98862"/>
<path d="M73.8828 39.7991C73.8828 39.7991 75.0877 22.1741 80.44 21.0855C84.0044 20.3606 92.6481 25.4097 100.654 23.8848C104.157 23.2197 107.482 24.0832 107.82 25.7356C107.954 26.3899 110.136 16.9878 104.651 9.85448C100.284 4.17608 85.9931 2.56975 79.4913 4.43186C61.4878 9.58949 69.4322 33.3953 69.4322 33.3953L70.2349 39.4717L73.8828 39.7991Z" fill="#0C0C0C"/>
<g opacity="0.52">
<path opacity="0.52" d="M96.3204 45.2742C96.3279 45.2747 96.3355 45.2747 96.343 45.2742C97.4931 45.2629 99.4215 45.1151 99.4138 44.2561C99.4056 43.544 97.3769 35.8786 97.1453 35.0068C97.1254 34.9318 97.0764 34.8677 97.0092 34.8287C96.942 34.7897 96.862 34.7789 96.7869 34.7988C96.7118 34.8187 96.6476 34.8676 96.6086 34.9347C96.5695 35.0018 96.5588 35.0817 96.5787 35.1567C97.4803 38.5517 98.8226 43.7783 98.8277 44.2633C98.7165 44.4679 97.5285 44.6787 96.3379 44.691C96.2627 44.6926 96.1911 44.7229 96.1378 44.7757C96.0844 44.8286 96.0534 44.8998 96.0512 44.9748C96.049 45.0498 96.0757 45.1228 96.1258 45.1787C96.1759 45.2346 96.2456 45.2692 96.3204 45.2752V45.2742Z" fill="#0C0C0C"/>
</g>
<path d="M100.244 28.1008C101.453 27.7685 102.729 27.7685 103.938 28.1008C104.532 28.2602 105.098 28.5079 105.618 28.8354C106.132 29.1562 106.604 29.5405 107.021 29.9794C107.099 30.0575 107.142 30.1624 107.144 30.272C107.146 30.3817 107.105 30.4878 107.03 30.5681C106.955 30.6485 106.853 30.6971 106.743 30.7037C106.633 30.7103 106.525 30.6744 106.442 30.6035L106.415 30.581C106.029 30.2233 105.598 29.9158 105.135 29.6658C104.68 29.4169 104.19 29.2382 103.681 29.1357C102.68 28.9262 101.642 28.9842 100.67 29.3041L100.63 29.3184C100.471 29.3696 100.298 29.3568 100.149 29.2828C99.9989 29.2088 99.884 29.0794 99.8284 28.9222C99.7727 28.7649 99.7807 28.5922 99.8506 28.4407C99.9205 28.2892 100.047 28.1709 100.203 28.111L100.244 28.1008Z" fill="#0C0C0C"/>
<path d="M91.6854 28.8278C90.7654 28.3815 89.7437 28.1857 88.7237 28.2604C88.2062 28.294 87.6968 28.4058 87.2129 28.5919C86.7206 28.7784 86.2536 29.026 85.823 29.3287L85.7953 29.3471C85.7029 29.4066 85.591 29.4281 85.483 29.4072C85.375 29.3863 85.2792 29.3246 85.2157 29.2349C85.1522 29.1452 85.1259 29.0345 85.1421 28.9258C85.1584 28.8172 85.216 28.719 85.303 28.6518C85.7755 28.2725 86.2942 27.9543 86.8466 27.7048C87.4058 27.4495 88.0002 27.2794 88.61 27.2004C89.8522 27.0313 91.1171 27.2005 92.271 27.69C92.3483 27.7236 92.4183 27.7721 92.4769 27.8327C92.5355 27.8933 92.5816 27.9648 92.6125 28.0432C92.6434 28.1216 92.6586 28.2053 92.6571 28.2895C92.6557 28.3737 92.6376 28.4569 92.6039 28.5341C92.536 28.6902 92.4088 28.8129 92.2503 28.8752C92.1718 28.9061 92.088 28.9212 92.0036 28.9198C91.9193 28.9183 91.836 28.9003 91.7586 28.8667L91.7228 28.8498L91.6854 28.8278Z" fill="#0C0C0C"/>
<path d="M92.2715 9.93414C91.4591 6.05124 92.9421 2.45669 95.5839 1.90551C98.2256 1.35434 101.026 4.05525 101.838 7.93815C102.651 11.821 101.168 15.4156 98.5257 15.9667C95.884 16.5179 93.0838 13.817 92.2715 9.93414Z" fill="#0C0C0C"/>
<path d="M131.254 112.442C130.564 120.542 125.671 171.073 125.005 181.05H35.062C34.5451 172.052 32.225 132.707 30.265 115.109C28.3942 98.318 25.7724 90.6772 27.927 85.4597C31.7271 76.2566 43.823 72.1472 52.0138 71.0397C57.0156 70.3634 64.5385 69.8789 64.5385 69.8789C64.5385 69.8789 65.1752 82.7464 80.3632 83.4626C101.039 84.4346 99.6576 69.8789 99.76 69.8789C103.11 69.8789 121.341 72.3114 125.901 75.2785C132.339 79.4693 134.242 85.1809 134.318 90.4281C134.404 96.4712 132.036 103.255 131.254 112.442Z" fill="#624DE3"/>
<path d="M126.694 161.135C126.758 161.135 126.82 161.111 126.867 161.068C126.915 161.025 126.944 160.966 126.95 160.902L130.357 121.982C130.363 121.914 130.342 121.847 130.299 121.795C130.255 121.743 130.193 121.71 130.125 121.704C130.091 121.701 130.057 121.704 130.025 121.714C129.993 121.724 129.963 121.74 129.937 121.762C129.911 121.784 129.89 121.811 129.874 121.841C129.859 121.871 129.85 121.904 129.847 121.937L126.44 160.857C126.434 160.925 126.455 160.992 126.499 161.044C126.542 161.096 126.605 161.128 126.672 161.134C126.679 161.135 126.686 161.135 126.694 161.135Z" fill="#0C0C0C"/>
<path d="M120.172 183.744L107.822 173.738L109.9 174.325C110.575 174.501 111.291 174.414 111.904 174.083C112.518 173.752 112.982 173.201 113.204 172.54C113.307 172.196 113.338 171.834 113.296 171.477C113.254 171.12 113.14 170.775 112.96 170.463C112.78 170.152 112.538 169.88 112.25 169.665C111.961 169.45 111.632 169.296 111.282 169.212L85.3369 162.91L83.1044 171.163C82.4108 173.726 82.4995 176.437 83.3591 178.95C84.2187 181.462 85.81 183.661 87.929 185.264L97.5424 192.509C98.0345 192.895 98.6448 193.099 99.2702 193.087C99.8956 193.075 100.498 192.848 100.975 192.443C101.398 192.069 101.691 191.569 101.809 191.017C101.928 190.465 101.866 189.889 101.634 189.374C101.676 189.362 101.713 189.338 101.743 189.307C101.768 189.276 101.786 189.239 101.794 189.199C101.803 189.16 101.801 189.119 101.789 189.08L103.56 190.419C104.107 190.851 104.798 191.059 105.493 191.001C106.188 190.944 106.835 190.625 107.303 190.109C107.706 189.633 107.927 189.031 107.929 188.408C107.931 187.786 107.713 187.183 107.313 186.705C107.341 186.701 107.368 186.691 107.392 186.678L108.12 187.228C108.612 187.614 109.222 187.818 109.848 187.806C110.473 187.794 111.075 187.567 111.552 187.163C112.066 186.708 112.383 186.073 112.438 185.391C112.493 184.708 112.281 184.03 111.846 183.5C111.857 183.485 111.865 183.469 111.872 183.453L117.015 187.619C117.27 187.826 117.563 187.98 117.878 188.074C118.193 188.167 118.523 188.198 118.849 188.164C119.176 188.13 119.492 188.032 119.781 187.876C120.07 187.719 120.325 187.508 120.532 187.253C120.738 186.999 120.893 186.706 120.987 186.392C121.08 186.077 121.111 185.748 121.077 185.422C121.043 185.096 120.945 184.779 120.788 184.491C120.632 184.203 120.42 183.948 120.165 183.742L120.172 183.744Z" fill="#E98862"/>
<path opacity="0.2" d="M111.564 183.602C111.537 183.592 111.512 183.578 111.49 183.559L106.541 179.453C106.516 179.433 106.495 179.407 106.48 179.378C106.464 179.349 106.455 179.317 106.452 179.285C106.449 179.252 106.453 179.22 106.462 179.188C106.472 179.157 106.488 179.128 106.509 179.103C106.53 179.078 106.555 179.057 106.584 179.042C106.613 179.027 106.645 179.018 106.677 179.015C106.71 179.012 106.743 179.015 106.774 179.025C106.805 179.035 106.834 179.05 106.859 179.071L111.808 183.176C111.853 183.214 111.883 183.266 111.893 183.323C111.904 183.381 111.894 183.44 111.865 183.491C111.836 183.542 111.79 183.581 111.735 183.601C111.68 183.621 111.62 183.621 111.564 183.602Z" fill="#0A0A0A"/>
<path opacity="0.2" d="M107.203 186.703C107.177 186.693 107.152 186.679 107.13 186.661L103.216 183.465C103.164 183.423 103.132 183.363 103.125 183.297C103.119 183.231 103.138 183.166 103.18 183.115C103.222 183.064 103.282 183.031 103.348 183.025C103.414 183.018 103.48 183.038 103.531 183.08L107.445 186.276C107.491 186.313 107.522 186.365 107.533 186.423C107.544 186.481 107.534 186.54 107.505 186.591C107.476 186.642 107.43 186.682 107.375 186.702C107.319 186.722 107.259 186.723 107.203 186.703Z" fill="#0A0A0A"/>
<path opacity="0.2" d="M101.474 189.383C101.446 189.372 101.419 189.357 101.396 189.337L99.5827 187.785C99.5579 187.763 99.5375 187.737 99.5228 187.708C99.508 187.679 99.4991 187.648 99.4966 187.615C99.4941 187.582 99.4981 187.55 99.5082 187.519C99.5184 187.488 99.5345 187.459 99.5558 187.434C99.577 187.41 99.603 187.389 99.6321 187.375C99.6612 187.36 99.693 187.351 99.7256 187.348C99.7581 187.346 99.7909 187.35 99.8219 187.36C99.853 187.37 99.8817 187.386 99.9065 187.407L101.72 188.96C101.764 188.998 101.793 189.05 101.803 189.107C101.813 189.165 101.802 189.223 101.773 189.273C101.744 189.324 101.698 189.362 101.643 189.382C101.589 189.402 101.529 189.402 101.474 189.383Z" fill="#0A0A0A"/>
<path d="M11.0198 159.235L11.1145 158.815L27.5315 86.3047L60.0098 93.6365L47.1963 150.236L98.5254 162.831L92.2085 191.754L23.8062 178.726C23.6525 178.695 23.4245 178.649 23.2688 178.614C21.1903 178.145 19.2247 177.271 17.4843 176.044C15.7438 174.816 14.2626 173.258 13.1251 171.458C11.9877 169.659 11.2163 167.653 10.8551 165.556C10.4939 163.459 10.5498 161.311 11.0198 159.235Z" fill="#624DE3"/>
<path d="M98.7765 162.886C98.7901 162.821 98.778 162.753 98.7426 162.697C98.7073 162.641 98.6515 162.601 98.587 162.585L47.4863 150.052L55.7949 113.405C55.8043 113.371 55.8068 113.337 55.8022 113.302C55.7976 113.268 55.7861 113.235 55.7683 113.205C55.7505 113.175 55.7269 113.149 55.6988 113.129C55.6708 113.109 55.6388 113.094 55.6049 113.086C55.5711 113.079 55.5361 113.078 55.5019 113.084C55.4678 113.091 55.4353 113.104 55.4064 113.123C55.3775 113.142 55.3528 113.167 55.3338 113.196C55.3148 113.225 55.3019 113.258 55.296 113.292L46.9315 150.183C46.9161 150.249 46.9272 150.318 46.9625 150.376C46.9978 150.433 47.0544 150.474 47.12 150.49L98.2243 163.024C98.2243 163.024 97.8821 164.516 97.7853 165.019C97.7777 165.085 97.7964 165.15 97.8375 165.202C97.8785 165.254 97.9384 165.287 98.004 165.295C98.0697 165.302 98.1356 165.284 98.1874 165.243C98.2392 165.202 98.2725 165.142 98.2801 165.076C98.398 164.524 98.7765 162.886 98.7765 162.886Z" fill="#0C0C0C"/>
<path d="M96.7735 203.273L116.509 142.692C116.856 141.627 117.531 140.699 118.438 140.041C119.345 139.383 120.437 139.029 121.558 139.029H201.962C202.8 139.029 203.626 139.227 204.373 139.607C205.12 139.987 205.766 140.539 206.258 141.216C206.751 141.893 207.076 142.677 207.207 143.504C207.338 144.33 207.271 145.176 207.011 145.972L187.275 206.554C186.929 207.618 186.253 208.546 185.346 209.204C184.439 209.862 183.347 210.216 182.226 210.216H101.823C100.985 210.216 100.159 210.018 99.412 209.638C98.6653 209.258 98.0192 208.707 97.5267 208.029C97.0342 207.352 96.7092 206.568 96.5783 205.741C96.4474 204.915 96.5143 204.069 96.7735 203.273Z" fill="#292A2E"/>
<path opacity="0.2" d="M96.7735 203.273L116.509 142.692C116.856 141.627 117.531 140.699 118.438 140.041C119.345 139.383 120.437 139.029 121.558 139.029H201.962C202.8 139.029 203.626 139.227 204.373 139.607C205.12 139.987 205.766 140.539 206.258 141.216C206.751 141.893 207.076 142.677 207.207 143.504C207.338 144.33 207.271 145.176 207.011 145.972L187.275 206.554C186.929 207.618 186.253 208.546 185.346 209.204C184.439 209.862 183.347 210.216 182.226 210.216H101.823C100.985 210.216 100.159 210.018 99.412 209.638C98.6653 209.258 98.0192 208.707 97.5267 208.029C97.0342 207.352 96.7092 206.568 96.5783 205.741C96.4474 204.915 96.5143 204.069 96.7735 203.273Z" fill="white"/>
<path d="M154.209 183.043C149.551 183.043 145.776 179.273 145.776 174.622C145.776 169.971 149.551 166.201 154.209 166.201C158.866 166.201 162.641 169.971 162.641 174.622C162.641 179.273 158.866 183.043 154.209 183.043Z" fill="white"/>
<path d="M233.592 6.40234H393.173C400.566 6.40234 406.559 12.3873 406.559 19.7701V213.23C406.559 220.613 400.566 226.598 393.173 226.598H233.592C226.199 226.598 220.205 220.613 220.205 213.23V19.7701C220.205 12.3873 226.199 6.40234 233.592 6.40234Z" fill="#292A2E"/>
<path d="M227.693 0.511719H387.274C394.667 0.511719 400.661 6.49668 400.661 13.8795V207.339C400.661 214.722 394.667 220.707 387.274 220.707H227.693C220.3 220.707 214.307 214.722 214.307 207.339V13.8795C214.307 6.49668 220.3 0.511719 227.693 0.511719Z" fill="white"/>
<path d="M227.693 221.218H387.274C390.959 221.214 394.492 219.751 397.098 217.149C399.703 214.546 401.169 211.018 401.173 207.339V13.8794C401.169 10.1996 399.703 6.67166 397.098 4.06966C394.492 1.46765 390.959 0.00406218 387.274 0L227.693 0C224.008 0.00419756 220.476 1.46785 217.87 4.06984C215.265 6.67182 213.799 10.1997 213.795 13.8794V207.339C213.799 211.018 215.265 214.546 217.87 217.148C220.476 219.751 224.008 221.214 227.693 221.218ZM387.274 1.02314C390.688 1.02693 393.96 2.38264 396.373 4.79282C398.787 7.20301 400.145 10.4708 400.148 13.8794V207.339C400.145 210.747 398.787 214.015 396.373 216.425C393.96 218.835 390.688 220.191 387.274 220.195H227.693C224.28 220.191 221.008 218.835 218.594 216.425C216.181 214.015 214.823 210.747 214.82 207.339V13.8794C214.823 10.4709 216.181 7.20306 218.594 4.79285C221.008 2.38265 224.28 1.02693 227.693 1.02314H387.274Z" fill="#292A2E"/>
<path d="M402.81 248.388C384.455 248.388 369.575 233.529 369.575 215.199C369.575 196.869 384.455 182.01 402.81 182.01C421.165 182.01 436.045 196.869 436.045 215.199C436.045 233.529 421.165 248.388 402.81 248.388Z" fill="#292A2E"/>
<path d="M409.71 210.868C410.147 210.868 410.567 210.695 410.876 210.386C411.186 210.077 411.359 209.658 411.36 209.221V201.245C411.36 196.835 407.524 193.246 402.81 193.246C398.096 193.246 394.261 196.835 394.261 201.245V208.673C394.257 208.892 394.297 209.11 394.378 209.313C394.459 209.516 394.58 209.701 394.734 209.857C394.887 210.013 395.07 210.137 395.272 210.222C395.475 210.307 395.691 210.35 395.911 210.35C396.13 210.35 396.347 210.307 396.549 210.222C396.751 210.137 396.934 210.013 397.088 209.857C397.241 209.701 397.362 209.516 397.443 209.313C397.524 209.11 397.564 208.892 397.56 208.673V201.245C397.56 198.651 399.917 196.541 402.81 196.541C405.704 196.541 408.06 198.651 408.06 201.245V209.222C408.06 209.659 408.234 210.077 408.544 210.386C408.853 210.695 409.272 210.868 409.71 210.868Z" fill="white"/>
<path d="M392.285 207.842H413.336C414.563 207.842 415.558 208.836 415.558 210.061V229.862C415.558 231.088 414.563 232.082 413.336 232.082H392.285C391.057 232.082 390.062 231.088 390.062 229.862V210.061C390.062 208.836 391.057 207.842 392.285 207.842Z" fill="white"/>
<path d="M404.906 218.002C404.906 218.395 404.796 218.78 404.588 219.113C404.379 219.446 404.081 219.714 403.728 219.886V223.102C403.728 223.344 403.631 223.577 403.46 223.748C403.288 223.92 403.055 224.016 402.813 224.016C402.57 224.016 402.337 223.92 402.166 223.748C401.994 223.577 401.898 223.344 401.898 223.102V219.886C401.561 219.723 401.274 219.473 401.067 219.161C400.86 218.85 400.74 218.489 400.72 218.116C400.7 217.743 400.78 217.371 400.952 217.039C401.125 216.708 401.383 216.428 401.7 216.229C402.017 216.031 402.382 215.921 402.756 215.911C403.13 215.901 403.5 215.991 403.828 216.172C404.155 216.353 404.428 216.618 404.618 216.94C404.808 217.262 404.909 217.629 404.909 218.002H404.906Z" fill="#292A2E"/>
<path d="M241.629 110.379H373.339C376.483 110.379 379.032 112.924 379.032 116.064V134.503C379.032 137.643 376.483 140.188 373.339 140.188H241.629C238.485 140.188 235.936 137.643 235.936 134.503V116.064C235.936 112.924 238.485 110.379 241.629 110.379Z" fill="white"/>
<path d="M241.629 140.699H373.339C374.984 140.697 376.561 140.044 377.725 138.882C378.888 137.721 379.542 136.146 379.544 134.503V116.064C379.542 114.421 378.888 112.846 377.725 111.685C376.561 110.523 374.984 109.869 373.339 109.867H241.629C239.984 109.869 238.407 110.523 237.243 111.684C236.08 112.846 235.426 114.421 235.424 116.064V134.503C235.426 136.146 236.08 137.721 237.243 138.883C238.407 140.044 239.984 140.698 241.629 140.699ZM373.339 110.89C374.713 110.892 376.03 111.437 377.001 112.407C377.972 113.377 378.518 114.693 378.52 116.064V134.503C378.518 135.874 377.972 137.189 377.001 138.159C376.029 139.129 374.713 139.675 373.339 139.676H241.629C240.256 139.675 238.939 139.129 237.968 138.159C236.996 137.189 236.45 135.874 236.448 134.503V116.064C236.45 114.693 236.996 113.377 237.967 112.407C238.939 111.437 240.256 110.892 241.629 110.89H373.339Z" fill="#292A2E"/>
<path d="M241.629 152.98H373.339C376.483 152.98 379.032 155.526 379.032 158.666V177.105C379.032 180.244 376.483 182.79 373.339 182.79H241.629C238.485 182.79 235.936 180.244 235.936 177.105V158.666C235.936 155.526 238.485 152.98 241.629 152.98Z" fill="white"/>
<path d="M241.629 183.3H373.339C374.984 183.299 376.562 182.645 377.725 181.483C378.889 180.321 379.543 178.745 379.544 177.102V158.665C379.542 157.023 378.888 155.447 377.725 154.286C376.561 153.124 374.984 152.471 373.339 152.469H241.629C239.984 152.471 238.407 153.124 237.243 154.286C236.08 155.447 235.426 157.022 235.424 158.665V177.102C235.425 178.746 236.08 180.321 237.243 181.483C238.406 182.645 239.984 183.299 241.629 183.3ZM373.339 153.492C374.713 153.493 376.029 154.039 377.001 155.009C377.972 155.979 378.518 157.294 378.52 158.665V177.102C378.518 178.474 377.972 179.789 377.001 180.759C376.029 181.729 374.713 182.274 373.339 182.276H241.629C240.256 182.274 238.939 181.729 237.968 180.759C236.996 179.789 236.45 178.474 236.448 177.102V158.665C236.45 157.294 236.996 155.979 237.968 155.009C238.939 154.039 240.256 153.493 241.629 153.492H373.339Z" fill="#292A2E"/>
<path d="M307.484 88.2079C290.595 88.2079 276.904 74.5358 276.904 57.6704C276.904 40.8049 290.595 27.1328 307.484 27.1328C324.373 27.1328 338.064 40.8049 338.064 57.6704C338.064 74.5358 324.373 88.2079 307.484 88.2079Z" fill="white"/>
<path d="M307.484 88.7194C313.633 88.7194 319.645 86.8984 324.758 83.4866C329.871 80.0749 333.856 75.2257 336.209 69.5522C338.563 63.8787 339.178 57.6358 337.979 51.6128C336.779 45.5899 333.818 40.0575 329.469 35.7152C325.121 31.3729 319.581 28.4157 313.55 27.2177C307.519 26.0197 301.267 26.6345 295.586 28.9846C289.904 31.3346 285.048 35.3143 281.632 40.4203C278.215 45.5263 276.392 51.5293 276.392 57.6702C276.401 65.9021 279.68 73.7943 285.509 79.6151C291.338 85.436 299.241 88.7101 307.484 88.7194ZM307.484 27.6442C313.431 27.6442 319.244 29.4052 324.189 32.7045C329.133 36.0038 332.987 40.6933 335.263 46.1798C337.539 51.6663 338.134 57.7035 336.974 63.528C335.814 69.3525 332.95 74.7026 328.745 78.9018C324.54 83.101 319.182 85.9607 313.35 87.1193C307.517 88.2778 301.472 87.6832 295.978 85.4106C290.484 83.138 285.788 79.2895 282.484 74.3518C279.18 69.414 277.416 63.6088 277.416 57.6702C277.425 49.7096 280.596 42.0775 286.233 36.4485C291.87 30.8195 299.512 27.6532 307.484 27.6442Z" fill="#292A2E"/>
<path opacity="0.5" d="M277.584 57.6705C277.575 64.7386 280.086 71.5791 284.668 76.9663C287.491 73.6808 290.991 71.0437 294.929 69.236C298.868 67.4284 303.152 66.4928 307.486 66.4936C311.821 66.4944 316.104 67.4315 320.042 69.2406C323.98 71.0496 327.479 73.688 330.3 76.9745C333.411 73.3073 335.59 68.9444 336.652 64.2563C337.713 59.5682 337.626 54.6935 336.397 50.0464C335.168 45.3993 332.833 41.1171 329.592 37.5637C326.351 34.0103 322.299 31.2907 317.78 29.636C313.262 27.9813 308.409 27.4403 303.636 28.059C298.863 28.6778 294.31 30.4379 290.364 33.19C286.418 35.9421 283.196 39.6047 280.971 43.8667C278.746 48.1287 277.584 52.864 277.584 57.6705Z" fill="#32962C"/>
<path d="M284.668 76.9668C287.475 80.2763 290.97 82.9357 294.909 84.7599C298.849 86.5841 303.14 87.5295 307.482 87.5303C311.825 87.5311 316.116 86.5872 320.056 84.7644C323.997 82.9416 327.492 80.2835 330.3 76.975C327.479 73.6885 323.98 71.0502 320.042 69.2411C316.104 67.432 311.821 66.4949 307.486 66.4941C303.152 66.4934 298.868 67.4289 294.929 69.2366C290.991 71.0443 287.491 73.6813 284.668 76.9668Z" fill="white"/>
<path d="M307.484 60.9221C300.809 60.9221 295.398 55.5184 295.398 48.8526C295.398 42.1869 300.809 36.7832 307.484 36.7832C314.159 36.7832 319.57 42.1869 319.57 48.8526C319.57 55.5184 314.159 60.9221 307.484 60.9221Z" fill="white"/>
<g opacity="0.4">
<path opacity="0.4" d="M367.945 171.517C365.937 171.517 364.31 169.891 364.31 167.886C364.31 165.881 365.937 164.256 367.945 164.256C369.953 164.256 371.58 165.881 371.58 167.886C371.58 169.891 369.953 171.517 367.945 171.517Z" fill="#292A2E"/>
<path opacity="0.4" d="M356.574 171.517C354.566 171.517 352.938 169.891 352.938 167.886C352.938 165.881 354.566 164.256 356.574 164.256C358.582 164.256 360.209 165.881 360.209 167.886C360.209 169.891 358.582 171.517 356.574 171.517Z" fill="#292A2E"/>
<path opacity="0.4" d="M345.203 171.517C343.195 171.517 341.568 169.891 341.568 167.886C341.568 165.881 343.195 164.256 345.203 164.256C347.211 164.256 348.838 165.881 348.838 167.886C348.838 169.891 347.211 171.517 345.203 171.517Z" fill="#292A2E"/>
<path opacity="0.4" d="M333.832 171.517C331.824 171.517 330.197 169.891 330.197 167.886C330.197 165.881 331.824 164.256 333.832 164.256C335.84 164.256 337.467 165.881 337.467 167.886C337.467 169.891 335.84 171.517 333.832 171.517Z" fill="#292A2E"/>
<path opacity="0.4" d="M322.461 171.517C320.454 171.517 318.826 169.891 318.826 167.886C318.826 165.881 320.454 164.256 322.461 164.256C324.469 164.256 326.097 165.881 326.097 167.886C326.097 169.891 324.469 171.517 322.461 171.517Z" fill="#292A2E"/>
<path opacity="0.4" d="M311.09 171.517C309.083 171.517 307.455 169.891 307.455 167.886C307.455 165.881 309.083 164.256 311.09 164.256C313.098 164.256 314.726 165.881 314.726 167.886C314.726 169.891 313.098 171.517 311.09 171.517Z" fill="#292A2E"/>
<path opacity="0.4" d="M299.719 171.517C297.712 171.517 296.084 169.891 296.084 167.886C296.084 165.881 297.712 164.256 299.719 164.256C301.727 164.256 303.355 165.881 303.355 167.886C303.355 169.891 301.727 171.517 299.719 171.517Z" fill="#292A2E"/>
</g>
<g opacity="0.3">
<path opacity="0.3" d="M364.339 125.066V126.294H369.008V125.066H364.339Z" fill="black"/>
<path opacity="0.3" d="M358.538 125.066V126.294H363.207V125.066H358.538Z" fill="black"/>
<path opacity="0.3" d="M352.737 125.066V126.294H357.406V125.066H352.737Z" fill="black"/>
<path opacity="0.3" d="M346.936 125.066V126.294H351.604V125.066H346.936Z" fill="black"/>
<path opacity="0.3" d="M341.134 125.066V126.294H345.803V125.066H341.134Z" fill="black"/>
<path opacity="0.3" d="M330.664 131.995C331.702 132.527 332.859 132.788 334.026 132.751C337.126 132.751 339.754 130.486 339.754 126.862C339.754 122.974 337.05 119.613 332.855 119.613C329.565 119.613 327.354 121.916 327.354 125.069C327.354 127.9 328.942 129.561 330.719 129.561C331.474 129.561 332.174 129.049 332.117 127.9H332.193C332.438 128.398 332.817 128.817 333.288 129.111C333.758 129.404 334.302 129.56 334.857 129.561C335.954 129.561 336.899 128.674 336.899 127.183C336.901 126.595 336.786 126.012 336.562 125.468C336.338 124.925 336.008 124.431 335.591 124.015C335.175 123.599 334.68 123.269 334.136 123.045C333.591 122.821 333.008 122.707 332.419 122.709C331.724 122.699 331.035 122.834 330.396 123.105L331.039 126.522C331.322 127.954 331.095 128.62 330.472 128.636C329.508 128.655 328.43 127.371 328.43 125.182C328.43 122.445 330.075 120.482 333.005 120.482C336.086 120.482 338.675 122.917 338.675 126.749C338.675 129.901 336.615 131.845 333.817 131.845C332.825 131.868 331.844 131.641 330.963 131.185L330.664 131.995ZM331.703 123.84C332.01 123.75 332.329 123.706 332.649 123.708C334.312 123.708 335.654 125.275 335.654 127.106C335.654 127.936 335.238 128.538 334.406 128.538C333.31 128.538 332.308 127.142 332.101 125.971L331.703 123.84Z" fill="black"/>
<path opacity="0.3" d="M321.405 125.066V126.294H326.074V125.066H321.405Z" fill="black"/>
<path opacity="0.3" d="M315.604 125.066V126.294H320.273V125.066H315.604Z" fill="black"/>
<path opacity="0.3" d="M309.803 125.066V126.294H314.472V125.066H309.803Z" fill="black"/>
</g>
</svg>
